<?xml version="1.0" encoding="utf-8" standalone="no"?>
<!DOCTYPE svg PUBLIC "-//W3C//DTD SVG 1.1//EN"
  "http://www.w3.org/Graphics/SVG/1.1/DTD/svg11.dtd">
<svg xmlns:xlink="http://www.w3.org/1999/xlink" width="1080pt" height="648pt" viewBox="0 0 1080 648" xmlns="http://www.w3.org/2000/svg" version="1.1">
 <metadata>
  <rdf:RDF xmlns:dc="http://purl.org/dc/elements/1.1/" xmlns:cc="http://creativecommons.org/ns#" xmlns:rdf="http://www.w3.org/1999/02/22-rdf-syntax-ns#">
   <cc:Work>
    <dc:type rdf:resource="http://purl.org/dc/dcmitype/StillImage"/>
    <dc:date>2024-12-11T15:40:02.402304</dc:date>
    <dc:format>image/svg+xml</dc:format>
    <dc:creator>
     <cc:Agent>
      <dc:title>Matplotlib v3.9.3, https://matplotlib.org/</dc:title>
     </cc:Agent>
    </dc:creator>
   </cc:Work>
  </rdf:RDF>
 </metadata>
 <defs>
  <style type="text/css">*{stroke-linejoin: round; stroke-linecap: butt}</style>
 </defs>
 <g id="figure_1">
  <g id="patch_1">
   <path d="M 0 648 
L 1080 648 
L 1080 0 
L 0 0 
z
" style="fill: #f2f2f2"/>
  </g>
  <g id="axes_1">
   <g id="patch_2">
    <path d="M 77.1975 577.3275 
L 1069.2 577.3275 
L 1069.2 33.72 
L 77.1975 33.72 
z
" style="fill: #f2f2f2"/>
   </g>
   <g id="matplotlib.axis_1">
    <g id="xtick_1">
     <g id="line2d_1">
      <path d="M 122.288523 577.3275 
L 122.288523 33.72 
" clip-path="url(#p277bbdb069)" style="fill: none; stroke-dasharray: 1.85,0.8; stroke-dashoffset: 0; stroke: #000000; stroke-opacity: 0.7; stroke-width: 0.5"/>
     </g>
     <g id="line2d_2">
      <defs>
       <path id="m06a6808e86" d="M 0 0 
L 0 3.5 
" style="stroke: #000000; stroke-width: 0.8"/>
      </defs>
      <g>
       <use xlink:href="#m06a6808e86" x="122.288523" y="577.3275" style="stroke: #000000; stroke-width: 0.8"/>
      </g>
     </g>
     <g id="text_1">
      <!-- 0.0 -->
      <g transform="translate(112.066023 595.43) scale(0.16 -0.16)">
       <defs>
        <path id="CMUSerif-Roman-30" d="M 250 2047 
Q 250 2988 488 3500 
Q 819 4263 1600 4263 
Q 1766 4263 1939 4217 
Q 2113 4172 2333 4000 
Q 2553 3828 2688 3547 
Q 2944 3003 2944 2047 
Q 2944 1113 2706 603 
Q 2359 -141 1594 -141 
Q 1306 -141 1014 6 
Q 722 153 538 506 
Q 250 1034 250 2047 
z
M 781 2125 
Q 781 1159 850 775 
Q 928 359 1142 179 
Q 1356 0 1594 0 
Q 1850 0 2064 192 
Q 2278 384 2344 800 
Q 2416 1209 2413 2125 
Q 2413 3016 2350 3372 
Q 2266 3788 2042 3955 
Q 1819 4122 1594 4122 
Q 1509 4122 1420 4097 
Q 1331 4072 1203 4000 
Q 1075 3928 976 3750 
Q 878 3572 831 3303 
Q 781 2956 781 2125 
z
" transform="scale(0.015625)"/>
        <path id="CMUSerif-Roman-2e" d="M 641 103 
Q 544 206 544 340 
Q 544 475 641 573 
Q 738 672 884 672 
Q 1025 672 1120 580 
Q 1216 488 1216 339 
Q 1216 191 1114 95 
Q 1013 0 884 0 
Q 738 0 641 103 
z
" transform="scale(0.015625)"/>
       </defs>
       <use xlink:href="#CMUSerif-Roman-30"/>
       <use xlink:href="#CMUSerif-Roman-2e" x="50"/>
       <use xlink:href="#CMUSerif-Roman-30" x="77.783203"/>
      </g>
     </g>
    </g>
    <g id="xtick_2">
     <g id="line2d_3">
      <path d="M 302.652614 577.3275 
L 302.652614 33.72 
" clip-path="url(#p277bbdb069)" style="fill: none; stroke-dasharray: 1.85,0.8; stroke-dashoffset: 0; stroke: #000000; stroke-opacity: 0.7; stroke-width: 0.5"/>
     </g>
     <g id="line2d_4">
      <g>
       <use xlink:href="#m06a6808e86" x="302.652614" y="577.3275" style="stroke: #000000; stroke-width: 0.8"/>
      </g>
     </g>
     <g id="text_2">
      <!-- 0.2 -->
      <g transform="translate(292.430114 595.43) scale(0.16 -0.16)">
       <defs>
        <path id="CMUSerif-Roman-32" d="M 319 0 
Q 319 116 330 150 
Q 341 184 391 238 
L 1619 1606 
Q 2291 2363 2291 3022 
Q 2291 3450 2067 3756 
Q 1844 4063 1434 4063 
Q 1153 4063 915 3891 
Q 678 3719 569 3413 
Q 588 3419 653 3419 
Q 813 3419 902 3319 
Q 991 3219 991 3084 
Q 991 2913 880 2830 
Q 769 2747 659 2747 
Q 616 2747 558 2756 
Q 500 2766 409 2855 
Q 319 2944 319 3103 
Q 319 3550 658 3906 
Q 997 4263 1516 4263 
Q 2103 4263 2489 3914 
Q 2875 3566 2875 3022 
Q 2875 2831 2817 2657 
Q 2759 2484 2682 2350 
Q 2606 2216 2400 2000 
Q 2194 1784 2028 1631 
Q 1863 1478 1491 1153 
L 813 494 
L 1966 494 
Q 2528 494 2572 544 
Q 2634 634 2713 1113 
L 2875 1113 
L 2694 0 
L 319 0 
z
" transform="scale(0.015625)"/>
       </defs>
       <use xlink:href="#CMUSerif-Roman-30"/>
       <use xlink:href="#CMUSerif-Roman-2e" x="50"/>
       <use xlink:href="#CMUSerif-Roman-32" x="77.783203"/>
      </g>
     </g>
    </g>
    <g id="xtick_3">
     <g id="line2d_5">
      <path d="M 483.016705 577.3275 
L 483.016705 33.72 
" clip-path="url(#p277bbdb069)" style="fill: none; stroke-dasharray: 1.85,0.8; stroke-dashoffset: 0; stroke: #000000; stroke-opacity: 0.7; stroke-width: 0.5"/>
     </g>
     <g id="line2d_6">
      <g>
       <use xlink:href="#m06a6808e86" x="483.016705" y="577.3275" style="stroke: #000000; stroke-width: 0.8"/>
      </g>
     </g>
     <g id="text_3">
      <!-- 0.4 -->
      <g transform="translate(472.794205 595.43) scale(0.16 -0.16)">
       <defs>
        <path id="CMUSerif-Roman-34" d="M 178 1056 
L 178 1253 
L 2144 4256 
Q 2194 4334 2272 4331 
Q 2344 4331 2359 4303 
Q 2375 4275 2375 4166 
L 2375 1253 
L 3016 1253 
L 3016 1056 
L 2375 1056 
L 2375 500 
Q 2375 316 2451 256 
Q 2528 197 2859 197 
L 2994 197 
L 2994 0 
Q 2731 19 2125 19 
Q 1522 19 1259 0 
L 1259 197 
L 1394 197 
Q 1725 197 1803 255 
Q 1881 313 1881 500 
L 1881 1056 
L 178 1056 
z
M 359 1253 
L 1919 1253 
L 1919 3641 
L 359 1253 
z
" transform="scale(0.015625)"/>
       </defs>
       <use xlink:href="#CMUSerif-Roman-30"/>
       <use xlink:href="#CMUSerif-Roman-2e" x="50"/>
       <use xlink:href="#CMUSerif-Roman-34" x="77.783203"/>
      </g>
     </g>
    </g>
    <g id="xtick_4">
     <g id="line2d_7">
      <path d="M 663.380795 577.3275 
L 663.380795 33.72 
" clip-path="url(#p277bbdb069)" style="fill: none; stroke-dasharray: 1.85,0.8; stroke-dashoffset: 0; stroke: #000000; stroke-opacity: 0.7; stroke-width: 0.5"/>
     </g>
     <g id="line2d_8">
      <g>
       <use xlink:href="#m06a6808e86" x="663.380795" y="577.3275" style="stroke: #000000; stroke-width: 0.8"/>
      </g>
     </g>
     <g id="text_4">
      <!-- 0.6 -->
      <g transform="translate(653.158295 595.43) scale(0.16 -0.16)">
       <defs>
        <path id="CMUSerif-Roman-36" d="M 269 2022 
Q 269 3028 781 3645 
Q 1294 4263 1953 4263 
Q 2338 4263 2552 4067 
Q 2766 3872 2766 3572 
Q 2766 3406 2669 3334 
Q 2572 3263 2472 3263 
Q 2356 3263 2265 3341 
Q 2175 3419 2175 3559 
Q 2175 3847 2528 3847 
Q 2363 4103 1966 4103 
Q 1844 4103 1719 4067 
Q 1594 4031 1431 3912 
Q 1269 3794 1144 3606 
Q 1019 3419 931 3066 
Q 844 2713 844 2253 
L 844 2100 
Q 1106 2734 1643 2732 
Q 2181 2731 2553 2322 
Q 2925 1913 2925 1306 
Q 2925 684 2537 271 
Q 2150 -141 1606 -141 
Q 1363 -141 1142 -39 
Q 922 63 717 294 
Q 513 525 391 969 
Q 269 1413 269 2022 
z
M 856 1447 
Q 856 819 972 519 
Q 991 469 1033 400 
Q 1075 331 1148 242 
Q 1222 153 1344 95 
Q 1466 38 1606 38 
Q 2034 38 2241 453 
Q 2350 684 2350 1313 
Q 2350 1953 2234 2188 
Q 2038 2584 1638 2584 
Q 1369 2584 1183 2400 
Q 997 2216 926 1969 
Q 856 1722 856 1447 
z
" transform="scale(0.015625)"/>
       </defs>
       <use xlink:href="#CMUSerif-Roman-30"/>
       <use xlink:href="#CMUSerif-Roman-2e" x="50"/>
       <use xlink:href="#CMUSerif-Roman-36" x="77.783203"/>
      </g>
     </g>
    </g>
    <g id="xtick_5">
     <g id="line2d_9">
      <path d="M 843.744886 577.3275 
L 843.744886 33.72 
" clip-path="url(#p277bbdb069)" style="fill: none; stroke-dasharray: 1.85,0.8; stroke-dashoffset: 0; stroke: #000000; stroke-opacity: 0.7; stroke-width: 0.5"/>
     </g>
     <g id="line2d_10">
      <g>
       <use xlink:href="#m06a6808e86" x="843.744886" y="577.3275" style="stroke: #000000; stroke-width: 0.8"/>
      </g>
     </g>
     <g id="text_5">
      <!-- 0.8 -->
      <g transform="translate(833.522386 595.43) scale(0.16 -0.16)">
       <defs>
        <path id="CMUSerif-Roman-38" d="M 269 966 
Q 269 1681 1191 2144 
Q 794 2413 722 2491 
Q 441 2803 441 3194 
Q 441 3641 780 3952 
Q 1119 4263 1600 4263 
Q 2059 4263 2406 3997 
Q 2753 3731 2753 3309 
Q 2753 2716 1978 2316 
Q 2491 1997 2613 1863 
Q 2925 1516 2925 1075 
Q 2925 563 2531 211 
Q 2138 -141 1594 -141 
Q 1063 -141 666 168 
Q 269 478 269 966 
z
M 588 966 
Q 588 569 886 303 
Q 1184 38 1600 38 
Q 2003 38 2304 269 
Q 2606 500 2606 844 
Q 2606 978 2561 1093 
Q 2516 1209 2427 1301 
Q 2338 1394 2283 1436 
Q 2228 1478 2125 1550 
L 1338 2047 
Q 588 1631 588 966 
z
M 722 3444 
Q 722 3138 1044 2925 
L 1838 2413 
Q 2472 2784 2472 3309 
Q 2472 3650 2212 3876 
Q 1953 4103 1594 4103 
Q 1241 4103 981 3917 
Q 722 3731 722 3444 
z
" transform="scale(0.015625)"/>
       </defs>
       <use xlink:href="#CMUSerif-Roman-30"/>
       <use xlink:href="#CMUSerif-Roman-2e" x="50"/>
       <use xlink:href="#CMUSerif-Roman-38" x="77.783203"/>
      </g>
     </g>
    </g>
    <g id="xtick_6">
     <g id="line2d_11">
      <path d="M 1024.108977 577.3275 
L 1024.108977 33.72 
" clip-path="url(#p277bbdb069)" style="fill: none; stroke-dasharray: 1.85,0.8; stroke-dashoffset: 0; stroke: #000000; stroke-opacity: 0.7; stroke-width: 0.5"/>
     </g>
     <g id="line2d_12">
      <g>
       <use xlink:href="#m06a6808e86" x="1024.108977" y="577.3275" style="stroke: #000000; stroke-width: 0.8"/>
      </g>
     </g>
     <g id="text_6">
      <!-- 1.0 -->
      <g transform="translate(1013.886477 595.43) scale(0.16 -0.16)">
       <defs>
        <path id="CMUSerif-Roman-31" d="M 569 3653 
L 569 3853 
Q 1338 3853 1734 4263 
Q 1844 4263 1862 4238 
Q 1881 4213 1881 4097 
L 1881 506 
Q 1881 316 1975 256 
Q 2069 197 2478 197 
L 2681 197 
L 2681 0 
Q 2456 19 1643 19 
Q 831 19 609 0 
L 609 197 
L 813 197 
Q 1216 197 1312 255 
Q 1409 313 1409 506 
L 1409 3822 
Q 1075 3653 569 3653 
z
" transform="scale(0.015625)"/>
       </defs>
       <use xlink:href="#CMUSerif-Roman-31"/>
       <use xlink:href="#CMUSerif-Roman-2e" x="50"/>
       <use xlink:href="#CMUSerif-Roman-30" x="77.783203"/>
      </g>
     </g>
    </g>
    <g id="text_7">
     <!-- Recall -->
     <g transform="translate(546.425313 632.410625) scale(0.2 -0.2)">
      <defs>
       <path id="CMUSerif-Roman-52" d="M 225 0 
L 225 197 
L 378 197 
Q 725 197 804 255 
Q 884 313 884 500 
L 884 3872 
Q 884 4056 803 4114 
Q 722 4172 378 4172 
L 225 4172 
L 225 4372 
L 2234 4372 
Q 2931 4372 3417 4030 
Q 3903 3688 3903 3219 
Q 3903 2859 3587 2578 
Q 3272 2297 2784 2175 
Q 3419 1956 3566 1434 
L 3647 922 
Q 3672 738 3689 644 
Q 3706 550 3734 422 
Q 3763 294 3792 233 
Q 3822 172 3865 108 
Q 3909 44 3967 22 
Q 4025 0 4103 0 
Q 4250 0 4375 131 
Q 4500 263 4525 569 
Q 4538 672 4603 672 
Q 4684 672 4684 569 
Q 4684 478 4659 373 
Q 4634 269 4573 147 
Q 4513 25 4381 -58 
Q 4250 -141 4078 -141 
Q 3578 -141 3272 128 
Q 3144 244 3086 394 
Q 3028 544 3018 662 
Q 3009 781 3009 1044 
Q 3009 1416 2970 1578 
Q 2931 1741 2766 1900 
Q 2541 2119 2169 2119 
L 1434 2119 
L 1434 500 
Q 1434 316 1514 256 
Q 1594 197 1941 197 
L 2094 197 
L 2094 0 
Q 1863 19 1159 19 
Q 456 19 225 0 
z
M 1434 2259 
L 2144 2259 
Q 2484 2259 2714 2342 
Q 2944 2425 3053 2575 
Q 3163 2725 3203 2876 
Q 3244 3028 3244 3219 
Q 3244 3444 3194 3612 
Q 3144 3781 3034 3881 
Q 2925 3981 2815 4045 
Q 2706 4109 2537 4134 
Q 2369 4159 2253 4165 
Q 2138 4172 1953 4172 
Q 1641 4172 1575 4159 
Q 1503 4153 1475 4118 
Q 1447 4084 1440 4045 
Q 1434 4006 1434 3916 
L 1434 2259 
z
" transform="scale(0.015625)"/>
       <path id="CMUSerif-Roman-65" d="M 178 1409 
Q 178 2013 565 2441 
Q 953 2869 1509 2869 
Q 2072 2869 2364 2503 
Q 2656 2138 2656 1613 
Q 2656 1516 2631 1497 
Q 2606 1478 2497 1478 
L 709 1478 
Q 709 825 903 519 
Q 1172 91 1625 91 
Q 1688 91 1763 103 
Q 1838 116 1991 170 
Q 2144 225 2278 372 
Q 2413 519 2491 750 
Q 2509 841 2572 838 
Q 2656 838 2656 763 
Q 2656 706 2595 579 
Q 2534 453 2418 303 
Q 2303 153 2079 40 
Q 1856 -72 1588 -72 
Q 1025 -72 601 354 
Q 178 781 178 1409 
z
M 716 1613 
L 2234 1613 
Q 2234 1747 2211 1897 
Q 2188 2047 2120 2255 
Q 2053 2463 1897 2594 
Q 1741 2725 1509 2725 
Q 1406 2725 1295 2681 
Q 1184 2638 1050 2531 
Q 916 2425 822 2184 
Q 728 1944 716 1613 
z
" transform="scale(0.015625)"/>
       <path id="CMUSerif-Roman-63" d="M 625 351 
Q 219 775 219 1383 
Q 219 1991 619 2430 
Q 1019 2869 1606 2869 
Q 1997 2869 2290 2683 
Q 2584 2497 2584 2181 
Q 2584 2041 2501 1961 
Q 2419 1881 2291 1881 
Q 2156 1881 2076 1964 
Q 1997 2047 1997 2175 
Q 1997 2231 2015 2287 
Q 2034 2344 2104 2403 
Q 2175 2463 2297 2472 
Q 2069 2706 1625 2706 
Q 1619 2706 1613 2706 
Q 1288 2706 1019 2400 
Q 750 2094 750 1394 
Q 750 1028 839 761 
Q 928 494 1075 356 
Q 1222 219 1365 155 
Q 1509 91 1650 91 
Q 2278 91 2491 763 
Q 2509 825 2572 825 
Q 2656 825 2656 763 
Q 2656 731 2631 650 
Q 2606 569 2528 441 
Q 2450 313 2339 202 
Q 2228 91 2033 9 
Q 1838 -72 1594 -72 
Q 1031 -72 625 351 
z
" transform="scale(0.015625)"/>
       <path id="CMUSerif-Roman-61" d="M 269 609 
Q 269 1153 909 1441 
Q 1294 1625 2088 1672 
L 2088 1906 
Q 2088 2303 1880 2514 
Q 1672 2725 1409 2725 
Q 941 2725 716 2431 
Q 906 2425 975 2329 
Q 1044 2234 1044 2138 
Q 1044 2009 964 1926 
Q 884 1844 750 1844 
Q 622 1844 537 1923 
Q 453 2003 453 2144 
Q 453 2456 736 2662 
Q 1019 2869 1422 2869 
Q 1947 2869 2297 2516 
Q 2406 2406 2461 2265 
Q 2516 2125 2522 2033 
Q 2528 1941 2528 1759 
L 2528 481 
Q 2528 444 2540 381 
Q 2553 319 2611 239 
Q 2669 159 2766 159 
Q 2997 159 2994 569 
L 2994 928 
L 3156 928 
L 3156 569 
Q 3156 228 2976 95 
Q 2797 -38 2631 -38 
Q 2419 -38 2284 118 
Q 2150 275 2131 488 
Q 2034 244 1814 86 
Q 1594 -72 1294 -72 
Q 1063 -72 845 -14 
Q 628 44 448 205 
Q 269 366 269 609 
z
M 763 616 
Q 763 378 931 225 
Q 1100 72 1338 72 
Q 1606 72 1847 280 
Q 2088 488 2088 897 
L 2088 1538 
Q 1378 1513 1070 1230 
Q 763 947 763 616 
z
" transform="scale(0.015625)"/>
       <path id="CMUSerif-Roman-6c" d="M 213 0 
L 213 197 
Q 553 197 631 239 
Q 709 281 709 488 
L 709 3816 
Q 709 4053 626 4112 
Q 544 4172 213 4172 
L 213 4372 
L 1131 4441 
L 1131 488 
Q 1131 281 1212 239 
Q 1294 197 1631 197 
L 1631 0 
Q 1553 0 1390 6 
Q 1228 13 1109 16 
Q 991 19 922 19 
Q 847 19 213 0 
z
" transform="scale(0.015625)"/>
      </defs>
      <use xlink:href="#CMUSerif-Roman-52"/>
      <use xlink:href="#CMUSerif-Roman-65" x="73.583984"/>
      <use xlink:href="#CMUSerif-Roman-63" x="117.96875"/>
      <use xlink:href="#CMUSerif-Roman-61" x="162.353516"/>
      <use xlink:href="#CMUSerif-Roman-6c" x="212.353516"/>
      <use xlink:href="#CMUSerif-Roman-6c" x="240.039062"/>
     </g>
    </g>
   </g>
   <g id="matplotlib.axis_2">
    <g id="ytick_1">
     <g id="line2d_13">
      <path d="M 77.1975 552.618068 
L 1069.2 552.618068 
" clip-path="url(#p277bbdb069)" style="fill: none; stroke-dasharray: 1.85,0.8; stroke-dashoffset: 0; stroke: #000000; stroke-opacity: 0.7; stroke-width: 0.5"/>
     </g>
     <g id="line2d_14">
      <defs>
       <path id="m026a580c1d" d="M 0 0 
L -3.5 0 
" style="stroke: #000000; stroke-width: 0.8"/>
      </defs>
      <g>
       <use xlink:href="#m026a580c1d" x="77.1975" y="552.618068" style="stroke: #000000; stroke-width: 0.8"/>
      </g>
     </g>
     <g id="text_8">
      <!-- 0.0 -->
      <g transform="translate(49.7525 558.169318) scale(0.16 -0.16)">
       <use xlink:href="#CMUSerif-Roman-30"/>
       <use xlink:href="#CMUSerif-Roman-2e" x="50"/>
       <use xlink:href="#CMUSerif-Roman-30" x="77.783203"/>
      </g>
     </g>
    </g>
    <g id="ytick_2">
     <g id="line2d_15">
      <path d="M 77.1975 453.780341 
L 1069.2 453.780341 
" clip-path="url(#p277bbdb069)" style="fill: none; stroke-dasharray: 1.85,0.8; stroke-dashoffset: 0; stroke: #000000; stroke-opacity: 0.7; stroke-width: 0.5"/>
     </g>
     <g id="line2d_16">
      <g>
       <use xlink:href="#m026a580c1d" x="77.1975" y="453.780341" style="stroke: #000000; stroke-width: 0.8"/>
      </g>
     </g>
     <g id="text_9">
      <!-- 0.2 -->
      <g transform="translate(49.7525 459.331591) scale(0.16 -0.16)">
       <use xlink:href="#CMUSerif-Roman-30"/>
       <use xlink:href="#CMUSerif-Roman-2e" x="50"/>
       <use xlink:href="#CMUSerif-Roman-32" x="77.783203"/>
      </g>
     </g>
    </g>
    <g id="ytick_3">
     <g id="line2d_17">
      <path d="M 77.1975 354.942614 
L 1069.2 354.942614 
" clip-path="url(#p277bbdb069)" style="fill: none; stroke-dasharray: 1.85,0.8; stroke-dashoffset: 0; stroke: #000000; stroke-opacity: 0.7; stroke-width: 0.5"/>
     </g>
     <g id="line2d_18">
      <g>
       <use xlink:href="#m026a580c1d" x="77.1975" y="354.942614" style="stroke: #000000; stroke-width: 0.8"/>
      </g>
     </g>
     <g id="text_10">
      <!-- 0.4 -->
      <g transform="translate(49.7525 360.493864) scale(0.16 -0.16)">
       <use xlink:href="#CMUSerif-Roman-30"/>
       <use xlink:href="#CMUSerif-Roman-2e" x="50"/>
       <use xlink:href="#CMUSerif-Roman-34" x="77.783203"/>
      </g>
     </g>
    </g>
    <g id="ytick_4">
     <g id="line2d_19">
      <path d="M 77.1975 256.104886 
L 1069.2 256.104886 
" clip-path="url(#p277bbdb069)" style="fill: none; stroke-dasharray: 1.85,0.8; stroke-dashoffset: 0; stroke: #000000; stroke-opacity: 0.7; stroke-width: 0.5"/>
     </g>
     <g id="line2d_20">
      <g>
       <use xlink:href="#m026a580c1d" x="77.1975" y="256.104886" style="stroke: #000000; stroke-width: 0.8"/>
      </g>
     </g>
     <g id="text_11">
      <!-- 0.6 -->
      <g transform="translate(49.7525 261.656136) scale(0.16 -0.16)">
       <use xlink:href="#CMUSerif-Roman-30"/>
       <use xlink:href="#CMUSerif-Roman-2e" x="50"/>
       <use xlink:href="#CMUSerif-Roman-36" x="77.783203"/>
      </g>
     </g>
    </g>
    <g id="ytick_5">
     <g id="line2d_21">
      <path d="M 77.1975 157.267159 
L 1069.2 157.267159 
" clip-path="url(#p277bbdb069)" style="fill: none; stroke-dasharray: 1.85,0.8; stroke-dashoffset: 0; stroke: #000000; stroke-opacity: 0.7; stroke-width: 0.5"/>
     </g>
     <g id="line2d_22">
      <g>
       <use xlink:href="#m026a580c1d" x="77.1975" y="157.267159" style="stroke: #000000; stroke-width: 0.8"/>
      </g>
     </g>
     <g id="text_12">
      <!-- 0.8 -->
      <g transform="translate(49.7525 162.818409) scale(0.16 -0.16)">
       <use xlink:href="#CMUSerif-Roman-30"/>
       <use xlink:href="#CMUSerif-Roman-2e" x="50"/>
       <use xlink:href="#CMUSerif-Roman-38" x="77.783203"/>
      </g>
     </g>
    </g>
    <g id="ytick_6">
     <g id="line2d_23">
      <path d="M 77.1975 58.429432 
L 1069.2 58.429432 
" clip-path="url(#p277bbdb069)" style="fill: none; stroke-dasharray: 1.85,0.8; stroke-dashoffset: 0; stroke: #000000; stroke-opacity: 0.7; stroke-width: 0.5"/>
     </g>
     <g id="line2d_24">
      <g>
       <use xlink:href="#m026a580c1d" x="77.1975" y="58.429432" style="stroke: #000000; stroke-width: 0.8"/>
      </g>
     </g>
     <g id="text_13">
      <!-- 1.0 -->
      <g transform="translate(49.7525 63.980682) scale(0.16 -0.16)">
       <use xlink:href="#CMUSerif-Roman-31"/>
       <use xlink:href="#CMUSerif-Roman-2e" x="50"/>
       <use xlink:href="#CMUSerif-Roman-30" x="77.783203"/>
      </g>
     </g>
    </g>
    <g id="text_14">
     <!-- Precision -->
     <g transform="translate(25.874375 345.125313) rotate(-90) scale(0.2 -0.2)">
      <defs>
       <path id="CMUSerif-Roman-50" d="M 225 0 
L 225 197 
L 378 197 
Q 725 197 804 255 
Q 884 313 884 500 
L 884 3872 
Q 884 4056 803 4114 
Q 722 4172 378 4172 
L 225 4172 
L 225 4372 
L 2484 4372 
Q 3131 4372 3562 4015 
Q 3994 3659 3994 3181 
Q 3994 2706 3555 2364 
Q 3116 2022 2534 2022 
L 1453 2022 
L 1453 500 
Q 1453 316 1533 256 
Q 1613 197 1959 197 
L 2113 197 
L 2113 0 
Q 1888 19 1166 19 
Q 450 19 225 0 
z
M 1434 2188 
L 2316 2188 
Q 2603 2188 2812 2269 
Q 3022 2350 3117 2448 
Q 3213 2547 3267 2708 
Q 3322 2869 3328 2958 
Q 3334 3047 3334 3181 
Q 3334 3322 3328 3411 
Q 3322 3500 3267 3661 
Q 3213 3822 3117 3920 
Q 3022 4019 2814 4095 
Q 2606 4172 2316 4172 
L 1747 4172 
Q 1528 4172 1481 4128 
Q 1434 4084 1434 3916 
L 1434 2188 
z
" transform="scale(0.015625)"/>
       <path id="CMUSerif-Roman-72" d="M 178 0 
L 178 197 
Q 519 197 598 239 
Q 678 281 678 488 
L 678 2203 
Q 678 2441 595 2500 
Q 513 2559 178 2559 
L 178 2759 
L 1069 2828 
L 1069 2125 
Q 1159 2400 1351 2614 
Q 1544 2828 1856 2828 
Q 2063 2828 2195 2712 
Q 2328 2597 2328 2438 
Q 2328 2297 2242 2226 
Q 2156 2156 2053 2156 
Q 1938 2156 1858 2229 
Q 1778 2303 1778 2431 
Q 1778 2509 1814 2570 
Q 1850 2631 1878 2653 
Q 1906 2675 1925 2681 
Q 1913 2688 1856 2688 
Q 1503 2688 1301 2336 
Q 1100 1984 1100 1484 
L 1100 500 
Q 1100 316 1176 256 
Q 1253 197 1588 197 
L 1722 197 
L 1722 0 
Q 1466 19 909 19 
Q 831 19 709 16 
Q 588 13 428 6 
Q 269 0 178 0 
z
" transform="scale(0.015625)"/>
       <path id="CMUSerif-Roman-69" d="M 213 0 
L 213 197 
Q 553 197 631 239 
Q 709 281 709 488 
L 709 2209 
Q 709 2447 629 2503 
Q 550 2559 238 2559 
L 238 2759 
L 1131 2828 
L 1131 481 
Q 1131 291 1200 244 
Q 1269 197 1581 197 
L 1581 0 
Q 928 19 916 19 
Q 828 19 213 0 
z
M 481 3944 
Q 481 4072 579 4176 
Q 678 4281 818 4281 
Q 959 4281 1059 4186 
Q 1159 4091 1159 3942 
Q 1159 3794 1059 3698 
Q 959 3603 819 3603 
Q 672 3603 576 3706 
Q 481 3809 481 3944 
z
" transform="scale(0.015625)"/>
       <path id="CMUSerif-Roman-73" d="M 213 84 
L 213 928 
Q 213 1000 216 1025 
Q 219 1050 237 1069 
Q 256 1088 294 1088 
Q 338 1088 355 1069 
Q 372 1050 384 978 
Q 481 538 689 305 
Q 897 72 1275 72 
Q 1634 72 1815 231 
Q 1997 391 1997 653 
Q 1997 1122 1331 1241 
Q 947 1319 787 1370 
Q 628 1422 488 1538 
Q 213 1763 213 2081 
Q 213 2400 455 2634 
Q 697 2869 1234 2869 
Q 1594 2869 1838 2688 
Q 1909 2744 1947 2791 
Q 2031 2869 2075 2869 
Q 2125 2869 2134 2836 
Q 2144 2803 2144 2713 
L 2144 2069 
Q 2144 1997 2141 1972 
Q 2138 1947 2119 1930 
Q 2100 1913 2059 1913 
Q 1988 1913 1984 1972 
Q 1934 2747 1234 2747 
Q 856 2747 687 2601 
Q 519 2456 519 2259 
Q 519 2150 570 2067 
Q 622 1984 689 1936 
Q 756 1888 881 1842 
Q 1006 1797 1082 1781 
Q 1159 1766 1306 1734 
Q 1819 1638 2034 1428 
Q 2303 1159 2303 819 
Q 2303 441 2047 184 
Q 1791 -72 1275 -72 
Q 859 -72 569 206 
Q 531 169 503 136 
Q 475 103 464 90 
Q 453 78 450 70 
Q 447 63 441 56 
Q 313 -72 281 -72 
Q 231 -72 222 -39 
Q 213 -6 213 84 
z
" transform="scale(0.015625)"/>
       <path id="CMUSerif-Roman-6f" d="M 601 345 
Q 178 763 178 1370 
Q 178 1978 592 2423 
Q 1006 2869 1600 2869 
Q 2181 2869 2598 2426 
Q 3016 1984 3016 1369 
Q 3016 766 2595 347 
Q 2175 -72 1594 -72 
Q 1025 -72 601 345 
z
M 709 1422 
Q 709 800 872 519 
Q 1122 91 1600 91 
Q 1838 91 2036 219 
Q 2234 347 2344 563 
Q 2484 844 2484 1422 
Q 2484 2038 2316 2309 
Q 2066 2725 1594 2725 
Q 1388 2725 1186 2617 
Q 984 2509 863 2297 
Q 709 2016 709 1422 
z
" transform="scale(0.015625)"/>
       <path id="CMUSerif-Roman-6e" d="M 206 0 
L 206 197 
Q 547 197 625 239 
Q 703 281 703 488 
L 703 2203 
Q 703 2441 620 2500 
Q 538 2559 206 2559 
L 206 2759 
L 1106 2828 
L 1106 2156 
Q 1406 2828 2053 2828 
Q 2534 2828 2725 2591 
Q 2866 2431 2895 2253 
Q 2925 2075 2925 1613 
L 2925 391 
Q 2931 256 3034 226 
Q 3138 197 3425 197 
L 3425 0 
Q 2772 19 2706 19 
Q 2656 19 1984 0 
L 1984 197 
Q 2325 197 2404 239 
Q 2484 281 2484 488 
L 2484 1978 
Q 2484 2303 2384 2495 
Q 2284 2688 2009 2688 
Q 1678 2688 1412 2409 
Q 1147 2131 1147 1663 
L 1147 488 
Q 1147 281 1226 239 
Q 1306 197 1644 197 
L 1644 0 
Q 991 19 928 19 
Q 878 19 206 0 
z
" transform="scale(0.015625)"/>
      </defs>
      <use xlink:href="#CMUSerif-Roman-50"/>
      <use xlink:href="#CMUSerif-Roman-72" x="67.96875"/>
      <use xlink:href="#CMUSerif-Roman-65" x="107.03125"/>
      <use xlink:href="#CMUSerif-Roman-63" x="151.416016"/>
      <use xlink:href="#CMUSerif-Roman-69" x="195.800781"/>
      <use xlink:href="#CMUSerif-Roman-73" x="223.486328"/>
      <use xlink:href="#CMUSerif-Roman-69" x="262.841797"/>
      <use xlink:href="#CMUSerif-Roman-6f" x="290.527344"/>
      <use xlink:href="#CMUSerif-Roman-6e" x="340.527344"/>
     </g>
    </g>
   </g>
   <g id="line2d_25">
    <path d="M 1024.108977 203.28284 
L 1024.108977 201.006367 
L 1023.358086 201.090882 
L 1023.358086 199.836174 
L 1022.607195 199.710281 
L 1022.607195 199.289401 
L 1021.856303 199.373446 
L 1021.856303 198.95141 
L 1021.105412 199.035404 
L 1021.105412 193.016975 
L 1020.354521 193.098841 
L 1020.354521 192.221965 
L 1019.603629 192.303596 
L 1019.603629 192.083623 
L 1018.852738 192.165269 
L 1018.852738 190.617312 
L 1018.101847 190.47615 
L 1016.600064 190.638569 
L 1016.600064 189.297904 
L 1015.849173 189.378737 
L 1015.849173 186.666309 
L 1015.098282 186.746157 
L 1015.098282 185.603522 
L 1014.34739 185.683006 
L 1014.34739 185.453528 
L 1013.596499 185.533017 
L 1013.596499 184.149531 
L 1012.845608 184.22855 
L 1012.845608 182.600566 
L 1011.343825 182.757546 
L 1011.343825 180.64137 
L 1010.592934 180.719113 
L 1010.592934 180.482386 
L 1009.842043 180.560127 
L 1009.842043 179.609787 
L 1009.091151 179.687219 
L 1009.091151 178.731598 
L 1008.34026 178.808715 
L 1008.34026 177.365436 
L 1007.589369 177.200283 
L 1007.589369 176.473199 
L 1006.838477 176.549455 
L 1006.838477 176.062949 
L 1006.087586 176.139088 
L 1006.087586 175.895254 
L 1005.336695 175.971382 
L 1005.336695 175.727124 
L 1004.585803 175.803242 
L 1004.585803 174.576631 
L 1003.084021 174.728061 
L 1003.084021 173.740114 
L 1002.333129 173.815529 
L 1002.333129 172.821949 
L 1001.582238 172.89701 
L 1001.582238 171.144836 
L 1000.080456 171.293635 
L 1000.080456 170.284173 
L 999.329564 170.358249 
L 999.329564 169.088283 
L 997.827782 169.235533 
L 997.827782 168.724697 
L 997.07689 168.798227 
L 997.07689 167.771971 
L 996.325999 167.84511 
L 996.325999 167.071438 
L 995.575108 167.144303 
L 995.575108 166.626541 
L 994.824216 166.439726 
L 991.820651 166.731055 
L 991.820651 165.948851 
L 990.318869 166.094344 
L 990.318869 165.5706 
L 989.567977 165.643238 
L 989.567977 164.854566 
L 988.817086 164.926915 
L 988.817086 164.134631 
L 985.06263 164.495892 
L 985.06263 164.230419 
L 984.311738 164.302836 
L 984.311738 164.036866 
L 983.560847 164.10925 
L 982.809956 163.915133 
L 982.059064 163.987581 
L 982.059064 163.720481 
L 981.308173 163.792896 
L 981.308173 162.720275 
L 980.557282 162.792249 
L 980.557282 161.442437 
L 979.055499 161.585312 
L 979.055499 160.224725 
L 978.304608 160.295613 
L 978.304608 158.37381 
L 975.301043 158.654355 
L 975.301043 158.377695 
L 974.550151 158.447933 
L 974.550151 157.058052 
L 969.293912 157.547351 
L 969.293912 157.267159 
L 968.543021 157.337307 
L 968.543021 156.211952 
L 965.539456 156.491131 
L 965.539456 153.643346 
L 964.037673 153.780443 
L 964.037673 152.917158 
L 963.286782 152.98538 
L 963.286782 152.117871 
L 961.034108 152.321689 
L 961.034108 151.740285 
L 960.283217 151.808099 
L 960.283217 151.224678 
L 958.781434 151.359948 
L 958.781434 149.597467 
L 956.52876 149.798131 
L 956.52876 149.502374 
L 955.026977 149.636305 
L 955.026977 149.339777 
L 954.276086 149.406721 
L 954.276086 148.812014 
L 952.774304 148.945519 
L 952.774304 148.049133 
L 952.023412 148.115518 
L 952.023412 145.704176 
L 950.52163 145.834437 
L 950.52163 145.53064 
L 949.019847 145.660934 
L 949.019847 145.05126 
L 948.268956 145.116194 
L 948.268956 144.810491 
L 947.518064 144.875342 
L 947.518064 144.262195 
L 944.514499 144.521117 
L 944.514499 143.904657 
L 943.763608 143.969264 
L 943.763608 143.66015 
L 941.510934 143.854003 
L 941.510934 143.543863 
L 937.005586 143.933106 
L 937.005586 143.621371 
L 936.254695 143.686403 
L 936.254695 143.374003 
L 935.503804 143.438945 
L 935.503804 142.812331 
L 932.500238 143.071572 
L 932.500238 142.4415 
L 930.998456 142.570948 
L 930.998456 142.254798 
L 930.247564 142.319478 
L 930.247564 142.002645 
L 929.496673 142.06723 
L 929.496673 141.113201 
L 927.994891 141.241492 
L 927.994891 140.9221 
L 926.493108 141.050394 
L 926.493108 140.730107 
L 919.735086 141.310598 
L 919.735086 140.664903 
L 917.482412 140.859008 
L 917.482412 139.884814 
L 916.731521 139.949104 
L 916.731521 139.296663 
L 915.98063 139.36064 
L 915.98063 138.705716 
L 915.229738 138.769377 
L 915.229738 138.440925 
L 913.727956 138.56813 
L 913.727956 136.915895 
L 912.977064 136.978584 
L 912.977064 135.980251 
L 912.226173 136.042391 
L 912.226173 135.038594 
L 909.973499 135.22364 
L 909.973499 134.887303 
L 908.471717 135.010722 
L 908.471717 134.673398 
L 906.219043 134.858606 
L 906.219043 133.501142 
L 904.71726 133.623309 
L 904.71726 133.282108 
L 903.966369 133.343113 
L 903.966369 132.658582 
L 900.962804 132.901757 
L 900.962804 132.213133 
L 897.959238 132.456042 
L 897.959238 131.763277 
L 896.457456 131.88439 
L 896.457456 130.140055 
L 894.955673 130.259175 
L 894.955673 129.556415 
L 891.952108 129.793901 
L 891.952108 129.440664 
L 890.450325 129.559512 
L 890.450325 129.205191 
L 889.699434 129.264517 
L 889.699434 128.909355 
L 888.948543 128.968532 
L 888.948543 128.612524 
L 886.695869 128.789903 
L 886.695869 128.432544 
L 885.194086 128.550792 
L 885.194086 127.473568 
L 883.692304 127.590691 
L 883.692304 127.229887 
L 880.688738 127.464301 
L 880.688738 127.101851 
L 875.432499 127.514121 
L 875.432499 127.149225 
L 874.681608 127.208263 
L 873.930717 126.901351 
L 873.930717 125.79941 
L 870.17626 126.091308 
L 870.17626 125.72138 
L 868.674478 125.838307 
L 868.674478 125.467195 
L 867.172695 125.583985 
L 867.172695 124.838725 
L 865.670912 124.954825 
L 865.670912 124.205853 
L 864.16913 124.32125 
L 864.16913 123.945221 
L 861.916456 124.118238 
L 861.916456 123.740705 
L 859.663782 123.913792 
L 859.663782 123.534743 
L 855.158434 123.881971 
L 855.158434 123.500533 
L 854.407543 123.558477 
L 854.407543 123.176071 
L 853.656652 123.233829 
L 853.656652 122.466386 
L 849.902195 122.753805 
L 849.902195 121.980668 
L 849.151304 122.03787 
L 849.151304 121.64996 
L 846.147739 121.878606 
L 846.147739 121.098281 
L 845.396847 121.155097 
L 845.396847 120.76357 
L 843.144173 120.933727 
L 843.144173 119.356798 
L 841.642391 119.468284 
L 841.642391 119.071627 
L 839.389717 119.238686 
L 839.389717 118.840359 
L 838.638826 118.895935 
L 838.638826 118.496559 
L 837.137043 118.607384 
L 837.137043 117.805146 
L 835.63526 117.915101 
L 835.63526 117.512225 
L 834.884369 117.567033 
L 834.884369 117.163086 
L 834.133478 117.217671 
L 834.133478 115.184989 
L 830.379021 115.451198 
L 830.379021 114.217425 
L 826.624565 114.481073 
L 826.624565 114.066563 
L 825.873673 114.11925 
L 825.873673 113.703611 
L 822.119217 113.966821 
L 822.119217 112.709941 
L 821.368326 112.761834 
L 821.368326 111.919198 
L 819.115652 112.073347 
L 819.115652 111.649747 
L 816.862978 111.803711 
L 816.862978 109.667982 
L 815.361195 109.767475 
L 815.361195 109.337105 
L 814.610304 109.386626 
L 814.610304 108.955047 
L 810.855847 109.202237 
L 810.855847 108.767941 
L 808.603173 108.916287 
L 808.603173 108.042858 
L 807.852282 108.091738 
L 807.852282 107.653349 
L 807.101391 107.701941 
L 807.101391 107.262301 
L 806.350499 107.310603 
L 806.350499 106.427932 
L 805.599608 106.475549 
L 805.599608 106.032508 
L 804.848717 106.079827 
L 804.848717 105.190309 
L 804.097826 105.23693 
L 804.097826 104.790442 
L 799.592478 105.069725 
L 799.592478 104.619927 
L 795.838021 104.853213 
L 795.838021 104.400468 
L 794.336239 104.493621 
L 794.336239 104.039134 
L 791.332673 104.224916 
L 791.332673 103.767839 
L 789.830891 103.860461 
L 789.830891 103.401608 
L 789.08 103.447639 
L 789.08 102.987424 
L 784.574652 103.26304 
L 784.574652 102.799309 
L 783.072869 102.891077 
L 783.072869 101.959001 
L 782.321978 102.004156 
L 782.321978 100.126598 
L 780.820195 100.213648 
L 780.820195 99.740917 
L 777.065739 99.957889 
L 777.065739 98.526929 
L 776.314847 98.569226 
L 776.314847 97.127801 
L 775.563956 97.168795 
L 775.563956 96.685816 
L 774.813065 96.726428 
L 774.813065 96.241952 
L 768.805934 96.566175 
L 768.805934 96.076849 
L 765.802369 96.239123 
L 765.802369 95.253423 
L 758.293456 95.655432 
L 758.293456 94.153912 
L 753.037217 94.429929 
L 753.037217 93.923643 
L 752.286326 93.962907 
L 752.286326 93.454983 
L 750.784543 93.532731 
L 750.784543 93.022636 
L 741.022956 93.529639 
L 741.022956 93.011481 
L 733.514043 93.406253 
L 733.514043 92.88144 
L 726.00513 93.279729 
L 726.00513 92.748087 
L 724.503347 92.827713 
L 724.503347 91.758433 
L 713.990869 92.309977 
L 713.990869 91.765233 
L 706.481956 92.164464 
L 706.481956 91.612362 
L 703.478391 91.77228 
L 703.478391 91.216374 
L 692.965913 91.779585 
L 692.965913 91.213445 
L 681.702543 91.828914 
L 681.702543 91.251484 
L 680.200761 91.333952 
L 680.200761 90.75372 
L 671.940956 91.20725 
L 671.940956 90.027171 
L 663.681152 90.477982 
L 663.681152 89.8778 
L 661.428478 90.000805 
L 661.428478 89.396866 
L 656.92313 89.641346 
L 656.92313 89.031363 
L 654.670456 89.152799 
L 654.670456 88.538938 
L 647.912435 88.90219 
L 647.912435 88.279752 
L 643.407087 88.522109 
L 643.407087 85.996417 
L 637.399956 86.299768 
L 637.399956 85.657456 
L 636.649065 85.695012 
L 636.649065 85.05009 
L 635.147282 85.123832 
L 635.147282 83.825237 
L 622.38213 84.43936 
L 622.38213 83.772439 
L 620.880348 83.844847 
L 620.880348 83.174213 
L 619.378565 83.245217 
L 619.378565 82.570831 
L 606.613413 83.175255 
L 606.613413 81.788422 
L 599.855391 82.103139 
L 599.855391 81.397719 
L 596.851826 81.536291 
L 596.851826 80.824687 
L 572.072413 81.999637 
L 572.072413 81.250245 
L 564.5635 81.619513 
L 564.5635 80.856145 
L 562.310826 80.965721 
L 562.310826 80.196305 
L 558.55637 80.375309 
L 558.55637 79.597314 
L 539.033196 80.544586 
L 539.033196 79.730666 
L 516.506457 80.892552 
L 516.506457 80.033307 
L 511.250218 80.312323 
L 511.250218 79.4393 
L 494.730609 80.329892 
L 494.730609 79.418138 
L 493.228826 79.49949 
L 493.228826 77.658562 
L 478.961892 78.396649 
L 478.961892 77.436687 
L 476.709218 77.552821 
L 476.709218 76.5833 
L 463.193174 77.275609 
L 463.193174 76.266389 
L 456.435152 76.613862 
L 456.435152 75.581315 
L 448.175348 76.000583 
L 448.175348 74.939074 
L 440.666435 75.315148 
L 440.666435 74.225416 
L 439.164652 74.297874 
L 439.164652 73.198288 
L 422.645044 73.985006 
L 422.645044 72.823276 
L 421.143261 72.893489 
L 421.143261 71.720569 
L 396.363848 72.887078 
L 396.363848 71.607795 
L 385.85137 72.118868 
L 385.85137 70.784148 
L 382.096913 70.958158 
L 382.096913 69.597537 
L 379.84424 69.69299 
L 379.84424 68.313205 
L 372.335327 68.603904 
L 372.335327 67.176133 
L 365.577305 67.41468 
L 365.577305 64.456123 
L 338.545218 65.199139 
L 338.545218 63.52416 
L 325.780066 63.840256 
L 325.780066 62.049861 
L 292.740848 62.74549 
L 267.210544 63.498033 
L 246.936479 64.31263 
L 231.167762 65.153087 
L 224.40974 65.591586 
L 224.40974 62.036648 
L 207.890131 62.726724 
L 195.124979 63.472173 
L 185.363392 64.243416 
L 177.103588 65.107657 
L 170.345566 66.032334 
L 165.089327 66.949926 
L 160.583979 67.933059 
L 156.829523 68.944084 
L 153.075066 70.195828 
L 150.071501 71.434396 
L 147.818827 72.549107 
L 145.566153 73.872827 
L 143.313479 75.470419 
L 141.060805 77.436687 
L 139.559023 79.020625 
L 138.05724 80.892552 
L 136.555457 83.138864 
L 135.053675 85.884356 
L 133.551892 89.316222 
L 132.05011 93.72862 
L 131.299218 96.443942 
L 130.548327 99.611818 
L 129.797436 103.355671 
L 129.046544 107.848295 
L 128.295653 113.33928 
L 127.544762 120.203011 
L 126.793871 129.027808 
L 126.793871 58.429432 
L 122.288523 58.429432 
L 122.288523 58.429432 
" clip-path="url(#p277bbdb069)" style="fill: none; stroke: #ff7f0e; stroke-width: 2; stroke-linecap: square"/>
   </g>
   <g id="line2d_26">
    <path d="M 1024.108977 103.483666 
L 1023.543573 103.509353 
L 1023.543573 102.996672 
L 1022.978168 103.022124 
L 1022.978168 102.765212 
L 1022.412763 102.790562 
L 1022.412763 102.533223 
L 1021.847359 102.558469 
L 1020.716549 102.092685 
L 1019.58574 102.142844 
L 1019.58574 101.88395 
L 1018.454931 101.933955 
L 1018.454931 101.674494 
L 1017.889526 101.699405 
L 1017.889526 101.439509 
L 1017.324121 101.464313 
L 1017.324121 100.94335 
L 1016.758717 100.967911 
L 1016.193312 100.731293 
L 1016.193312 100.469785 
L 1015.627907 100.494128 
L 1015.627907 100.232179 
L 1012.800884 100.353628 
L 1012.800884 100.090683 
L 1011.10467 100.163475 
L 1011.10467 99.635831 
L 1010.539265 99.659872 
L 1010.539265 99.395448 
L 1007.146837 99.539441 
L 1007.146837 99.273862 
L 1003.189004 99.442144 
L 1002.058195 98.955816 
L 997.534958 99.147998 
L 996.404148 98.657503 
L 992.446316 98.82552 
L 992.446316 98.554599 
L 989.053888 98.698847 
L 988.488483 98.450707 
L 987.923078 98.474729 
L 986.792269 97.976417 
L 984.53065 98.071825 
L 983.399841 97.845081 
L 970.395533 98.400572 
L 969.830129 98.146433 
L 965.872296 98.317732 
L 963.610677 97.291325 
L 961.914463 97.363648 
L 960.783654 97.129101 
L 958.522035 97.225549 
L 956.260416 97.037919 
L 954.564202 97.110446 
L 954.564202 96.82504 
L 953.433393 96.587123 
L 951.737179 96.659119 
L 950.040965 96.156135 
L 946.083132 96.323491 
L 946.083132 96.034147 
L 923.466945 97.0128 
L 923.466945 96.716182 
L 921.770731 96.791107 
L 920.639922 96.543327 
L 917.247494 96.693381 
L 917.247494 96.394022 
L 911.593447 96.644944 
L 911.028043 96.368467 
L 909.897233 96.41875 
L 909.897233 96.116231 
L 908.201019 96.191354 
L 908.201019 95.887879 
L 907.635614 95.912801 
L 907.07021 95.633506 
L 902.546972 95.832858 
L 901.981568 95.551583 
L 897.45833 95.751837 
L 896.892926 95.468553 
L 882.757809 96.104527 
L 882.757809 95.790772 
L 882.192404 95.502082 
L 882.192404 95.187264 
L 871.449715 95.674633 
L 868.622692 95.164351 
L 868.622692 94.843331 
L 863.53405 95.074776 
L 863.53405 94.751423 
L 862.968645 94.777111 
L 862.968645 94.45309 
L 862.403241 94.478603 
L 862.403241 94.153912 
L 859.576217 94.280955 
L 858.445408 94.005378 
L 844.875696 94.624539 
L 844.875696 94.292178 
L 838.656244 94.580759 
L 838.656244 94.245446 
L 837.525435 94.297962 
L 833.567602 93.806773 
L 833.567602 93.12856 
L 832.436793 93.179928 
L 830.740579 92.916241 
L 810.951415 93.83624 
L 810.386011 93.513053 
L 808.689797 93.242108 
L 782.681182 94.149182 
L 771.373088 94.725772 
L 771.373088 94.355908 
L 769.111469 94.472363 
L 765.153637 94.304463 
L 754.976353 94.839025 
L 754.976353 94.459755 
L 749.322306 94.76076 
L 749.322306 94.377936 
L 747.626092 94.083981 
L 745.929878 94.173942 
L 743.102854 93.937491 
L 741.40664 94.027766 
L 739.710426 93.72862 
L 737.448808 93.849095 
L 737.448808 93.45732 
L 731.229356 93.789481 
L 728.967738 93.514686 
L 726.140714 92.867664 
L 710.309383 93.72862 
L 710.309383 93.318531 
L 702.393718 93.760565 
L 697.305076 93.63191 
L 666.773223 95.457975 
L 666.773223 95.018398 
L 661.684581 95.337797 
L 661.684581 94.893836 
L 660.553772 94.964778 
L 660.553772 94.519157 
L 658.857558 94.624889 
L 658.857558 94.177192 
L 657.726749 93.797834 
L 654.334321 93.554389 
L 643.591632 94.225792 
L 626.064087 94.902814 
L 623.802468 94.576981 
L 605.144114 95.867965 
L 605.144114 95.373111 
L 604.013305 94.458418 
L 581.397118 96.097963 
L 581.397118 95.578008 
L 573.481452 96.179953 
L 573.481452 95.651056 
L 571.219834 95.824381 
L 571.219834 95.291987 
L 567.262001 95.057531 
L 567.262001 94.51859 
L 551.43067 95.749402 
L 550.865265 94.677987 
L 550.865265 94.117473 
L 550.299861 94.161208 
L 550.299861 93.598684 
L 549.169051 93.685202 
L 549.169051 93.120013 
L 547.472837 92.680129 
L 543.515005 92.979449 
L 541.253386 92.575632 
L 536.730149 92.338182 
L 536.730149 91.752584 
L 526.552864 92.533596 
L 526.552864 91.933746 
L 522.595032 91.635783 
L 522.595032 91.027627 
L 510.156129 92.002029 
L 505.067487 91.783761 
L 505.067487 89.871586 
L 498.282631 89.751247 
L 498.282631 89.098402 
L 489.801561 89.761276 
L 482.4513 89.679596 
L 482.4513 88.997801 
L 459.835113 90.911314 
L 450.788638 91.74552 
L 450.788638 91.004567 
L 440.611354 91.975349 
L 411.775716 94.240203 
L 411.775716 93.408301 
L 395.944385 92.642491 
L 395.944385 89.973387 
L 379.547649 91.847926 
L 379.547649 88.039908 
L 361.4547 84.96305 
L 361.4547 83.914496 
L 326.39961 83.138864 
L 326.39961 79.402955 
L 287.386687 79.49321 
L 287.386687 74.793294 
L 245.546742 78.022814 
L 245.546742 73.804189 
L 224.061364 74.371001 
L 224.061364 69.172663 
L 186.744656 71.100935 
L 163.563064 77.936878 
L 133.031212 105.495016 
L 122.288523 58.429432 
L 122.288523 58.429432 
" clip-path="url(#p277bbdb069)" style="fill: none; stroke: #1f77b4; stroke-width: 2; stroke-linecap: square"/>
   </g>
   <g id="line2d_27">
    <path d="M 1024.108977 153.774053 
L 1024.108977 153.542839 
L 1020.872005 153.819331 
L 1020.872005 153.122537 
L 1019.577216 153.232966 
L 1019.577216 151.596142 
L 1018.282427 151.705364 
L 1018.282427 151.470225 
L 1017.635033 151.524826 
L 1017.635033 151.053506 
L 1016.340244 151.162476 
L 1016.340244 150.926187 
L 1015.045455 151.035199 
L 1015.045455 150.798416 
L 1014.398061 150.852911 
L 1014.398061 150.378292 
L 1013.103272 150.487043 
L 1013.103272 150.249096 
L 1012.455877 150.303459 
L 1012.455877 150.065121 
L 1011.808483 150.11944 
L 1011.808483 149.88071 
L 1011.161088 149.934983 
L 1011.161088 149.695861 
L 1010.513694 149.750089 
L 1010.513694 149.510572 
L 1009.218905 149.619002 
L 1009.218905 148.898073 
L 1008.571511 148.952052 
L 1008.571511 147.986344 
L 1007.276722 148.093598 
L 1007.276722 147.365599 
L 1004.03975 147.633157 
L 1004.03975 147.145223 
L 1003.392355 147.198699 
L 1003.392355 146.954175 
L 1002.744961 147.0076 
L 1002.744961 146.762666 
L 1000.802777 146.922981 
L 1000.802777 146.677403 
L 998.860594 146.837951 
L 998.860594 146.591725 
L 998.2132 146.645254 
L 998.2132 145.656884 
L 997.565805 145.710007 
L 997.565805 145.462044 
L 995.623622 145.621444 
L 995.623622 145.372821 
L 993.034044 145.585787 
L 993.034044 145.086667 
L 991.739255 145.19306 
L 991.739255 144.942799 
L 990.444466 145.049211 
L 990.444466 144.7984 
L 989.797072 144.851583 
L 989.797072 144.348788 
L 989.149678 144.401792 
L 989.149678 143.644901 
L 987.207494 143.803196 
L 987.207494 143.549903 
L 984.617916 143.761383 
L 984.617916 143.507277 
L 983.970522 143.560186 
L 983.970522 143.305638 
L 982.675733 143.411403 
L 982.675733 143.156287 
L 982.028339 143.209142 
L 982.028339 141.928138 
L 980.73355 142.032773 
L 980.73355 141.517609 
L 980.086155 141.569767 
L 980.086155 141.05305 
L 978.791366 141.157045 
L 978.791366 140.638506 
L 977.496578 140.742239 
L 977.496578 139.961185 
L 974.259605 140.219688 
L 974.259605 139.170995 
L 972.964817 139.273785 
L 972.964817 139.010509 
L 971.022633 139.16478 
L 971.022633 138.900761 
L 967.138267 139.210267 
L 967.138267 138.945092 
L 966.490872 138.99677 
L 966.490872 138.731118 
L 965.196083 138.8344 
L 965.196083 138.56813 
L 961.959111 138.826808 
L 961.959111 138.291849 
L 960.664322 138.395231 
L 960.664322 137.858325 
L 955.485167 138.272286 
L 955.485167 138.002178 
L 954.837772 138.054085 
L 954.837772 137.783482 
L 950.953406 138.09549 
L 950.953406 137.823672 
L 949.011222 137.980165 
L 949.011222 137.434589 
L 948.363828 137.4866 
L 948.363828 136.390543 
L 947.716433 136.442037 
L 947.716433 136.16697 
L 946.421645 136.269866 
L 946.421645 135.718046 
L 945.77425 135.769298 
L 945.77425 135.215714 
L 943.184672 135.420205 
L 943.184672 135.142258 
L 942.537278 135.1934 
L 942.537278 134.636091 
L 938.652911 134.942552 
L 938.652911 134.662421 
L 935.415939 134.918925 
L 935.415939 134.637646 
L 933.473756 134.791913 
L 933.473756 134.509789 
L 932.178967 134.61267 
L 932.178967 133.479096 
L 930.236784 133.63205 
L 930.236784 133.34722 
L 929.589389 133.398184 
L 929.589389 133.112806 
L 926.999811 133.31672 
L 926.999811 133.030312 
L 925.705022 133.132365 
L 925.705022 132.557727 
L 924.410234 132.659412 
L 924.410234 132.082546 
L 919.878472 132.438358 
L 919.878472 132.148179 
L 919.231078 132.199125 
L 919.231078 131.908378 
L 918.583684 131.959229 
L 918.583684 131.667914 
L 914.699317 131.973499 
L 914.699317 131.387643 
L 912.757134 131.540382 
L 912.757134 131.246333 
L 912.109739 131.297218 
L 912.109739 130.41209 
L 908.225373 130.715815 
L 908.225373 130.121586 
L 907.577978 130.172109 
L 907.577978 129.874192 
L 906.930584 129.924612 
L 906.930584 129.327166 
L 906.283189 129.377305 
L 906.283189 129.077772 
L 904.9884 129.177911 
L 904.9884 128.877599 
L 903.693611 128.977668 
L 903.693611 128.676573 
L 897.867062 129.128808 
L 897.867062 128.825666 
L 896.572273 128.926592 
L 896.572273 128.622653 
L 895.277484 128.723505 
L 895.277484 128.418764 
L 893.982695 128.519541 
L 893.982695 127.908007 
L 893.3353 127.958136 
L 893.3353 127.651522 
L 892.687906 127.701538 
L 892.687906 127.394296 
L 888.156145 127.745134 
L 888.156145 127.126688 
L 886.213962 127.27701 
L 886.213962 126.966542 
L 885.566567 127.016606 
L 885.566567 126.705493 
L 881.034806 127.056656 
L 881.034806 126.743743 
L 878.445228 126.94526 
L 878.445228 126.631111 
L 876.503045 126.782446 
L 876.503045 126.151578 
L 875.208256 126.252056 
L 875.208256 125.935526 
L 873.913467 126.035907 
L 873.913467 125.082296 
L 872.618678 125.181777 
L 872.618678 124.862557 
L 871.971284 124.912208 
L 871.971284 124.592308 
L 870.029101 124.7411 
L 870.029101 124.420112 
L 866.144734 124.718488 
L 866.144734 124.072602 
L 862.260367 124.371206 
L 862.260367 123.394959 
L 859.67079 123.593025 
L 859.67079 123.265775 
L 856.433817 123.514 
L 856.433817 122.855864 
L 853.196845 123.103849 
L 853.196845 122.772945 
L 844.780717 123.423891 
L 844.780717 123.089627 
L 843.485929 123.190501 
L 843.485929 122.519521 
L 841.543745 122.670085 
L 841.543745 122.333135 
L 838.306773 122.584526 
L 838.306773 122.245917 
L 837.659379 122.296206 
L 837.659379 121.276486 
L 836.36459 121.375927 
L 836.36459 120.692501 
L 833.127618 120.940166 
L 833.127618 120.596474 
L 832.480223 120.646009 
L 832.480223 120.301534 
L 831.832829 120.350913 
L 831.832829 119.313472 
L 830.53804 119.411042 
L 830.53804 119.063643 
L 829.890645 119.112306 
L 829.890645 118.415352 
L 829.243251 118.46361 
L 829.243251 118.11405 
L 828.595856 118.162144 
L 828.595856 117.811776 
L 827.301068 117.907709 
L 827.301068 116.851732 
L 824.71149 117.041569 
L 824.71149 116.687442 
L 822.121912 116.877517 
L 822.121912 116.52181 
L 820.827123 116.61681 
L 820.827123 116.260017 
L 819.532334 116.354821 
L 819.532334 115.996935 
L 818.237545 116.091541 
L 818.237545 115.732555 
L 815.647968 115.921674 
L 815.647968 115.561066 
L 815.000573 115.608282 
L 815.000573 115.246818 
L 811.763601 115.482771 
L 811.763601 114.390843 
L 805.937051 114.81337 
L 805.937051 114.445776 
L 804.642262 114.54 
L 804.642262 114.171248 
L 802.052684 114.359565 
L 802.052684 113.989101 
L 800.757896 114.08319 
L 800.757896 113.33928 
L 800.110501 113.385893 
L 800.110501 112.6389 
L 794.931346 113.010197 
L 794.931346 112.633498 
L 794.283951 112.679985 
L 794.283951 112.302356 
L 792.341768 112.441443 
L 792.341768 112.062307 
L 785.220429 112.575317 
L 785.220429 111.808692 
L 784.573035 111.85523 
L 784.573035 111.085339 
L 781.983457 111.269935 
L 781.983457 110.106451 
L 781.336062 110.151901 
L 781.336062 109.762406 
L 780.688668 109.807634 
L 780.688668 109.417148 
L 780.041273 109.462151 
L 780.041273 109.07067 
L 774.862118 109.431106 
L 774.862118 109.03646 
L 772.919935 109.172015 
L 772.919935 108.37873 
L 772.27254 108.423448 
L 772.27254 108.025424 
L 770.977751 108.114465 
L 770.977751 107.715091 
L 769.035568 107.848295 
L 769.035568 107.447241 
L 767.740779 107.5358 
L 767.740779 107.133375 
L 759.324651 107.712654 
L 759.324651 107.305231 
L 758.029863 107.394911 
L 758.029863 106.986075 
L 751.555918 107.43609 
L 751.555918 106.194876 
L 748.96634 106.373105 
L 748.96634 105.539003 
L 747.671552 105.627223 
L 747.671552 105.2083 
L 743.13979 105.517217 
L 743.13979 105.095025 
L 741.197607 105.227598 
L 741.197607 104.803531 
L 738.608029 104.980026 
L 738.608029 104.12657 
L 736.665846 104.257632 
L 736.665846 103.828579 
L 736.018452 103.872065 
L 736.018452 103.44182 
L 735.371057 103.485018 
L 735.371057 103.053574 
L 734.076268 103.139472 
L 734.076268 102.27259 
L 731.486691 102.44236 
L 731.486691 102.006143 
L 730.839296 102.048409 
L 730.839296 101.610963 
L 729.544507 101.694974 
L 729.544507 100.375199 
L 726.307535 100.580816 
L 726.307535 100.137207 
L 722.423168 100.384242 
L 722.423168 99.937371 
L 719.833591 100.102085 
L 719.833591 99.652714 
L 718.538802 99.734751 
L 718.538802 99.283672 
L 715.30183 99.488147 
L 715.30183 99.034109 
L 706.885702 99.570009 
L 706.885702 99.109594 
L 703.64873 99.317358 
L 703.64873 98.85386 
L 697.174785 99.271468 
L 697.174785 98.80265 
L 692.643024 99.097038 
L 692.643024 98.624128 
L 691.99563 98.666085 
L 691.99563 98.191736 
L 691.348235 98.233328 
L 691.348235 97.28074 
L 682.284713 97.859376 
L 682.284713 97.375075 
L 680.989924 97.458204 
L 680.989924 96.971922 
L 675.810769 97.304184 
L 675.810769 96.813015 
L 675.163374 96.854466 
L 675.163374 96.361749 
L 673.221191 96.485173 
L 673.221191 95.989914 
L 671.926402 96.071657 
L 671.926402 95.075917 
L 650.562386 96.443942 
L 650.562386 95.927324 
L 648.620202 96.055158 
L 648.620202 95.535746 
L 646.030624 95.705375 
L 646.030624 94.65861 
L 645.38323 94.700157 
L 645.38323 94.174419 
L 640.204075 94.505775 
L 640.204075 93.441635 
L 633.73013 93.853059 
L 633.73013 93.313336 
L 627.90358 93.686647 
L 627.90358 92.043695 
L 624.666608 92.245461 
L 624.666608 91.692128 
L 624.019214 91.732156 
L 624.019214 90.620248 
L 618.192664 90.973562 
L 618.192664 90.409893 
L 615.603086 90.566852 
L 615.603086 89.999222 
L 609.129141 90.391881 
L 609.129141 89.816257 
L 593.591675 90.783245 
L 593.591675 90.189627 
L 585.822942 90.687176 
L 585.822942 90.083344 
L 574.817236 90.802752 
L 574.817236 89.564641 
L 574.169842 89.606433 
L 574.169842 88.984106 
L 561.869347 89.784849 
L 561.869347 89.145576 
L 561.221953 89.188061 
L 561.221953 88.546191 
L 552.158431 89.14172 
L 552.158431 88.486166 
L 538.563147 89.406271 
L 538.563147 88.730049 
L 537.268359 88.818777 
L 537.268359 88.138719 
L 532.736598 88.446816 
L 532.736598 87.758134 
L 530.794414 87.889261 
L 530.794414 87.195636 
L 528.204836 87.368406 
L 528.204836 86.668782 
L 522.378286 87.056213 
L 522.378286 86.345431 
L 519.788709 86.516958 
L 519.788709 85.799879 
L 514.609553 86.140944 
L 514.609553 85.413211 
L 510.077792 85.711139 
L 510.077792 84.973529 
L 500.366876 85.617803 
L 500.366876 84.860915 
L 488.066381 85.700711 
L 488.066381 84.918605 
L 482.239831 85.324051 
L 482.239831 84.52798 
L 480.297648 84.662048 
L 480.297648 83.859379 
L 477.060676 84.079361 
L 477.060676 83.267336 
L 453.107081 84.969192 
L 442.74877 85.779566 
L 442.74877 84.88695 
L 426.563909 86.215138 
L 426.563909 85.276702 
L 422.032148 85.660234 
L 422.032148 84.70531 
L 411.673837 85.594135 
L 411.673837 84.604677 
L 403.905104 85.28751 
L 403.905104 84.269361 
L 394.194187 85.142331 
L 394.194187 84.087081 
L 380.598904 85.363884 
L 380.598904 84.254016 
L 374.772354 84.818145 
L 374.772354 82.536195 
L 367.651015 83.200792 
L 367.651015 82.021352 
L 365.061438 82.260864 
L 365.061438 81.064026 
L 354.703127 82.024645 
L 354.703127 80.773067 
L 352.760943 80.952774 
L 352.760943 79.684857 
L 335.928688 81.282086 
L 335.928688 78.54176 
L 334.633899 78.659376 
L 334.633899 77.269468 
L 333.986505 77.32488 
L 333.986505 75.922835 
L 328.807349 76.345636 
L 328.807349 74.902386 
L 311.975094 76.311257 
L 300.969388 77.37046 
L 300.969388 75.708755 
L 286.72671 77.148698 
L 281.547555 77.733675 
L 281.547555 75.871384 
L 268.599666 77.355805 
L 264.067905 77.936878 
L 264.067905 75.845771 
L 253.0622 77.255666 
L 242.703889 78.808345 
L 236.877339 79.799751 
L 236.877339 77.230086 
L 234.287761 77.647879 
L 234.287761 72.311135 
L 224.576844 73.588592 
L 216.160716 74.902386 
L 209.039378 76.206001 
L 209.039378 72.75374 
L 201.270644 74.11796 
L 194.7967 75.470419 
L 188.97015 76.903773 
L 183.790995 78.396649 
L 179.259233 79.915894 
L 177.31705 80.640157 
L 177.31705 75.276772 
L 172.785289 76.732715 
L 168.900922 78.196977 
L 165.016556 79.915894 
L 161.779584 81.594524 
L 158.542611 83.557668 
L 158.542611 75.470419 
L 155.305639 77.07806 
L 152.716061 78.600397 
L 150.126484 80.393371 
L 148.1843 81.962224 
L 146.242117 83.772439 
L 144.299934 85.884356 
L 142.35775 88.380258 
L 140.415567 91.375341 
L 139.120778 93.72862 
L 139.120778 76.732715 
L 137.825989 78.196977 
L 136.5312 79.915894 
L 135.236412 81.962224 
L 135.236412 58.429432 
L 122.288523 58.429432 
L 122.288523 58.429432 
" clip-path="url(#p277bbdb069)" style="fill: none; stroke: #2ca02c; stroke-width: 2; stroke-linecap: square"/>
   </g>
   <g id="line2d_28">
    <path d="M 1024.108977 442.593484 
L 988.842256 426.12931 
L 983.804152 425.54099 
L 983.804152 422.207178 
L 978.766049 421.553999 
L 978.766049 421.349212 
L 973.727946 421.300648 
L 973.727946 418.775313 
L 968.689843 417.400331 
L 963.65174 417.101644 
L 958.613637 416.120042 
L 958.613637 415.892545 
L 953.575534 416.033269 
L 953.575534 413.706441 
L 943.499328 412.769548 
L 943.499328 412.526333 
L 938.461225 412.410434 
L 938.461225 408.627854 
L 933.423122 408.479716 
L 933.423122 401.355006 
L 928.385018 399.97293 
L 928.385018 397.2739 
L 918.308812 396.766163 
L 918.308812 396.454459 
L 913.270709 394.919662 
L 913.270709 394.598484 
L 903.194503 393.698486 
L 903.194503 392.703165 
L 893.118297 392.425565 
L 893.118297 392.085454 
L 883.042091 390.395277 
L 883.042091 389.68688 
L 872.965884 388.622285 
L 872.965884 372.583577 
L 862.889678 372.801906 
L 862.889678 368.704829 
L 847.775369 368.257541 
L 837.699163 366.970485 
L 837.699163 366.478051 
L 832.66106 363.78176 
L 807.470544 363.295098 
L 807.470544 360.040261 
L 802.432441 358.67776 
L 802.432441 354.060134 
L 792.356235 351.617797 
L 792.356235 346.577038 
L 782.280029 345.785125 
L 782.280029 339.661781 
L 777.241925 337.032421 
L 752.05141 337.379115 
L 752.05141 335.868666 
L 741.975204 330.774264 
L 736.937101 327.651599 
L 736.937101 325.104809 
L 706.708482 327.810689 
L 706.708482 326.033555 
L 701.670379 323.458015 
L 701.670379 318.742788 
L 696.632276 312.884006 
L 686.55607 308.789314 
L 686.55607 306.621947 
L 671.44176 308.877972 
L 656.327451 307.833043 
L 656.327451 306.683817 
L 651.289348 303.147843 
L 651.289348 301.942673 
L 646.251245 298.184315 
L 646.251245 296.918475 
L 626.098833 296.56178 
L 616.022626 295.009098 
L 616.022626 293.63151 
L 610.984523 283.313025 
L 610.984523 280.25274 
L 590.832111 279.049359 
L 590.832111 270.657681 
L 585.794008 271.967731 
L 585.794008 270.224562 
L 575.717802 263.806527 
L 565.641595 262.694068 
L 550.527286 262.921281 
L 550.527286 260.909498 
L 540.45108 255.388671 
L 540.45108 241.878244 
L 500.146255 248.813579 
L 500.146255 246.302798 
L 490.070049 246.8912 
L 479.993843 230.715378 
L 464.879533 232.572094 
L 464.879533 226.357609 
L 439.689018 231.650191 
L 439.689018 228.306776 
L 429.612812 228.472834 
L 404.422296 215.12339 
L 374.193678 214.132701 
L 374.193678 209.431515 
L 359.079368 200.695857 
L 333.888853 200.822768 
L 313.73644 198.29414 
L 303.660234 196.80225 
L 303.660234 189.540703 
L 293.584028 170.745031 
L 273.431616 181.976591 
L 248.2411 189.244071 
L 238.164894 185.961983 
L 207.936275 187.348207 
L 192.821966 188.479073 
L 167.631451 210.487474 
L 147.479038 278.068826 
L 142.440935 223.158977 
L 122.288523 552.618068 
L 122.288523 58.429432 
L 122.288523 58.429432 
" clip-path="url(#p277bbdb069)" style="fill: none; stroke: #d62728; stroke-width: 2; stroke-linecap: square"/>
   </g>
   <g id="patch_3">
    <path d="M 77.1975 577.3275 
L 77.1975 33.72 
" style="fill: none; stroke: #000000; stroke-width: 0.8; stroke-linejoin: miter; stroke-linecap: square"/>
   </g>
   <g id="patch_4">
    <path d="M 1069.2 577.3275 
L 1069.2 33.72 
" style="fill: none; stroke: #000000; stroke-width: 0.8; stroke-linejoin: miter; stroke-linecap: square"/>
   </g>
   <g id="patch_5">
    <path d="M 77.1975 577.3275 
L 1069.2 577.3275 
" style="fill: none; stroke: #000000; stroke-width: 0.8; stroke-linejoin: miter; stroke-linecap: square"/>
   </g>
   <g id="patch_6">
    <path d="M 77.1975 33.72 
L 1069.2 33.72 
" style="fill: none; stroke: #000000; stroke-width: 0.8; stroke-linejoin: miter; stroke-linecap: square"/>
   </g>
   <g id="text_15">
    <!-- Precision-Recall Curve (Handwritten) -->
    <g transform="translate(390.921875 27.72) scale(0.22 -0.22)">
     <defs>
      <path id="CMUSerif-Roman-2d" d="M 63 1191 
L 63 1569 
L 1766 1569 
L 1766 1191 
L 63 1191 
z
" transform="scale(0.015625)"/>
      <path id="CMUSerif-Roman-20" transform="scale(0.015625)"/>
      <path id="CMUSerif-Roman-43" d="M 359 2188 
Q 359 3153 1018 3833 
Q 1678 4513 2584 4513 
Q 2866 4513 3116 4409 
Q 3366 4306 3481 4217 
Q 3597 4128 3763 3963 
L 4084 4434 
Q 4134 4513 4186 4513 
Q 4238 4513 4247 4483 
Q 4256 4453 4256 4359 
L 4256 2841 
Q 4256 2738 4243 2713 
Q 4231 2688 4153 2688 
Q 4091 2688 4077 2706 
Q 4063 2725 4050 2797 
Q 3953 3488 3570 3900 
Q 3188 4313 2656 4313 
Q 2503 4313 2333 4278 
Q 2163 4244 1917 4112 
Q 1672 3981 1483 3764 
Q 1294 3547 1156 3136 
Q 1019 2725 1019 2181 
Q 1019 1644 1156 1231 
Q 1294 819 1483 605 
Q 1672 391 1917 259 
Q 2163 128 2336 92 
Q 2509 56 2663 56 
Q 3213 56 3634 447 
Q 4056 838 4097 1497 
Q 4103 1528 4103 1542 
Q 4103 1556 4109 1572 
Q 4116 1588 4131 1594 
Q 4147 1600 4172 1600 
Q 4256 1600 4256 1491 
Q 4256 881 3789 370 
Q 3322 -141 2584 -141 
Q 1675 -141 1017 534 
Q 359 1209 359 2188 
z
" transform="scale(0.015625)"/>
      <path id="CMUSerif-Roman-75" d="M 206 2559 
L 206 2759 
L 1147 2828 
L 1147 703 
Q 1147 550 1159 461 
Q 1172 372 1223 269 
Q 1275 166 1395 119 
Q 1516 72 1709 72 
Q 2056 72 2270 356 
Q 2484 641 2484 1063 
L 2484 2203 
Q 2484 2441 2400 2500 
Q 2316 2559 1984 2559 
L 1984 2759 
L 2925 2828 
L 2925 556 
Q 2925 319 3008 258 
Q 3091 197 3425 197 
L 3425 0 
L 2503 -72 
L 2503 506 
Q 2234 -69 1678 -72 
Q 1397 -72 1205 0 
Q 1013 72 916 161 
Q 819 250 767 422 
Q 716 594 709 700 
Q 703 806 703 1013 
L 703 1972 
Q 703 2406 640 2482 
Q 578 2559 206 2559 
z
" transform="scale(0.015625)"/>
      <path id="CMUSerif-Roman-76" d="M 122 2559 
L 122 2759 
Q 409 2741 744 2741 
Q 866 2741 1441 2759 
L 1441 2559 
Q 1075 2559 1075 2394 
Q 1075 2369 1113 2284 
L 1831 500 
L 2484 2131 
Q 2522 2241 2522 2284 
Q 2522 2394 2448 2473 
Q 2375 2553 2216 2559 
L 2216 2759 
Q 2541 2741 2772 2741 
Q 3034 2741 3250 2759 
L 3250 2559 
Q 3059 2559 2925 2473 
Q 2791 2388 2748 2314 
Q 2706 2241 2663 2131 
L 1825 50 
Q 1775 -72 1691 -72 
Q 1634 -72 1611 -48 
Q 1588 -25 1556 50 
L 634 2322 
Q 572 2481 490 2520 
Q 409 2559 122 2559 
z
" transform="scale(0.015625)"/>
      <path id="CMUSerif-Roman-28" d="M 634 1600 
Q 634 2681 1038 3553 
Q 1209 3919 1450 4225 
Q 1691 4531 1850 4665 
Q 2009 4800 2053 4800 
Q 2116 4800 2119 4738 
Q 2119 4706 2034 4628 
Q 1003 3578 1006 1600 
Q 1006 -384 2009 -1394 
Q 2119 -1503 2119 -1538 
Q 2119 -1600 2053 -1600 
Q 2009 -1600 1856 -1472 
Q 1703 -1344 1465 -1050 
Q 1228 -756 1056 -397 
Q 634 475 634 1600 
z
" transform="scale(0.015625)"/>
      <path id="CMUSerif-Roman-48" d="M 213 0 
L 213 197 
L 366 197 
Q 713 197 792 255 
Q 872 313 872 500 
L 872 3872 
Q 872 4056 790 4114 
Q 709 4172 366 4172 
L 213 4172 
L 213 4372 
Q 438 4353 1159 4353 
Q 1875 4353 2100 4372 
L 2100 4172 
L 1947 4172 
Q 1600 4172 1520 4114 
Q 1441 4056 1441 3872 
L 1441 2375 
L 3353 2375 
L 3353 3872 
Q 3353 4056 3273 4114 
Q 3194 4172 2847 4172 
L 2694 4172 
L 2694 4372 
Q 2919 4353 3641 4353 
Q 4356 4353 4581 4372 
L 4581 4172 
L 4428 4172 
Q 4081 4172 4001 4114 
Q 3922 4056 3922 3872 
L 3922 500 
Q 3922 316 4003 256 
Q 4084 197 4428 197 
L 4581 197 
L 4581 0 
Q 4356 19 3634 19 
Q 2919 19 2694 0 
L 2694 197 
L 2847 197 
Q 3194 197 3273 255 
Q 3353 313 3353 500 
L 3353 2175 
L 1441 2175 
L 1441 500 
Q 1441 316 1520 256 
Q 1600 197 1947 197 
L 2100 197 
L 2100 0 
Q 1875 19 1153 19 
Q 438 19 213 0 
z
" transform="scale(0.015625)"/>
      <path id="CMUSerif-Roman-64" d="M 219 1375 
Q 219 1984 644 2406 
Q 1069 2828 1644 2828 
Q 2131 2828 2450 2431 
L 2450 3816 
Q 2450 4053 2367 4112 
Q 2284 4172 1953 4172 
L 1953 4372 
L 2875 4441 
L 2875 556 
Q 2875 319 2958 258 
Q 3041 197 3372 197 
L 3372 0 
L 2431 -72 
L 2431 353 
Q 2100 -69 1575 -72 
Q 1025 -72 622 350 
Q 219 772 219 1375 
z
M 750 1369 
Q 750 775 934 481 
Q 1191 72 1606 72 
Q 2081 72 2363 519 
Q 2434 628 2431 756 
L 2431 2069 
Q 2431 2197 2363 2303 
Q 2100 2688 1672 2688 
Q 1225 2688 947 2278 
Q 750 1972 750 1369 
z
" transform="scale(0.015625)"/>
      <path id="CMUSerif-Roman-77" d="M 116 2559 
L 116 2759 
Q 463 2741 709 2741 
Q 831 2741 1409 2759 
L 1409 2559 
Q 1031 2559 1031 2388 
Q 1031 2350 1063 2272 
L 1672 563 
L 2222 2113 
Q 2106 2425 2075 2463 
Q 1997 2559 1672 2559 
L 1672 2759 
Q 1959 2741 2241 2741 
Q 2350 2741 2906 2759 
L 2906 2559 
Q 2528 2559 2528 2388 
Q 2528 2363 2559 2266 
L 3194 481 
L 3775 2119 
Q 3806 2203 3809 2253 
Q 3809 2394 3709 2473 
Q 3609 2553 3438 2559 
L 3438 2759 
Q 3803 2741 4031 2741 
Q 4288 2741 4500 2759 
L 4500 2559 
Q 4103 2547 3963 2150 
L 3213 50 
Q 3141 -66 3084 -72 
Q 3000 -72 2956 50 
L 2303 1869 
L 1656 56 
Q 1631 -22 1609 -47 
Q 1588 -72 1530 -72 
Q 1472 -72 1447 -39 
Q 1422 -6 1394 72 
L 588 2338 
Q 531 2484 448 2521 
Q 366 2559 116 2559 
z
" transform="scale(0.015625)"/>
      <path id="CMUSerif-Roman-74" d="M 122 2559 
L 122 2700 
Q 416 2713 611 2920 
Q 806 3128 873 3384 
Q 941 3641 947 3938 
L 1106 3938 
L 1106 2759 
L 2022 2759 
L 2022 2559 
L 1106 2559 
L 1106 781 
Q 1106 91 1538 91 
Q 1722 91 1844 280 
Q 1966 469 1966 806 
L 1966 1159 
L 2125 1159 
L 2125 794 
Q 2125 447 1965 187 
Q 1806 -72 1491 -72 
Q 1375 -72 1261 -42 
Q 1147 -13 998 64 
Q 850 141 758 330 
Q 666 519 666 794 
L 666 2559 
L 122 2559 
z
" transform="scale(0.015625)"/>
      <path id="CMUSerif-Roman-29" d="M 366 -1538 
Q 366 -1506 447 -1428 
Q 1478 -378 1478 1600 
Q 1478 3584 488 4588 
Q 366 4703 366 4738 
Q 366 4800 428 4800 
Q 472 4800 626 4672 
Q 781 4544 1017 4250 
Q 1253 3956 1428 3597 
Q 1850 2725 1850 1600 
Q 1850 519 1447 -353 
Q 1275 -719 1034 -1025 
Q 794 -1331 634 -1465 
Q 475 -1600 428 -1600 
Q 366 -1600 366 -1538 
z
" transform="scale(0.015625)"/>
     </defs>
     <use xlink:href="#CMUSerif-Roman-50"/>
     <use xlink:href="#CMUSerif-Roman-72" x="67.96875"/>
     <use xlink:href="#CMUSerif-Roman-65" x="107.03125"/>
     <use xlink:href="#CMUSerif-Roman-63" x="151.416016"/>
     <use xlink:href="#CMUSerif-Roman-69" x="195.800781"/>
     <use xlink:href="#CMUSerif-Roman-73" x="223.486328"/>
     <use xlink:href="#CMUSerif-Roman-69" x="262.841797"/>
     <use xlink:href="#CMUSerif-Roman-6f" x="290.527344"/>
     <use xlink:href="#CMUSerif-Roman-6e" x="340.527344"/>
     <use xlink:href="#CMUSerif-Roman-2d" x="395.996094"/>
     <use xlink:href="#CMUSerif-Roman-52" x="429.248047"/>
     <use xlink:href="#CMUSerif-Roman-65" x="502.832031"/>
     <use xlink:href="#CMUSerif-Roman-63" x="547.216797"/>
     <use xlink:href="#CMUSerif-Roman-61" x="591.601562"/>
     <use xlink:href="#CMUSerif-Roman-6c" x="641.601562"/>
     <use xlink:href="#CMUSerif-Roman-6c" x="669.287109"/>
     <use xlink:href="#CMUSerif-Roman-20" x="696.972656"/>
     <use xlink:href="#CMUSerif-Roman-43" x="730.224609"/>
     <use xlink:href="#CMUSerif-Roman-75" x="802.392578"/>
     <use xlink:href="#CMUSerif-Roman-72" x="857.861328"/>
     <use xlink:href="#CMUSerif-Roman-76" x="896.923828"/>
     <use xlink:href="#CMUSerif-Roman-65" x="949.609375"/>
     <use xlink:href="#CMUSerif-Roman-20" x="993.994141"/>
     <use xlink:href="#CMUSerif-Roman-28" x="1027.246094"/>
     <use xlink:href="#CMUSerif-Roman-48" x="1066.015625"/>
     <use xlink:href="#CMUSerif-Roman-61" x="1141.015625"/>
     <use xlink:href="#CMUSerif-Roman-6e" x="1191.015625"/>
     <use xlink:href="#CMUSerif-Roman-64" x="1246.484375"/>
     <use xlink:href="#CMUSerif-Roman-77" x="1301.953125"/>
     <use xlink:href="#CMUSerif-Roman-72" x="1374.121094"/>
     <use xlink:href="#CMUSerif-Roman-69" x="1413.183594"/>
     <use xlink:href="#CMUSerif-Roman-74" x="1440.869141"/>
     <use xlink:href="#CMUSerif-Roman-74" x="1479.638672"/>
     <use xlink:href="#CMUSerif-Roman-65" x="1518.408203"/>
     <use xlink:href="#CMUSerif-Roman-6e" x="1562.792969"/>
     <use xlink:href="#CMUSerif-Roman-29" x="1618.261719"/>
    </g>
   </g>
   <g id="legend_1">
    <g id="line2d_29">
     <path d="M 826.621875 475.846875 
L 844.621875 475.846875 
L 862.621875 475.846875 
" style="fill: none; stroke: #ff7f0e; stroke-width: 2; stroke-linecap: square"/>
    </g>
    <g id="text_16">
     <!-- Textract -->
     <g transform="translate(877.021875 482.146875) scale(0.18 -0.18)">
      <defs>
       <path id="CMUSerif-Roman-54" d="M 231 2894 
L 353 4331 
L 4263 4331 
L 4384 2894 
L 4225 2894 
Q 4200 3181 4176 3347 
Q 4153 3513 4098 3670 
Q 4044 3828 3976 3904 
Q 3909 3981 3781 4042 
Q 3653 4103 3487 4118 
Q 3322 4134 3072 4134 
Q 2778 4134 2706 4122 
Q 2628 4103 2609 4048 
Q 2591 3994 2591 3878 
L 2591 506 
Q 2591 378 2617 326 
Q 2644 275 2791 236 
Q 2938 197 3263 197 
L 3519 197 
L 3519 0 
Q 3256 19 2303 19 
Q 1356 19 1094 0 
L 1094 197 
L 1350 197 
Q 1675 197 1823 236 
Q 1972 275 1997 326 
Q 2022 378 2022 506 
L 2022 3878 
Q 2022 3969 2015 4006 
Q 2009 4044 1981 4076 
Q 1953 4109 1889 4121 
Q 1825 4134 1544 4134 
Q 1294 4134 1126 4118 
Q 959 4103 831 4042 
Q 703 3981 636 3904 
Q 569 3828 514 3670 
Q 459 3513 437 3347 
Q 416 3181 391 2894 
L 231 2894 
z
" transform="scale(0.015625)"/>
       <path id="CMUSerif-Roman-78" d="M 78 0 
L 78 197 
Q 578 197 897 581 
Q 897 581 1497 1344 
L 863 2169 
Q 638 2456 539 2507 
Q 441 2559 109 2559 
L 109 2759 
Q 372 2741 716 2741 
Q 906 2741 1409 2759 
L 1409 2559 
Q 1184 2547 1184 2400 
Q 1184 2350 1241 2284 
L 1741 1638 
L 2138 2138 
Q 2234 2253 2234 2363 
Q 2234 2541 2047 2559 
L 2047 2759 
Q 2297 2741 2663 2741 
Q 2938 2741 3188 2759 
L 3188 2559 
Q 2700 2547 2425 2228 
Q 2303 2094 1838 1503 
L 2694 397 
Q 2797 263 2912 230 
Q 3028 197 3303 197 
L 3303 0 
Q 3016 19 2688 19 
Q 2572 19 1997 0 
L 1997 197 
Q 2113 203 2170 254 
Q 2228 306 2228 359 
Q 2228 384 2094 569 
L 1606 1209 
Q 1119 634 1056 500 
Q 1031 444 1031 397 
Q 1031 225 1216 197 
L 1216 0 
Q 756 19 609 19 
Q 328 19 78 0 
z
" transform="scale(0.015625)"/>
      </defs>
      <use xlink:href="#CMUSerif-Roman-54"/>
      <use xlink:href="#CMUSerif-Roman-65" x="72.167969"/>
      <use xlink:href="#CMUSerif-Roman-78" x="116.552734"/>
      <use xlink:href="#CMUSerif-Roman-74" x="169.238281"/>
      <use xlink:href="#CMUSerif-Roman-72" x="208.007812"/>
      <use xlink:href="#CMUSerif-Roman-61" x="247.070312"/>
      <use xlink:href="#CMUSerif-Roman-63" x="297.070312"/>
      <use xlink:href="#CMUSerif-Roman-74" x="341.455078"/>
     </g>
    </g>
    <g id="line2d_30">
     <path d="M 826.621875 500.937187 
L 844.621875 500.937187 
L 862.621875 500.937187 
" style="fill: none; stroke: #1f77b4; stroke-width: 2; stroke-linecap: square"/>
    </g>
    <g id="text_17">
     <!-- Document Intelligence -->
     <g transform="translate(877.021875 507.237188) scale(0.18 -0.18)">
      <defs>
       <path id="CMUSerif-Roman-44" d="M 225 0 
L 225 197 
L 378 197 
Q 725 197 804 255 
Q 884 313 884 500 
L 884 3872 
Q 884 4056 803 4114 
Q 722 4172 378 4172 
L 225 4172 
L 225 4372 
L 2566 4372 
Q 3384 4372 3954 3719 
Q 4525 3066 4525 2150 
Q 4525 1253 3951 626 
Q 3378 0 2566 0 
L 225 0 
z
M 1434 453 
Q 1434 288 1481 242 
Q 1528 197 1747 197 
L 2394 197 
Q 2816 197 3100 370 
Q 3384 544 3531 744 
Q 3884 1225 3884 2150 
Q 3884 3122 3553 3578 
Q 3125 4172 2388 4172 
L 1747 4172 
Q 1528 4172 1481 4128 
Q 1434 4084 1434 3916 
L 1434 453 
z
" transform="scale(0.015625)"/>
       <path id="CMUSerif-Roman-6d" d="M 206 0 
L 206 197 
Q 547 197 625 239 
Q 703 281 703 488 
L 703 2203 
Q 703 2441 620 2500 
Q 538 2559 206 2559 
L 206 2759 
L 1106 2828 
L 1106 2156 
Q 1406 2828 2053 2828 
Q 2803 2828 2906 2203 
Q 3016 2447 3245 2637 
Q 3475 2828 3834 2828 
Q 4316 2828 4506 2591 
Q 4647 2431 4675 2253 
Q 4703 2075 4703 1613 
L 4703 391 
Q 4709 256 4812 226 
Q 4916 197 5203 197 
L 5203 0 
Q 4550 19 4488 19 
Q 4438 19 3763 0 
L 3763 197 
Q 4103 197 4183 239 
Q 4263 281 4263 488 
L 4263 1978 
Q 4263 2303 4163 2495 
Q 4063 2688 3788 2688 
Q 3456 2688 3190 2409 
Q 2925 2131 2925 1663 
L 2925 488 
Q 2925 281 3004 239 
Q 3084 197 3425 197 
L 3425 0 
Q 2772 19 2706 19 
Q 2656 19 1984 0 
L 1984 197 
Q 2325 197 2404 239 
Q 2484 281 2484 488 
L 2484 1978 
Q 2484 2303 2384 2495 
Q 2284 2688 2009 2688 
Q 1678 2688 1412 2409 
Q 1147 2131 1147 1663 
L 1147 488 
Q 1147 281 1226 239 
Q 1306 197 1644 197 
L 1644 0 
Q 991 19 928 19 
Q 878 19 206 0 
z
" transform="scale(0.015625)"/>
       <path id="CMUSerif-Roman-49" d="M 178 0 
L 178 197 
L 347 197 
Q 706 197 789 255 
Q 872 313 872 500 
L 872 3872 
Q 872 4056 787 4114 
Q 703 4172 347 4172 
L 178 4172 
L 178 4372 
Q 403 4353 1159 4353 
Q 1909 4353 2131 4372 
L 2131 4172 
L 1966 4172 
Q 1606 4172 1523 4114 
Q 1441 4056 1441 3872 
L 1441 500 
Q 1441 316 1523 256 
Q 1606 197 1966 197 
L 2131 197 
L 2131 0 
Q 1906 19 1153 19 
Q 403 19 178 0 
z
" transform="scale(0.015625)"/>
       <path id="CMUSerif-Roman-67" d="M 178 -506 
Q 178 -300 336 -122 
Q 494 56 769 134 
Q 488 313 488 703 
Q 488 1003 684 1234 
Q 384 1484 384 1894 
Q 384 2272 684 2550 
Q 984 2828 1422 2828 
Q 1806 2828 2100 2597 
Q 2406 2897 2778 2900 
Q 2944 2900 3023 2797 
Q 3103 2694 3103 2584 
Q 3103 2488 3042 2441 
Q 2981 2394 2919 2394 
Q 2841 2394 2786 2445 
Q 2731 2497 2731 2578 
Q 2731 2713 2834 2753 
Q 2816 2759 2772 2759 
Q 2459 2759 2194 2509 
Q 2456 2266 2456 1887 
Q 2456 1509 2156 1231 
Q 1856 953 1422 953 
Q 1063 953 788 1153 
Q 678 1025 678 850 
Q 678 691 775 566 
Q 872 441 1019 422 
Q 1063 416 1497 416 
Q 1753 416 1893 409 
Q 2034 403 2236 361 
Q 2438 319 2597 238 
Q 3013 6 3016 -494 
Q 3016 -859 2595 -1089 
Q 2175 -1319 1594 -1319 
Q 1006 -1319 592 -1086 
Q 178 -853 178 -506 
z
M 513 -506 
Q 513 -769 822 -970 
Q 1131 -1172 1600 -1172 
Q 2059 -1172 2370 -973 
Q 2681 -775 2681 -506 
Q 2681 -316 2572 -194 
Q 2463 -72 2239 -23 
Q 2016 25 1859 34 
Q 1703 44 1416 44 
L 1038 44 
Q 819 31 666 -128 
Q 513 -288 513 -506 
z
M 863 1888 
Q 863 1100 1422 1100 
Q 1703 1100 1875 1356 
Q 1978 1528 1978 1894 
Q 1978 2681 1422 2681 
Q 1141 2681 966 2425 
Q 863 2253 863 1888 
z
" transform="scale(0.015625)"/>
      </defs>
      <use xlink:href="#CMUSerif-Roman-44"/>
      <use xlink:href="#CMUSerif-Roman-6f" x="76.269531"/>
      <use xlink:href="#CMUSerif-Roman-63" x="126.269531"/>
      <use xlink:href="#CMUSerif-Roman-75" x="170.654297"/>
      <use xlink:href="#CMUSerif-Roman-6d" x="226.123047"/>
      <use xlink:href="#CMUSerif-Roman-65" x="309.375"/>
      <use xlink:href="#CMUSerif-Roman-6e" x="353.759766"/>
      <use xlink:href="#CMUSerif-Roman-74" x="409.228516"/>
      <use xlink:href="#CMUSerif-Roman-20" x="447.998047"/>
      <use xlink:href="#CMUSerif-Roman-49" x="481.25"/>
      <use xlink:href="#CMUSerif-Roman-6e" x="517.333984"/>
      <use xlink:href="#CMUSerif-Roman-74" x="572.802734"/>
      <use xlink:href="#CMUSerif-Roman-65" x="611.572266"/>
      <use xlink:href="#CMUSerif-Roman-6c" x="655.957031"/>
      <use xlink:href="#CMUSerif-Roman-6c" x="683.642578"/>
      <use xlink:href="#CMUSerif-Roman-69" x="711.328125"/>
      <use xlink:href="#CMUSerif-Roman-67" x="739.013672"/>
      <use xlink:href="#CMUSerif-Roman-65" x="789.013672"/>
      <use xlink:href="#CMUSerif-Roman-6e" x="833.398438"/>
      <use xlink:href="#CMUSerif-Roman-63" x="888.867188"/>
      <use xlink:href="#CMUSerif-Roman-65" x="933.251953"/>
     </g>
    </g>
    <g id="line2d_31">
     <path d="M 826.621875 526.246875 
L 844.621875 526.246875 
L 862.621875 526.246875 
" style="fill: none; stroke: #2ca02c; stroke-width: 2; stroke-linecap: square"/>
    </g>
    <g id="text_18">
     <!-- Document AI -->
     <g transform="translate(877.021875 532.546875) scale(0.18 -0.18)">
      <defs>
       <path id="CMUSerif-Roman-41" d="M 206 0 
L 206 197 
Q 775 209 922 628 
L 2247 4453 
Q 2272 4531 2300 4556 
Q 2328 4581 2400 4581 
Q 2438 4581 2461 4575 
Q 2484 4569 2500 4547 
Q 2516 4525 2522 4512 
Q 2528 4500 2547 4453 
L 3928 453 
Q 3978 294 4081 245 
Q 4184 197 4475 197 
L 4588 197 
L 4588 0 
Q 4184 19 3750 19 
Q 3059 19 2828 0 
L 2828 197 
Q 3359 197 3359 391 
Q 3359 403 3341 481 
L 3003 1459 
L 1422 1459 
L 1125 622 
Q 1113 597 1113 525 
Q 1113 391 1238 294 
Q 1363 197 1594 197 
L 1594 0 
Q 978 19 856 19 
Q 647 19 206 0 
z
M 1491 1656 
L 2931 1656 
L 2209 3738 
L 1491 1656 
z
" transform="scale(0.015625)"/>
      </defs>
      <use xlink:href="#CMUSerif-Roman-44"/>
      <use xlink:href="#CMUSerif-Roman-6f" x="76.269531"/>
      <use xlink:href="#CMUSerif-Roman-63" x="126.269531"/>
      <use xlink:href="#CMUSerif-Roman-75" x="170.654297"/>
      <use xlink:href="#CMUSerif-Roman-6d" x="226.123047"/>
      <use xlink:href="#CMUSerif-Roman-65" x="309.375"/>
      <use xlink:href="#CMUSerif-Roman-6e" x="353.759766"/>
      <use xlink:href="#CMUSerif-Roman-74" x="409.228516"/>
      <use xlink:href="#CMUSerif-Roman-20" x="447.998047"/>
      <use xlink:href="#CMUSerif-Roman-41" x="481.25"/>
      <use xlink:href="#CMUSerif-Roman-49" x="556.25"/>
     </g>
    </g>
    <g id="line2d_32">
     <path d="M 826.621875 551.337188 
L 844.621875 551.337188 
L 862.621875 551.337188 
" style="fill: none; stroke: #d62728; stroke-width: 2; stroke-linecap: square"/>
    </g>
    <g id="text_19">
     <!-- Tesseract -->
     <g transform="translate(877.021875 557.637187) scale(0.18 -0.18)">
      <use xlink:href="#CMUSerif-Roman-54"/>
      <use xlink:href="#CMUSerif-Roman-65" x="72.167969"/>
      <use xlink:href="#CMUSerif-Roman-73" x="116.552734"/>
      <use xlink:href="#CMUSerif-Roman-73" x="155.908203"/>
      <use xlink:href="#CMUSerif-Roman-65" x="195.263672"/>
      <use xlink:href="#CMUSerif-Roman-72" x="239.648438"/>
      <use xlink:href="#CMUSerif-Roman-61" x="278.710938"/>
      <use xlink:href="#CMUSerif-Roman-63" x="328.710938"/>
      <use xlink:href="#CMUSerif-Roman-74" x="373.095703"/>
     </g>
    </g>
   </g>
  </g>
 </g>
 <defs>
  <clipPath id="p277bbdb069">
   <rect x="77.1975" y="33.72" width="992.0025" height="543.6075"/>
  </clipPath>
 </defs>
</svg>
