<?xml version="1.0" encoding="utf-8" standalone="no"?>
<!DOCTYPE svg PUBLIC "-//W3C//DTD SVG 1.1//EN"
  "http://www.w3.org/Graphics/SVG/1.1/DTD/svg11.dtd">
<svg xmlns:xlink="http://www.w3.org/1999/xlink" width="1080pt" height="648pt" viewBox="0 0 1080 648" xmlns="http://www.w3.org/2000/svg" version="1.1">
 <metadata>
  <rdf:RDF xmlns:dc="http://purl.org/dc/elements/1.1/" xmlns:cc="http://creativecommons.org/ns#" xmlns:rdf="http://www.w3.org/1999/02/22-rdf-syntax-ns#">
   <cc:Work>
    <dc:type rdf:resource="http://purl.org/dc/dcmitype/StillImage"/>
    <dc:date>2024-12-12T13:04:20.669927</dc:date>
    <dc:format>image/svg+xml</dc:format>
    <dc:creator>
     <cc:Agent>
      <dc:title>Matplotlib v3.9.3, https://matplotlib.org/</dc:title>
     </cc:Agent>
    </dc:creator>
   </cc:Work>
  </rdf:RDF>
 </metadata>
 <defs>
  <style type="text/css">*{stroke-linejoin: round; stroke-linecap: butt}</style>
 </defs>
 <g id="figure_1">
  <g id="patch_1">
   <path d="M 0 648 
L 1080 648 
L 1080 0 
L 0 0 
z
" style="fill: #f2f2f2"/>
  </g>
  <g id="axes_1">
   <g id="patch_2">
    <path d="M 85.2075 577.3275 
L 1069.2 577.3275 
L 1069.2 33.72 
L 85.2075 33.72 
z
" style="fill: #f2f2f2"/>
   </g>
   <g id="matplotlib.axis_1">
    <g id="xtick_1">
     <g id="line2d_1">
      <defs>
       <path id="m4b03438d44" d="M 0 0 
L 0 3.5 
" style="stroke: #000000; stroke-width: 0.8"/>
      </defs>
      <g>
       <use xlink:href="#m4b03438d44" x="129.934432" y="577.3275" style="stroke: #000000; stroke-width: 0.8"/>
      </g>
     </g>
     <g id="text_1">
      <!-- 0.0 -->
      <g transform="translate(119.711932 595.43) scale(0.16 -0.16)">
       <defs>
        <path id="CMUSerif-Roman-30" d="M 250 2047 
Q 250 2988 488 3500 
Q 819 4263 1600 4263 
Q 1766 4263 1939 4217 
Q 2113 4172 2333 4000 
Q 2553 3828 2688 3547 
Q 2944 3003 2944 2047 
Q 2944 1113 2706 603 
Q 2359 -141 1594 -141 
Q 1306 -141 1014 6 
Q 722 153 538 506 
Q 250 1034 250 2047 
z
M 781 2125 
Q 781 1159 850 775 
Q 928 359 1142 179 
Q 1356 0 1594 0 
Q 1850 0 2064 192 
Q 2278 384 2344 800 
Q 2416 1209 2413 2125 
Q 2413 3016 2350 3372 
Q 2266 3788 2042 3955 
Q 1819 4122 1594 4122 
Q 1509 4122 1420 4097 
Q 1331 4072 1203 4000 
Q 1075 3928 976 3750 
Q 878 3572 831 3303 
Q 781 2956 781 2125 
z
" transform="scale(0.015625)"/>
        <path id="CMUSerif-Roman-2e" d="M 641 103 
Q 544 206 544 340 
Q 544 475 641 573 
Q 738 672 884 672 
Q 1025 672 1120 580 
Q 1216 488 1216 339 
Q 1216 191 1114 95 
Q 1013 0 884 0 
Q 738 0 641 103 
z
" transform="scale(0.015625)"/>
       </defs>
       <use xlink:href="#CMUSerif-Roman-30"/>
       <use xlink:href="#CMUSerif-Roman-2e" x="50"/>
       <use xlink:href="#CMUSerif-Roman-30" x="77.783203"/>
      </g>
     </g>
    </g>
    <g id="xtick_2">
     <g id="line2d_2">
      <g>
       <use xlink:href="#m4b03438d44" x="308.842159" y="577.3275" style="stroke: #000000; stroke-width: 0.8"/>
      </g>
     </g>
     <g id="text_2">
      <!-- 0.2 -->
      <g transform="translate(298.619659 595.43) scale(0.16 -0.16)">
       <defs>
        <path id="CMUSerif-Roman-32" d="M 319 0 
Q 319 116 330 150 
Q 341 184 391 238 
L 1619 1606 
Q 2291 2363 2291 3022 
Q 2291 3450 2067 3756 
Q 1844 4063 1434 4063 
Q 1153 4063 915 3891 
Q 678 3719 569 3413 
Q 588 3419 653 3419 
Q 813 3419 902 3319 
Q 991 3219 991 3084 
Q 991 2913 880 2830 
Q 769 2747 659 2747 
Q 616 2747 558 2756 
Q 500 2766 409 2855 
Q 319 2944 319 3103 
Q 319 3550 658 3906 
Q 997 4263 1516 4263 
Q 2103 4263 2489 3914 
Q 2875 3566 2875 3022 
Q 2875 2831 2817 2657 
Q 2759 2484 2682 2350 
Q 2606 2216 2400 2000 
Q 2194 1784 2028 1631 
Q 1863 1478 1491 1153 
L 813 494 
L 1966 494 
Q 2528 494 2572 544 
Q 2634 634 2713 1113 
L 2875 1113 
L 2694 0 
L 319 0 
z
" transform="scale(0.015625)"/>
       </defs>
       <use xlink:href="#CMUSerif-Roman-30"/>
       <use xlink:href="#CMUSerif-Roman-2e" x="50"/>
       <use xlink:href="#CMUSerif-Roman-32" x="77.783203"/>
      </g>
     </g>
    </g>
    <g id="xtick_3">
     <g id="line2d_3">
      <g>
       <use xlink:href="#m4b03438d44" x="487.749886" y="577.3275" style="stroke: #000000; stroke-width: 0.8"/>
      </g>
     </g>
     <g id="text_3">
      <!-- 0.4 -->
      <g transform="translate(477.527386 595.43) scale(0.16 -0.16)">
       <defs>
        <path id="CMUSerif-Roman-34" d="M 178 1056 
L 178 1253 
L 2144 4256 
Q 2194 4334 2272 4331 
Q 2344 4331 2359 4303 
Q 2375 4275 2375 4166 
L 2375 1253 
L 3016 1253 
L 3016 1056 
L 2375 1056 
L 2375 500 
Q 2375 316 2451 256 
Q 2528 197 2859 197 
L 2994 197 
L 2994 0 
Q 2731 19 2125 19 
Q 1522 19 1259 0 
L 1259 197 
L 1394 197 
Q 1725 197 1803 255 
Q 1881 313 1881 500 
L 1881 1056 
L 178 1056 
z
M 359 1253 
L 1919 1253 
L 1919 3641 
L 359 1253 
z
" transform="scale(0.015625)"/>
       </defs>
       <use xlink:href="#CMUSerif-Roman-30"/>
       <use xlink:href="#CMUSerif-Roman-2e" x="50"/>
       <use xlink:href="#CMUSerif-Roman-34" x="77.783203"/>
      </g>
     </g>
    </g>
    <g id="xtick_4">
     <g id="line2d_4">
      <g>
       <use xlink:href="#m4b03438d44" x="666.657614" y="577.3275" style="stroke: #000000; stroke-width: 0.8"/>
      </g>
     </g>
     <g id="text_4">
      <!-- 0.6 -->
      <g transform="translate(656.435114 595.43) scale(0.16 -0.16)">
       <defs>
        <path id="CMUSerif-Roman-36" d="M 269 2022 
Q 269 3028 781 3645 
Q 1294 4263 1953 4263 
Q 2338 4263 2552 4067 
Q 2766 3872 2766 3572 
Q 2766 3406 2669 3334 
Q 2572 3263 2472 3263 
Q 2356 3263 2265 3341 
Q 2175 3419 2175 3559 
Q 2175 3847 2528 3847 
Q 2363 4103 1966 4103 
Q 1844 4103 1719 4067 
Q 1594 4031 1431 3912 
Q 1269 3794 1144 3606 
Q 1019 3419 931 3066 
Q 844 2713 844 2253 
L 844 2100 
Q 1106 2734 1643 2732 
Q 2181 2731 2553 2322 
Q 2925 1913 2925 1306 
Q 2925 684 2537 271 
Q 2150 -141 1606 -141 
Q 1363 -141 1142 -39 
Q 922 63 717 294 
Q 513 525 391 969 
Q 269 1413 269 2022 
z
M 856 1447 
Q 856 819 972 519 
Q 991 469 1033 400 
Q 1075 331 1148 242 
Q 1222 153 1344 95 
Q 1466 38 1606 38 
Q 2034 38 2241 453 
Q 2350 684 2350 1313 
Q 2350 1953 2234 2188 
Q 2038 2584 1638 2584 
Q 1369 2584 1183 2400 
Q 997 2216 926 1969 
Q 856 1722 856 1447 
z
" transform="scale(0.015625)"/>
       </defs>
       <use xlink:href="#CMUSerif-Roman-30"/>
       <use xlink:href="#CMUSerif-Roman-2e" x="50"/>
       <use xlink:href="#CMUSerif-Roman-36" x="77.783203"/>
      </g>
     </g>
    </g>
    <g id="xtick_5">
     <g id="line2d_5">
      <g>
       <use xlink:href="#m4b03438d44" x="845.565341" y="577.3275" style="stroke: #000000; stroke-width: 0.8"/>
      </g>
     </g>
     <g id="text_5">
      <!-- 0.8 -->
      <g transform="translate(835.342841 595.43) scale(0.16 -0.16)">
       <defs>
        <path id="CMUSerif-Roman-38" d="M 269 966 
Q 269 1681 1191 2144 
Q 794 2413 722 2491 
Q 441 2803 441 3194 
Q 441 3641 780 3952 
Q 1119 4263 1600 4263 
Q 2059 4263 2406 3997 
Q 2753 3731 2753 3309 
Q 2753 2716 1978 2316 
Q 2491 1997 2613 1863 
Q 2925 1516 2925 1075 
Q 2925 563 2531 211 
Q 2138 -141 1594 -141 
Q 1063 -141 666 168 
Q 269 478 269 966 
z
M 588 966 
Q 588 569 886 303 
Q 1184 38 1600 38 
Q 2003 38 2304 269 
Q 2606 500 2606 844 
Q 2606 978 2561 1093 
Q 2516 1209 2427 1301 
Q 2338 1394 2283 1436 
Q 2228 1478 2125 1550 
L 1338 2047 
Q 588 1631 588 966 
z
M 722 3444 
Q 722 3138 1044 2925 
L 1838 2413 
Q 2472 2784 2472 3309 
Q 2472 3650 2212 3876 
Q 1953 4103 1594 4103 
Q 1241 4103 981 3917 
Q 722 3731 722 3444 
z
" transform="scale(0.015625)"/>
       </defs>
       <use xlink:href="#CMUSerif-Roman-30"/>
       <use xlink:href="#CMUSerif-Roman-2e" x="50"/>
       <use xlink:href="#CMUSerif-Roman-38" x="77.783203"/>
      </g>
     </g>
    </g>
    <g id="xtick_6">
     <g id="line2d_6">
      <g>
       <use xlink:href="#m4b03438d44" x="1024.473068" y="577.3275" style="stroke: #000000; stroke-width: 0.8"/>
      </g>
     </g>
     <g id="text_6">
      <!-- 1.0 -->
      <g transform="translate(1014.250568 595.43) scale(0.16 -0.16)">
       <defs>
        <path id="CMUSerif-Roman-31" d="M 569 3653 
L 569 3853 
Q 1338 3853 1734 4263 
Q 1844 4263 1862 4238 
Q 1881 4213 1881 4097 
L 1881 506 
Q 1881 316 1975 256 
Q 2069 197 2478 197 
L 2681 197 
L 2681 0 
Q 2456 19 1643 19 
Q 831 19 609 0 
L 609 197 
L 813 197 
Q 1216 197 1312 255 
Q 1409 313 1409 506 
L 1409 3822 
Q 1075 3653 569 3653 
z
" transform="scale(0.015625)"/>
       </defs>
       <use xlink:href="#CMUSerif-Roman-31"/>
       <use xlink:href="#CMUSerif-Roman-2e" x="50"/>
       <use xlink:href="#CMUSerif-Roman-30" x="77.783203"/>
      </g>
     </g>
    </g>
    <g id="text_7">
     <!-- Recall -->
     <g transform="translate(550.430313 632.410625) scale(0.2 -0.2)">
      <defs>
       <path id="CMUSerif-Roman-52" d="M 225 0 
L 225 197 
L 378 197 
Q 725 197 804 255 
Q 884 313 884 500 
L 884 3872 
Q 884 4056 803 4114 
Q 722 4172 378 4172 
L 225 4172 
L 225 4372 
L 2234 4372 
Q 2931 4372 3417 4030 
Q 3903 3688 3903 3219 
Q 3903 2859 3587 2578 
Q 3272 2297 2784 2175 
Q 3419 1956 3566 1434 
L 3647 922 
Q 3672 738 3689 644 
Q 3706 550 3734 422 
Q 3763 294 3792 233 
Q 3822 172 3865 108 
Q 3909 44 3967 22 
Q 4025 0 4103 0 
Q 4250 0 4375 131 
Q 4500 263 4525 569 
Q 4538 672 4603 672 
Q 4684 672 4684 569 
Q 4684 478 4659 373 
Q 4634 269 4573 147 
Q 4513 25 4381 -58 
Q 4250 -141 4078 -141 
Q 3578 -141 3272 128 
Q 3144 244 3086 394 
Q 3028 544 3018 662 
Q 3009 781 3009 1044 
Q 3009 1416 2970 1578 
Q 2931 1741 2766 1900 
Q 2541 2119 2169 2119 
L 1434 2119 
L 1434 500 
Q 1434 316 1514 256 
Q 1594 197 1941 197 
L 2094 197 
L 2094 0 
Q 1863 19 1159 19 
Q 456 19 225 0 
z
M 1434 2259 
L 2144 2259 
Q 2484 2259 2714 2342 
Q 2944 2425 3053 2575 
Q 3163 2725 3203 2876 
Q 3244 3028 3244 3219 
Q 3244 3444 3194 3612 
Q 3144 3781 3034 3881 
Q 2925 3981 2815 4045 
Q 2706 4109 2537 4134 
Q 2369 4159 2253 4165 
Q 2138 4172 1953 4172 
Q 1641 4172 1575 4159 
Q 1503 4153 1475 4118 
Q 1447 4084 1440 4045 
Q 1434 4006 1434 3916 
L 1434 2259 
z
" transform="scale(0.015625)"/>
       <path id="CMUSerif-Roman-65" d="M 178 1409 
Q 178 2013 565 2441 
Q 953 2869 1509 2869 
Q 2072 2869 2364 2503 
Q 2656 2138 2656 1613 
Q 2656 1516 2631 1497 
Q 2606 1478 2497 1478 
L 709 1478 
Q 709 825 903 519 
Q 1172 91 1625 91 
Q 1688 91 1763 103 
Q 1838 116 1991 170 
Q 2144 225 2278 372 
Q 2413 519 2491 750 
Q 2509 841 2572 838 
Q 2656 838 2656 763 
Q 2656 706 2595 579 
Q 2534 453 2418 303 
Q 2303 153 2079 40 
Q 1856 -72 1588 -72 
Q 1025 -72 601 354 
Q 178 781 178 1409 
z
M 716 1613 
L 2234 1613 
Q 2234 1747 2211 1897 
Q 2188 2047 2120 2255 
Q 2053 2463 1897 2594 
Q 1741 2725 1509 2725 
Q 1406 2725 1295 2681 
Q 1184 2638 1050 2531 
Q 916 2425 822 2184 
Q 728 1944 716 1613 
z
" transform="scale(0.015625)"/>
       <path id="CMUSerif-Roman-63" d="M 625 351 
Q 219 775 219 1383 
Q 219 1991 619 2430 
Q 1019 2869 1606 2869 
Q 1997 2869 2290 2683 
Q 2584 2497 2584 2181 
Q 2584 2041 2501 1961 
Q 2419 1881 2291 1881 
Q 2156 1881 2076 1964 
Q 1997 2047 1997 2175 
Q 1997 2231 2015 2287 
Q 2034 2344 2104 2403 
Q 2175 2463 2297 2472 
Q 2069 2706 1625 2706 
Q 1619 2706 1613 2706 
Q 1288 2706 1019 2400 
Q 750 2094 750 1394 
Q 750 1028 839 761 
Q 928 494 1075 356 
Q 1222 219 1365 155 
Q 1509 91 1650 91 
Q 2278 91 2491 763 
Q 2509 825 2572 825 
Q 2656 825 2656 763 
Q 2656 731 2631 650 
Q 2606 569 2528 441 
Q 2450 313 2339 202 
Q 2228 91 2033 9 
Q 1838 -72 1594 -72 
Q 1031 -72 625 351 
z
" transform="scale(0.015625)"/>
       <path id="CMUSerif-Roman-61" d="M 269 609 
Q 269 1153 909 1441 
Q 1294 1625 2088 1672 
L 2088 1906 
Q 2088 2303 1880 2514 
Q 1672 2725 1409 2725 
Q 941 2725 716 2431 
Q 906 2425 975 2329 
Q 1044 2234 1044 2138 
Q 1044 2009 964 1926 
Q 884 1844 750 1844 
Q 622 1844 537 1923 
Q 453 2003 453 2144 
Q 453 2456 736 2662 
Q 1019 2869 1422 2869 
Q 1947 2869 2297 2516 
Q 2406 2406 2461 2265 
Q 2516 2125 2522 2033 
Q 2528 1941 2528 1759 
L 2528 481 
Q 2528 444 2540 381 
Q 2553 319 2611 239 
Q 2669 159 2766 159 
Q 2997 159 2994 569 
L 2994 928 
L 3156 928 
L 3156 569 
Q 3156 228 2976 95 
Q 2797 -38 2631 -38 
Q 2419 -38 2284 118 
Q 2150 275 2131 488 
Q 2034 244 1814 86 
Q 1594 -72 1294 -72 
Q 1063 -72 845 -14 
Q 628 44 448 205 
Q 269 366 269 609 
z
M 763 616 
Q 763 378 931 225 
Q 1100 72 1338 72 
Q 1606 72 1847 280 
Q 2088 488 2088 897 
L 2088 1538 
Q 1378 1513 1070 1230 
Q 763 947 763 616 
z
" transform="scale(0.015625)"/>
       <path id="CMUSerif-Roman-6c" d="M 213 0 
L 213 197 
Q 553 197 631 239 
Q 709 281 709 488 
L 709 3816 
Q 709 4053 626 4112 
Q 544 4172 213 4172 
L 213 4372 
L 1131 4441 
L 1131 488 
Q 1131 281 1212 239 
Q 1294 197 1631 197 
L 1631 0 
Q 1553 0 1390 6 
Q 1228 13 1109 16 
Q 991 19 922 19 
Q 847 19 213 0 
z
" transform="scale(0.015625)"/>
      </defs>
      <use xlink:href="#CMUSerif-Roman-52"/>
      <use xlink:href="#CMUSerif-Roman-65" x="73.583984"/>
      <use xlink:href="#CMUSerif-Roman-63" x="117.96875"/>
      <use xlink:href="#CMUSerif-Roman-61" x="162.353516"/>
      <use xlink:href="#CMUSerif-Roman-6c" x="212.353516"/>
      <use xlink:href="#CMUSerif-Roman-6c" x="240.039062"/>
     </g>
    </g>
   </g>
   <g id="matplotlib.axis_2">
    <g id="ytick_1">
     <g id="line2d_7">
      <defs>
       <path id="m008b51a447" d="M 0 0 
L -3.5 0 
" style="stroke: #000000; stroke-width: 0.8"/>
      </defs>
      <g>
       <use xlink:href="#m008b51a447" x="85.2075" y="560.22097" style="stroke: #000000; stroke-width: 0.8"/>
      </g>
     </g>
     <g id="text_8">
      <!-- 0.88 -->
      <g transform="translate(49.7625 565.77222) scale(0.16 -0.16)">
       <use xlink:href="#CMUSerif-Roman-30"/>
       <use xlink:href="#CMUSerif-Roman-2e" x="50"/>
       <use xlink:href="#CMUSerif-Roman-38" x="77.783203"/>
       <use xlink:href="#CMUSerif-Roman-38" x="127.783203"/>
      </g>
     </g>
    </g>
    <g id="ytick_2">
     <g id="line2d_8">
      <g>
       <use xlink:href="#m008b51a447" x="85.2075" y="476.589047" style="stroke: #000000; stroke-width: 0.8"/>
      </g>
     </g>
     <g id="text_9">
      <!-- 0.90 -->
      <g transform="translate(49.7625 482.140297) scale(0.16 -0.16)">
       <defs>
        <path id="CMUSerif-Roman-39" d="M 269 2822 
Q 269 3163 369 3395 
Q 469 3628 678 3859 
Q 1063 4263 1619 4263 
Q 1856 4263 2067 4163 
Q 2278 4063 2479 3836 
Q 2681 3609 2803 3164 
Q 2925 2719 2925 2106 
Q 2925 1116 2445 487 
Q 1966 -141 1319 -141 
Q 909 -141 668 45 
Q 428 231 428 550 
Q 428 716 522 786 
Q 616 856 722 856 
Q 838 856 928 779 
Q 1019 703 1019 563 
Q 1019 447 945 358 
Q 872 269 684 269 
Q 869 38 1313 38 
Q 1472 38 1631 111 
Q 1791 184 1964 364 
Q 2138 544 2244 922 
Q 2350 1300 2350 1831 
L 2350 2034 
Q 2094 1394 1550 1394 
Q 1013 1394 641 1806 
Q 269 2219 269 2822 
z
M 844 2816 
Q 844 2181 959 1947 
Q 1156 1544 1556 1544 
Q 1947 1544 2142 1892 
Q 2338 2241 2338 2694 
Q 2338 3322 2234 3597 
Q 2044 4103 1620 4103 
Q 1197 4103 978 3700 
Q 844 3463 844 2816 
z
" transform="scale(0.015625)"/>
       </defs>
       <use xlink:href="#CMUSerif-Roman-30"/>
       <use xlink:href="#CMUSerif-Roman-2e" x="50"/>
       <use xlink:href="#CMUSerif-Roman-39" x="77.783203"/>
       <use xlink:href="#CMUSerif-Roman-30" x="127.783203"/>
      </g>
     </g>
    </g>
    <g id="ytick_3">
     <g id="line2d_9">
      <g>
       <use xlink:href="#m008b51a447" x="85.2075" y="392.957124" style="stroke: #000000; stroke-width: 0.8"/>
      </g>
     </g>
     <g id="text_10">
      <!-- 0.92 -->
      <g transform="translate(49.7625 398.508374) scale(0.16 -0.16)">
       <use xlink:href="#CMUSerif-Roman-30"/>
       <use xlink:href="#CMUSerif-Roman-2e" x="50"/>
       <use xlink:href="#CMUSerif-Roman-39" x="77.783203"/>
       <use xlink:href="#CMUSerif-Roman-32" x="127.783203"/>
      </g>
     </g>
    </g>
    <g id="ytick_4">
     <g id="line2d_10">
      <g>
       <use xlink:href="#m008b51a447" x="85.2075" y="309.325201" style="stroke: #000000; stroke-width: 0.8"/>
      </g>
     </g>
     <g id="text_11">
      <!-- 0.94 -->
      <g transform="translate(49.7625 314.876451) scale(0.16 -0.16)">
       <use xlink:href="#CMUSerif-Roman-30"/>
       <use xlink:href="#CMUSerif-Roman-2e" x="50"/>
       <use xlink:href="#CMUSerif-Roman-39" x="77.783203"/>
       <use xlink:href="#CMUSerif-Roman-34" x="127.783203"/>
      </g>
     </g>
    </g>
    <g id="ytick_5">
     <g id="line2d_11">
      <g>
       <use xlink:href="#m008b51a447" x="85.2075" y="225.693278" style="stroke: #000000; stroke-width: 0.8"/>
      </g>
     </g>
     <g id="text_12">
      <!-- 0.96 -->
      <g transform="translate(49.7625 231.244528) scale(0.16 -0.16)">
       <use xlink:href="#CMUSerif-Roman-30"/>
       <use xlink:href="#CMUSerif-Roman-2e" x="50"/>
       <use xlink:href="#CMUSerif-Roman-39" x="77.783203"/>
       <use xlink:href="#CMUSerif-Roman-36" x="127.783203"/>
      </g>
     </g>
    </g>
    <g id="ytick_6">
     <g id="line2d_12">
      <g>
       <use xlink:href="#m008b51a447" x="85.2075" y="142.061355" style="stroke: #000000; stroke-width: 0.8"/>
      </g>
     </g>
     <g id="text_13">
      <!-- 0.98 -->
      <g transform="translate(49.7625 147.612605) scale(0.16 -0.16)">
       <use xlink:href="#CMUSerif-Roman-30"/>
       <use xlink:href="#CMUSerif-Roman-2e" x="50"/>
       <use xlink:href="#CMUSerif-Roman-39" x="77.783203"/>
       <use xlink:href="#CMUSerif-Roman-38" x="127.783203"/>
      </g>
     </g>
    </g>
    <g id="ytick_7">
     <g id="line2d_13">
      <g>
       <use xlink:href="#m008b51a447" x="85.2075" y="58.429432" style="stroke: #000000; stroke-width: 0.8"/>
      </g>
     </g>
     <g id="text_14">
      <!-- 1.00 -->
      <g transform="translate(49.7625 63.980682) scale(0.16 -0.16)">
       <use xlink:href="#CMUSerif-Roman-31"/>
       <use xlink:href="#CMUSerif-Roman-2e" x="50"/>
       <use xlink:href="#CMUSerif-Roman-30" x="77.783203"/>
       <use xlink:href="#CMUSerif-Roman-30" x="127.783203"/>
      </g>
     </g>
    </g>
    <g id="text_15">
     <!-- Precision -->
     <g transform="translate(25.884375 345.125313) rotate(-90) scale(0.2 -0.2)">
      <defs>
       <path id="CMUSerif-Roman-50" d="M 225 0 
L 225 197 
L 378 197 
Q 725 197 804 255 
Q 884 313 884 500 
L 884 3872 
Q 884 4056 803 4114 
Q 722 4172 378 4172 
L 225 4172 
L 225 4372 
L 2484 4372 
Q 3131 4372 3562 4015 
Q 3994 3659 3994 3181 
Q 3994 2706 3555 2364 
Q 3116 2022 2534 2022 
L 1453 2022 
L 1453 500 
Q 1453 316 1533 256 
Q 1613 197 1959 197 
L 2113 197 
L 2113 0 
Q 1888 19 1166 19 
Q 450 19 225 0 
z
M 1434 2188 
L 2316 2188 
Q 2603 2188 2812 2269 
Q 3022 2350 3117 2448 
Q 3213 2547 3267 2708 
Q 3322 2869 3328 2958 
Q 3334 3047 3334 3181 
Q 3334 3322 3328 3411 
Q 3322 3500 3267 3661 
Q 3213 3822 3117 3920 
Q 3022 4019 2814 4095 
Q 2606 4172 2316 4172 
L 1747 4172 
Q 1528 4172 1481 4128 
Q 1434 4084 1434 3916 
L 1434 2188 
z
" transform="scale(0.015625)"/>
       <path id="CMUSerif-Roman-72" d="M 178 0 
L 178 197 
Q 519 197 598 239 
Q 678 281 678 488 
L 678 2203 
Q 678 2441 595 2500 
Q 513 2559 178 2559 
L 178 2759 
L 1069 2828 
L 1069 2125 
Q 1159 2400 1351 2614 
Q 1544 2828 1856 2828 
Q 2063 2828 2195 2712 
Q 2328 2597 2328 2438 
Q 2328 2297 2242 2226 
Q 2156 2156 2053 2156 
Q 1938 2156 1858 2229 
Q 1778 2303 1778 2431 
Q 1778 2509 1814 2570 
Q 1850 2631 1878 2653 
Q 1906 2675 1925 2681 
Q 1913 2688 1856 2688 
Q 1503 2688 1301 2336 
Q 1100 1984 1100 1484 
L 1100 500 
Q 1100 316 1176 256 
Q 1253 197 1588 197 
L 1722 197 
L 1722 0 
Q 1466 19 909 19 
Q 831 19 709 16 
Q 588 13 428 6 
Q 269 0 178 0 
z
" transform="scale(0.015625)"/>
       <path id="CMUSerif-Roman-69" d="M 213 0 
L 213 197 
Q 553 197 631 239 
Q 709 281 709 488 
L 709 2209 
Q 709 2447 629 2503 
Q 550 2559 238 2559 
L 238 2759 
L 1131 2828 
L 1131 481 
Q 1131 291 1200 244 
Q 1269 197 1581 197 
L 1581 0 
Q 928 19 916 19 
Q 828 19 213 0 
z
M 481 3944 
Q 481 4072 579 4176 
Q 678 4281 818 4281 
Q 959 4281 1059 4186 
Q 1159 4091 1159 3942 
Q 1159 3794 1059 3698 
Q 959 3603 819 3603 
Q 672 3603 576 3706 
Q 481 3809 481 3944 
z
" transform="scale(0.015625)"/>
       <path id="CMUSerif-Roman-73" d="M 213 84 
L 213 928 
Q 213 1000 216 1025 
Q 219 1050 237 1069 
Q 256 1088 294 1088 
Q 338 1088 355 1069 
Q 372 1050 384 978 
Q 481 538 689 305 
Q 897 72 1275 72 
Q 1634 72 1815 231 
Q 1997 391 1997 653 
Q 1997 1122 1331 1241 
Q 947 1319 787 1370 
Q 628 1422 488 1538 
Q 213 1763 213 2081 
Q 213 2400 455 2634 
Q 697 2869 1234 2869 
Q 1594 2869 1838 2688 
Q 1909 2744 1947 2791 
Q 2031 2869 2075 2869 
Q 2125 2869 2134 2836 
Q 2144 2803 2144 2713 
L 2144 2069 
Q 2144 1997 2141 1972 
Q 2138 1947 2119 1930 
Q 2100 1913 2059 1913 
Q 1988 1913 1984 1972 
Q 1934 2747 1234 2747 
Q 856 2747 687 2601 
Q 519 2456 519 2259 
Q 519 2150 570 2067 
Q 622 1984 689 1936 
Q 756 1888 881 1842 
Q 1006 1797 1082 1781 
Q 1159 1766 1306 1734 
Q 1819 1638 2034 1428 
Q 2303 1159 2303 819 
Q 2303 441 2047 184 
Q 1791 -72 1275 -72 
Q 859 -72 569 206 
Q 531 169 503 136 
Q 475 103 464 90 
Q 453 78 450 70 
Q 447 63 441 56 
Q 313 -72 281 -72 
Q 231 -72 222 -39 
Q 213 -6 213 84 
z
" transform="scale(0.015625)"/>
       <path id="CMUSerif-Roman-6f" d="M 601 345 
Q 178 763 178 1370 
Q 178 1978 592 2423 
Q 1006 2869 1600 2869 
Q 2181 2869 2598 2426 
Q 3016 1984 3016 1369 
Q 3016 766 2595 347 
Q 2175 -72 1594 -72 
Q 1025 -72 601 345 
z
M 709 1422 
Q 709 800 872 519 
Q 1122 91 1600 91 
Q 1838 91 2036 219 
Q 2234 347 2344 563 
Q 2484 844 2484 1422 
Q 2484 2038 2316 2309 
Q 2066 2725 1594 2725 
Q 1388 2725 1186 2617 
Q 984 2509 863 2297 
Q 709 2016 709 1422 
z
" transform="scale(0.015625)"/>
       <path id="CMUSerif-Roman-6e" d="M 206 0 
L 206 197 
Q 547 197 625 239 
Q 703 281 703 488 
L 703 2203 
Q 703 2441 620 2500 
Q 538 2559 206 2559 
L 206 2759 
L 1106 2828 
L 1106 2156 
Q 1406 2828 2053 2828 
Q 2534 2828 2725 2591 
Q 2866 2431 2895 2253 
Q 2925 2075 2925 1613 
L 2925 391 
Q 2931 256 3034 226 
Q 3138 197 3425 197 
L 3425 0 
Q 2772 19 2706 19 
Q 2656 19 1984 0 
L 1984 197 
Q 2325 197 2404 239 
Q 2484 281 2484 488 
L 2484 1978 
Q 2484 2303 2384 2495 
Q 2284 2688 2009 2688 
Q 1678 2688 1412 2409 
Q 1147 2131 1147 1663 
L 1147 488 
Q 1147 281 1226 239 
Q 1306 197 1644 197 
L 1644 0 
Q 991 19 928 19 
Q 878 19 206 0 
z
" transform="scale(0.015625)"/>
      </defs>
      <use xlink:href="#CMUSerif-Roman-50"/>
      <use xlink:href="#CMUSerif-Roman-72" x="67.96875"/>
      <use xlink:href="#CMUSerif-Roman-65" x="107.03125"/>
      <use xlink:href="#CMUSerif-Roman-63" x="151.416016"/>
      <use xlink:href="#CMUSerif-Roman-69" x="195.800781"/>
      <use xlink:href="#CMUSerif-Roman-73" x="223.486328"/>
      <use xlink:href="#CMUSerif-Roman-69" x="262.841797"/>
      <use xlink:href="#CMUSerif-Roman-6f" x="290.527344"/>
      <use xlink:href="#CMUSerif-Roman-6e" x="340.527344"/>
     </g>
    </g>
   </g>
   <g id="line2d_14">
    <path d="M 1024.473068 90.797563 
L 1024.407235 89.890674 
L 1022.958909 89.941314 
L 1022.958909 89.637657 
L 1022.761411 89.644508 
L 1022.761411 89.340741 
L 1022.695578 89.343003 
L 1022.234747 89.35885 
L 1022.234747 89.054861 
L 1022.168914 89.057105 
L 1021.576417 89.077307 
L 1021.576417 88.773053 
L 1021.510584 88.775277 
L 1019.864759 88.83099 
L 1019.864759 88.526114 
L 1019.798926 88.528324 
L 1019.00893 88.554876 
L 1019.00893 88.249666 
L 1018.943097 88.251859 
L 1018.613932 88.262826 
L 1018.482266 87.961782 
L 1016.836442 88.016197 
L 1016.836442 87.404077 
L 1016.770609 87.406213 
L 1015.388116 87.451142 
L 1015.388116 87.14452 
L 1015.322283 87.146641 
L 1014.663953 87.167862 
L 1014.663953 86.860948 
L 1014.59812 86.863049 
L 1012.688963 86.924125 
L 1012.688963 86.616487 
L 1012.62313 86.618575 
L 1011.569803 86.652027 
L 1011.569803 86.343959 
L 1011.50397 86.34603 
L 1011.306471 86.352243 
L 1011.306471 86.044039 
L 1011.240638 86.046088 
L 1011.174805 86.048137 
L 1011.174805 85.739842 
L 1011.108972 85.741869 
L 1010.582308 85.758096 
L 1010.582308 85.44955 
L 1003.406512 85.670081 
L 1003.406512 85.358986 
L 1003.340679 85.361003 
L 1002.814015 85.377148 
L 1002.748182 84.756375 
L 1001.958186 84.780075 
L 1001.958186 84.468331 
L 1001.892353 84.470284 
L 1001.760687 84.474192 
L 1001.760687 84.162331 
L 1001.694854 84.164263 
L 1001.234024 84.17779 
L 1001.234024 83.865696 
L 1001.168191 83.867606 
L 1000.839026 83.877162 
L 1000.839026 83.564881 
L 1000.773193 83.56677 
L 1000.444028 83.576218 
L 1000.444028 83.26375 
L 1000.378195 83.265617 
L 1000.180696 83.27122 
L 1000.114863 82.647777 
L 998.798203 82.684264 
L 998.798203 82.37107 
L 998.73237 82.372874 
L 997.744875 82.399963 
L 997.679042 81.774442 
L 996.362382 81.80972 
L 996.362382 81.495513 
L 996.296549 81.497256 
L 995.243222 81.525181 
L 995.243222 81.210525 
L 994.97989 81.217422 
L 994.97989 80.902623 
L 994.914057 80.904324 
L 994.716558 80.909429 
L 994.716558 80.279499 
L 994.650725 80.281154 
L 994.124061 80.294401 
L 994.124061 79.979151 
L 994.058228 79.980784 
L 993.926562 79.984051 
L 993.926562 79.668681 
L 993.860729 79.670292 
L 993.531564 79.678347 
L 993.531564 79.047178 
L 993.465731 79.048742 
L 993.202399 79.055001 
L 993.202399 78.739226 
L 993.136566 78.740767 
L 992.544069 78.75465 
L 992.544069 78.438589 
L 992.478236 78.440108 
L 992.149071 78.447711 
L 992.083238 77.81663 
L 992.017405 77.818104 
L 992.017405 77.501706 
L 991.951572 77.503156 
L 989.25242 77.562793 
L 989.25242 77.245339 
L 989.186587 77.246774 
L 988.330758 77.265451 
L 988.330758 76.629721 
L 988.264925 76.63111 
L 986.487434 76.668717 
L 986.487434 76.350101 
L 986.421601 76.351473 
L 984.249113 76.396852 
L 984.249113 76.077359 
L 984.18328 76.078713 
L 982.603288 76.111279 
L 982.603288 75.470923 
L 982.537455 75.472234 
L 980.89163 75.505061 
L 980.89163 75.184171 
L 980.825797 75.185462 
L 980.364966 75.194505 
L 980.364966 74.873368 
L 980.299133 74.874636 
L 979.443305 74.891138 
L 979.443305 74.569605 
L 979.377472 74.570851 
L 972.267509 74.706567 
L 972.267509 74.382267 
L 972.201676 74.383509 
L 970.885016 74.408392 
L 970.885016 74.083512 
L 970.819183 74.084733 
L 970.687517 74.087175 
L 970.687517 73.437111 
L 970.621684 73.438282 
L 958.17925 73.662933 
L 958.17925 73.002915 
L 958.113417 73.00407 
L 951.727617 73.116925 
L 951.727617 72.784265 
L 951.661784 72.785411 
L 950.345124 72.808371 
L 950.345124 72.141776 
L 950.279291 72.142873 
L 947.975137 72.181372 
L 947.975137 71.512645 
L 947.909304 71.513694 
L 937.178527 71.687073 
L 937.178527 71.00924 
L 937.112694 71.010263 
L 935.071871 71.042056 
L 935.071871 70.702174 
L 935.006038 70.703175 
L 934.347708 70.71319 
L 934.347708 70.032653 
L 934.281875 70.0336 
L 933.95271 70.038338 
L 933.95271 69.697819 
L 933.886877 69.69874 
L 925.262756 69.820605 
L 925.262756 69.47633 
L 925.196923 69.477242 
L 921.971106 69.522118 
L 921.971106 69.176363 
L 921.905273 69.177254 
L 920.654447 69.194212 
L 920.654447 68.847826 
L 920.588614 68.848691 
L 909.726171 68.993464 
L 909.726171 68.64219 
L 909.660338 68.64305 
L 901.628713 68.749089 
L 901.628713 68.394086 
L 901.56288 68.394935 
L 899.851223 68.417037 
L 899.851223 68.061158 
L 899.78539 68.06198 
L 896.888738 68.098276 
L 896.888738 67.740968 
L 896.822905 67.741766 
L 895.17708 67.761749 
L 895.17708 67.403584 
L 895.111247 67.404355 
L 873.847192 67.660328 
L 873.847192 67.291875 
L 873.781359 67.292658 
L 855.150624 67.519858 
L 855.150624 67.14188 
L 855.084791 67.142669 
L 854.821459 67.145828 
L 854.821459 66.76761 
L 854.755626 66.768365 
L 775.624375 67.78804 
L 761.470282 67.997307 
L 761.470282 67.563353 
L 761.404449 67.564303 
L 751.727 67.706161 
L 751.727 67.265346 
L 751.661167 67.266279 
L 734.281259 67.519858 
L 734.281259 67.066276 
L 734.215426 67.067215 
L 731.516273 67.10589 
L 731.516273 66.650132 
L 731.45044 66.65103 
L 725.788803 66.728994 
L 725.788803 66.268772 
L 725.72297 66.269636 
L 721.838824 66.320988 
L 721.838824 65.857603 
L 721.772991 65.858428 
L 709.725554 66.012514 
L 709.725554 65.539378 
L 709.659721 65.540184 
L 704.12975 65.608548 
L 704.12975 65.130708 
L 704.063917 65.131475 
L 695.768961 65.229565 
L 695.768961 64.744575 
L 695.703128 64.745308 
L 684.906518 64.86799 
L 684.906518 64.373421 
L 684.840685 64.374125 
L 684.577353 64.376943 
L 684.577353 63.881964 
L 684.51152 63.88261 
L 675.6899 63.970639 
L 675.6899 63.467499 
L 675.624067 63.468107 
L 671.344922 63.507882 
L 671.344922 63.000592 
L 671.279089 63.001148 
L 667.855774 63.03021 
L 667.855774 62.519512 
L 667.789941 62.520013 
L 666.868279 62.527027 
L 666.868279 62.015267 
L 666.802446 62.015706 
L 664.761624 62.029379 
L 664.761624 61.515481 
L 664.695791 61.51586 
L 646.39422 61.625149 
L 646.39422 61.092869 
L 646.328387 61.093208 
L 640.205919 61.125149 
L 640.205919 60.586283 
L 640.140086 60.586562 
L 631.450132 60.623919 
L 631.450132 60.075513 
L 631.384299 60.07573 
L 627.105155 60.089894 
L 627.105155 59.536553 
L 627.039322 59.536699 
L 607.881922 59.581069 
L 607.881922 59.00533 
L 607.816089 59.005409 
L 558.836346 59.071175 
L 558.836346 58.429432 
L 558.770513 58.429432 
L 129.934432 58.429432 
L 129.934432 58.429432 
" clip-path="url(#pc2e49e26c1)" style="fill: none; stroke: #ff7f0e; stroke-width: 2; stroke-linecap: square"/>
   </g>
   <g id="line2d_15">
    <path d="M 1024.473068 86.757553 
L 1024.407462 86.759616 
L 1024.27625 85.855729 
L 1024.210644 84.94925 
L 1021.127159 85.040423 
L 1021.127159 84.736474 
L 1021.061553 84.738399 
L 1020.733523 84.748026 
L 1020.733523 84.4439 
L 1020.667917 84.445804 
L 1018.10928 84.520284 
L 1018.10928 84.215225 
L 1018.043674 84.217118 
L 1017.78125 84.224693 
L 1017.584432 83.61977 
L 1017.125189 83.632731 
L 1016.928371 83.332695 
L 1006.234583 83.634767 
L 1006.103371 83.329148 
L 1002.560644 83.429633 
L 999.411553 83.207867 
L 999.149129 82.903394 
L 999.017917 82.595066 
L 995.212765 82.70072 
L 990.423523 81.258892 
L 989.045795 81.295303 
L 987.79928 80.695652 
L 985.109432 80.765314 
L 983.010038 80.501811 
L 981.632311 80.537327 
L 981.632311 80.218592 
L 978.548826 80.29735 
L 971.594583 79.83194 
L 953.815341 79.632264 
L 947.451553 79.79647 
L 947.451553 79.46429 
L 940.694129 79.638719 
L 940.694129 78.633633 
L 832.116098 79.807735 
L 832.116098 78.260323 
L 766.772462 78.15192 
L 766.772462 73.452617 
L 692.834432 71.547022 
L 692.834432 68.154074 
L 540.890795 66.424836 
L 540.890795 64.428852 
L 456.193371 61.790168 
L 456.193371 60.110475 
L 386.322917 59.499167 
L 386.322917 58.429432 
L 129.934432 58.429432 
L 129.934432 58.429432 
" clip-path="url(#pc2e49e26c1)" style="fill: none; stroke: #1f77b4; stroke-width: 2; stroke-linecap: square"/>
   </g>
   <g id="line2d_16">
    <path d="M 1024.473068 115.15592 
L 1024.340789 115.164196 
L 1024.340789 114.261337 
L 1024.274649 114.265411 
L 1022.158181 114.396088 
L 1022.092041 113.494711 
L 1021.893622 113.5068 
L 1021.827483 112.302569 
L 1021.695203 112.310457 
L 1021.695203 112.008237 
L 1021.629064 112.012161 
L 1021.298365 112.031785 
L 1021.298365 111.72939 
L 1021.232226 111.733295 
L 1021.166086 111.7372 
L 1021.166086 111.434717 
L 1021.099947 111.438601 
L 1021.033807 111.442486 
L 1021.033807 111.139915 
L 1020.967667 111.143778 
L 1020.703109 111.159237 
L 1020.703109 110.856512 
L 1020.636969 110.860356 
L 1018.454361 110.987531 
L 1018.454361 110.684015 
L 1018.388221 110.687856 
L 1017.859104 110.718608 
L 1017.859104 110.414848 
L 1017.792965 110.418673 
L 1017.660685 110.426323 
L 1017.660685 110.122453 
L 1017.594546 110.126257 
L 1017.131568 110.152901 
L 1017.131568 109.848809 
L 1017.065428 109.852595 
L 1016.073334 109.909458 
L 1016.073334 109.604967 
L 1016.007194 109.60874 
L 1015.941055 109.612514 
L 1015.941055 109.307934 
L 1015.874915 109.311686 
L 1015.742636 109.319192 
L 1015.742636 108.404982 
L 1015.676496 108.408669 
L 1015.345798 108.427113 
L 1015.279658 107.515721 
L 1015.0151 107.530221 
L 1015.0151 107.225015 
L 1014.94896 107.228619 
L 1013.692307 107.297198 
L 1013.692307 106.9915 
L 1013.626167 106.995092 
L 1011.708118 107.099503 
L 1011.708118 106.793088 
L 1011.641978 106.796674 
L 1011.046721 106.828972 
L 1011.046721 106.522287 
L 1010.980582 106.525855 
L 1010.583744 106.547279 
L 1010.583744 106.240391 
L 1010.517604 106.243941 
L 1010.186906 106.261699 
L 1010.186906 105.95463 
L 1010.120766 105.95816 
L 1008.533415 106.043052 
L 1008.533415 105.735372 
L 1008.467275 105.738893 
L 1006.284667 105.855384 
L 1006.218527 104.933225 
L 1005.82169 104.95406 
L 1005.82169 104.645266 
L 1005.75555 104.648717 
L 1005.358712 104.669437 
L 1005.358712 104.360436 
L 1005.292572 104.363869 
L 1004.565036 104.401658 
L 1004.565036 104.092337 
L 1004.498897 104.095752 
L 1004.432757 104.099168 
L 1004.432757 103.480296 
L 1004.366618 103.483666 
L 1003.771361 103.514026 
L 1003.771361 103.204291 
L 1003.705221 103.207644 
L 1002.779266 103.254638 
L 1002.779266 102.944512 
L 1002.713126 102.947849 
L 1002.514708 102.957865 
L 1002.514708 102.6476 
L 1002.448568 102.650917 
L 1002.184009 102.664187 
L 1002.184009 102.353761 
L 1002.11787 102.357057 
L 1001.853311 102.370246 
L 1001.853311 102.059657 
L 1001.787172 102.062933 
L 1001.125775 102.095713 
L 1001.125775 101.784824 
L 1001.059635 101.788082 
L 1000.795077 101.801117 
L 1000.795077 101.490066 
L 1000.728937 101.493303 
L 1000.332099 101.512734 
L 1000.332099 101.201474 
L 1000.26596 101.204691 
L 1000.19982 101.207909 
L 1000.133681 100.276858 
L 998.149491 100.371535 
L 998.083352 99.437843 
L 996.496 99.512224 
L 996.496 99.199283 
L 996.429861 99.202365 
L 993.453577 99.341522 
L 993.453577 99.027453 
L 993.387437 99.030532 
L 993.056739 99.045937 
L 993.056739 98.731679 
L 992.990599 98.734738 
L 992.593762 98.7531 
L 992.593762 98.438629 
L 992.527622 98.441667 
L 991.932365 98.469033 
L 991.932365 98.154277 
L 991.866225 98.157297 
L 991.469388 98.175422 
L 991.469388 97.860453 
L 991.403248 97.863451 
L 990.014316 97.926531 
L 990.014316 97.610991 
L 989.948176 97.613976 
L 989.815897 97.619947 
L 989.815897 97.304287 
L 989.749757 97.30725 
L 987.633288 97.402291 
L 987.633288 97.085795 
L 987.567149 97.088748 
L 986.905752 97.118309 
L 986.905752 96.484643 
L 986.839613 96.487554 
L 986.773473 96.490465 
L 986.707334 95.225174 
L 985.781379 95.264633 
L 985.781379 94.947125 
L 985.715239 94.949922 
L 984.987703 94.980725 
L 984.987703 94.662878 
L 984.921563 94.665656 
L 984.657005 94.676775 
L 984.657005 94.358758 
L 984.590865 94.361515 
L 984.458586 94.367029 
L 984.458586 93.730704 
L 984.392446 93.733413 
L 983.929469 93.752391 
L 983.929469 93.433961 
L 983.863329 93.43665 
L 983.135793 93.466251 
L 983.135793 93.147481 
L 983.069653 93.15015 
L 983.003514 93.15282 
L 983.003514 92.515036 
L 982.937374 92.517657 
L 981.283883 92.583322 
L 981.217743 91.946657 
L 980.225649 91.98545 
L 980.225649 91.665361 
L 980.159509 91.667926 
L 979.894951 91.678189 
L 979.894951 91.357928 
L 979.828811 91.36047 
L 978.770577 91.401201 
L 978.770577 91.080473 
L 978.704437 91.082997 
L 977.513924 91.128504 
L 977.513924 90.807257 
L 977.447784 90.809764 
L 976.720248 90.837369 
L 976.720248 90.515777 
L 976.654108 90.518264 
L 973.479405 90.638101 
L 973.479405 89.992332 
L 973.413266 89.994788 
L 971.958194 90.048923 
L 971.958194 89.725388 
L 971.892054 89.727828 
L 968.91577 89.838025 
L 968.849631 89.1909 
L 967.989815 89.222228 
L 967.989815 88.897031 
L 967.923676 88.899419 
L 965.608788 88.983206 
L 965.608788 88.657046 
L 965.542649 88.659421 
L 965.145811 88.673681 
L 965.145811 88.347291 
L 965.079671 88.349643 
L 963.029342 88.422752 
L 963.029342 88.095493 
L 962.963203 88.097832 
L 961.971108 88.132956 
L 961.971108 87.805236 
L 961.904968 87.807554 
L 960.185338 87.867975 
L 960.185338 87.539507 
L 960.119198 87.54181 
L 959.391662 87.567167 
L 959.391662 87.238338 
L 959.325522 87.240619 
L 958.00273 87.286326 
L 958.00273 86.9569 
L 957.93659 86.959164 
L 957.076775 86.988618 
L 957.076775 86.658776 
L 957.010635 86.661018 
L 954.695748 86.73972 
L 954.695748 86.408887 
L 954.629608 86.411116 
L 944.510243 86.756374 
L 944.510243 86.421405 
L 944.444103 86.423663 
L 943.848847 86.444 
L 943.848847 86.108709 
L 943.782707 86.110943 
L 942.526054 86.153468 
L 942.526054 85.817585 
L 942.459914 85.8198 
L 937.102603 86.000395 
L 937.102603 85.66223 
L 937.036464 85.664447 
L 931.083896 85.865476 
L 931.083896 85.524748 
L 931.017756 85.526971 
L 926.5864 85.676718 
L 926.5864 85.334035 
L 926.520261 85.336254 
L 919.31104 85.580393 
L 919.31104 85.234535 
L 919.2449 85.236767 
L 917.260711 85.303892 
L 917.260711 84.957087 
L 917.194571 84.959301 
L 914.019869 85.066035 
L 914.019869 84.717756 
L 913.953729 84.71996 
L 911.175864 84.812852 
L 911.175864 84.463263 
L 911.109725 84.465453 
L 906.876788 84.606415 
L 906.876788 84.254856 
L 906.810648 84.257042 
L 904.165062 84.344749 
L 904.165062 83.991915 
L 904.098923 83.994085 
L 903.040688 84.028864 
L 903.040688 83.675463 
L 902.974549 83.67761 
L 899.932125 83.776766 
L 899.932125 83.421895 
L 899.865986 83.424029 
L 893.714999 83.624107 
L 893.714999 83.26632 
L 893.648859 83.268459 
L 891.929229 83.32418 
L 891.929229 82.965504 
L 891.863089 82.967621 
L 890.606436 83.007921 
L 890.606436 82.648566 
L 890.540296 82.65066 
L 890.341877 82.656943 
L 890.341877 82.297403 
L 890.275738 82.299467 
L 890.143459 82.303597 
L 890.143459 81.943901 
L 890.077319 81.945936 
L 889.085224 81.976495 
L 889.085224 81.616241 
L 889.019085 81.61825 
L 884.38931 81.759756 
L 884.38931 81.397222 
L 884.32317 81.399225 
L 881.809864 81.475583 
L 881.809864 81.111756 
L 881.743724 81.11374 
L 881.413026 81.123669 
L 881.413026 80.759587 
L 881.346886 80.761542 
L 879.296558 80.822318 
L 879.296558 80.457155 
L 879.230418 80.459089 
L 878.172184 80.490082 
L 878.172184 80.124312 
L 878.106044 80.12622 
L 874.269945 80.237456 
L 874.269945 79.869723 
L 874.203805 79.871619 
L 873.013292 79.905796 
L 872.947152 79.170741 
L 870.499985 79.238939 
L 870.499985 78.869157 
L 869.904729 78.885519 
L 869.904729 78.515377 
L 869.838589 78.517164 
L 863.290765 78.695649 
L 863.290765 78.322134 
L 863.224625 78.32392 
L 861.240436 78.37764 
L 861.240436 78.003021 
L 861.174296 78.004783 
L 849.864418 78.310844 
L 849.864418 77.930292 
L 849.798278 77.932075 
L 848.210927 77.974973 
L 848.210927 77.593484 
L 848.144787 77.595241 
L 847.086553 77.623392 
L 847.086553 77.24124 
L 847.020413 77.242967 
L 832.072854 77.641641 
L 832.072854 77.25132 
L 832.006715 77.253085 
L 830.088665 77.304419 
L 830.088665 76.912928 
L 830.022525 76.914667 
L 817.191435 77.258232 
L 817.191435 76.859385 
L 817.125296 76.861151 
L 816.133201 76.887682 
L 816.133201 76.488148 
L 816.067061 76.489882 
L 805.683138 76.766191 
L 805.683138 76.360455 
L 805.616998 76.362203 
L 790.140322 76.780741 
L 790.140322 76.365455 
L 790.074183 76.367245 
L 785.642827 76.487947 
L 785.642827 76.069753 
L 785.576687 76.071525 
L 782.798822 76.146272 
L 782.798822 75.726187 
L 782.732683 75.727933 
L 775.655741 75.916727 
L 775.655741 75.491948 
L 775.589601 75.493689 
L 767.983543 75.696268 
L 767.983543 75.266336 
L 767.917403 75.268074 
L 753.366682 75.659464 
L 753.366682 75.219442 
L 753.300543 75.221216 
L 751.184074 75.278192 
L 751.184074 74.836543 
L 751.117934 74.838283 
L 749.861281 74.871415 
L 749.861281 74.428737 
L 749.795142 74.430438 
L 748.869187 74.454284 
L 748.869187 74.010808 
L 748.803047 74.012467 
L 745.562205 74.094193 
L 745.562205 73.648257 
L 745.496065 73.649887 
L 736.897912 73.864702 
L 736.897912 73.41235 
L 736.831772 73.413977 
L 728.498177 73.621843 
L 728.498177 73.163089 
L 728.432038 73.164712 
L 727.043105 73.198866 
L 727.043105 72.738901 
L 726.976966 72.740481 
L 726.381709 72.754714 
L 726.381709 72.294141 
L 726.315569 72.295673 
L 726.11715 72.300273 
L 726.11715 71.839394 
L 726.051011 71.840877 
L 720.825979 71.959086 
L 720.825979 71.494004 
L 720.759839 71.495462 
L 718.114254 71.554047 
L 718.114254 71.08673 
L 718.048114 71.088149 
L 717.717416 71.095249 
L 717.717416 70.627513 
L 717.651276 70.628882 
L 716.98988 70.642586 
L 716.857601 70.176808 
L 703.497393 70.449658 
L 703.497393 69.970176 
L 703.431254 69.971503 
L 675.321907 70.564656 
L 675.321907 70.060428 
L 675.255767 70.061835 
L 632.066582 71.059335 
L 632.066582 70.511795 
L 632.000442 70.513382 
L 622.542473 70.744708 
L 622.542473 70.186497 
L 622.476334 70.188071 
L 620.029167 70.246619 
L 620.029167 69.685411 
L 619.963028 69.686926 
L 619.037073 69.708181 
L 619.037073 69.145688 
L 618.970933 69.147134 
L 617.515861 69.179036 
L 617.515861 68.614646 
L 617.449721 68.616024 
L 597.872388 69.041124 
L 597.872388 68.452998 
L 597.806248 68.454412 
L 588.612838 68.654854 
L 588.612838 68.054743 
L 588.546698 68.056128 
L 579.08873 68.258364 
L 579.08873 67.645409 
L 579.02259 67.646764 
L 568.903225 67.858768 
L 568.903225 67.231469 
L 568.837085 67.232792 
L 567.646572 67.256685 
L 567.646572 66.627403 
L 567.580432 66.62864 
L 565.331685 66.670904 
L 565.331685 66.038098 
L 565.265545 66.039252 
L 537.420756 66.558243 
L 537.420756 65.88205 
L 537.354617 65.883257 
L 513.478206 66.346395 
L 513.478206 65.62791 
L 513.412067 65.62915 
L 478.622616 66.346123 
L 478.622616 65.555803 
L 478.556476 65.557153 
L 462.616823 65.89805 
L 462.616823 65.069521 
L 462.550683 65.070839 
L 456.994954 65.183474 
L 456.994954 64.340412 
L 456.928814 64.341606 
L 456.531976 64.348779 
L 456.531976 63.504184 
L 456.465836 63.505211 
L 449.918012 63.608948 
L 449.918012 62.746587 
L 449.851872 62.747478 
L 448.661359 62.76359 
L 448.661359 61.897478 
L 448.595219 61.898197 
L 440.327764 61.99051 
L 440.327764 61.100809 
L 440.261625 61.101378 
L 421.610246 61.272121 
L 421.610246 60.324988 
L 421.544106 60.325417 
L 420.353593 60.333186 
L 420.353593 59.381526 
L 420.287453 59.381742 
L 359.637403 59.633115 
L 359.637403 58.429432 
L 359.571263 58.429432 
L 129.934432 58.429432 
L 129.934432 58.429432 
" clip-path="url(#pc2e49e26c1)" style="fill: none; stroke: #2ca02c; stroke-width: 2; stroke-linecap: square"/>
   </g>
   <g id="line2d_17">
    <path d="M 1024.473068 155.489544 
L 1024.338105 150.078318 
L 1024.270623 150.085082 
L 1024.135659 150.098612 
L 1024.135659 149.796706 
L 1024.135659 149.494755 
L 1024.135659 148.890719 
L 1024.000696 148.904079 
L 1023.79825 148.924127 
L 1023.79825 148.621933 
L 1023.79825 148.017411 
L 1023.663287 147.728278 
L 1023.663287 147.425862 
L 1023.663287 147.123401 
L 1023.595805 147.129956 
L 1023.325878 146.853572 
L 1023.258396 146.860111 
L 1023.190914 146.261198 
L 1023.123432 146.267694 
L 1023.123432 145.662019 
L 1023.123432 145.056165 
L 1022.988469 145.068985 
L 1022.988469 144.765947 
L 1022.920987 144.469231 
L 1022.786023 144.481969 
L 1022.516096 143.900848 
L 1022.381133 143.91351 
L 1022.313651 143.616404 
L 1022.246169 143.319211 
L 1022.111205 142.724559 
L 1021.90876 142.439555 
L 1021.638833 140.944608 
L 1021.503869 139.435637 
L 1021.368906 139.14324 
L 1021.233942 139.155226 
L 1021.16646 137.94281 
L 1021.098979 136.729494 
L 1020.896533 136.746952 
L 1020.76157 136.453565 
L 1020.559124 134.639434 
L 1020.424161 134.345314 
L 1020.289197 133.745469 
L 1020.154233 132.839489 
L 1019.951788 131.632285 
L 1019.951788 130.713934 
L 1019.479416 128.91278 
L 1019.142007 128.325525 
L 1018.939561 127.113257 
L 1018.669634 125.904762 
L 1018.602152 125.294976 
L 1018.197262 124.709685 
L 1017.859853 123.502902 
L 1017.859853 123.194894 
L 1017.522444 122.602752 
L 1016.847626 122.033809 
L 1016.375253 120.52303 
L 1015.970362 119.314275 
L 1015.565472 118.722798 
L 1015.228063 117.816393 
L 1014.890654 117.218882 
L 1014.553245 116.000309 
L 1014.01339 115.103425 
L 1013.068645 114.541314 
L 1013.068645 114.230285 
L 1012.461309 113.645559 
L 1012.326346 113.342468 
L 1010.97671 112.177454 
L 1010.099446 112.230336 
L 1009.49211 111.641684 
L 1008.952256 111.673949 
L 1008.142474 110.782673 
L 1006.590393 109.304299 
L 1006.590393 108.990176 
L 1005.443203 108.741052 
L 1004.161049 108.18376 
L 1002.946376 107.305231 
L 1001.326813 106.129465 
L 999.774732 104.627824 
L 997.277906 104.441147 
L 994.713598 103.299114 
L 990.732172 101.899865 
L 981.959539 101.04526 
L 962.727228 99.362974 
L 895.3804 98.591448 
L 895.3804 97.144533 
L 626.870349 98.91826 
L 626.870349 93.900087 
L 210.845101 190.159844 
L 210.845101 167.13055 
L 136.480166 552.618068 
L 136.480166 377.027234 
L 136.345202 267.50924 
L 136.345202 186.437477 
L 135.940311 58.429432 
L 130.069395 58.429432 
L 129.934432 58.429432 
" clip-path="url(#pc2e49e26c1)" style="fill: none; stroke: #d62728; stroke-width: 2; stroke-linecap: square"/>
   </g>
   <g id="patch_3">
    <path d="M 85.2075 577.3275 
L 85.2075 33.72 
" style="fill: none; stroke: #000000; stroke-width: 0.8; stroke-linejoin: miter; stroke-linecap: square"/>
   </g>
   <g id="patch_4">
    <path d="M 1069.2 577.3275 
L 1069.2 33.72 
" style="fill: none; stroke: #000000; stroke-width: 0.8; stroke-linejoin: miter; stroke-linecap: square"/>
   </g>
   <g id="patch_5">
    <path d="M 85.2075 577.3275 
L 1069.2 577.3275 
" style="fill: none; stroke: #000000; stroke-width: 0.8; stroke-linejoin: miter; stroke-linecap: square"/>
   </g>
   <g id="patch_6">
    <path d="M 85.2075 33.72 
L 1069.2 33.72 
" style="fill: none; stroke: #000000; stroke-width: 0.8; stroke-linejoin: miter; stroke-linecap: square"/>
   </g>
   <g id="text_16">
    <!-- Precision-Recall Curve (Machine) -->
    <g transform="translate(415.089531 27.72) scale(0.22 -0.22)">
     <defs>
      <path id="CMUSerif-Roman-2d" d="M 63 1191 
L 63 1569 
L 1766 1569 
L 1766 1191 
L 63 1191 
z
" transform="scale(0.015625)"/>
      <path id="CMUSerif-Roman-20" transform="scale(0.015625)"/>
      <path id="CMUSerif-Roman-43" d="M 359 2188 
Q 359 3153 1018 3833 
Q 1678 4513 2584 4513 
Q 2866 4513 3116 4409 
Q 3366 4306 3481 4217 
Q 3597 4128 3763 3963 
L 4084 4434 
Q 4134 4513 4186 4513 
Q 4238 4513 4247 4483 
Q 4256 4453 4256 4359 
L 4256 2841 
Q 4256 2738 4243 2713 
Q 4231 2688 4153 2688 
Q 4091 2688 4077 2706 
Q 4063 2725 4050 2797 
Q 3953 3488 3570 3900 
Q 3188 4313 2656 4313 
Q 2503 4313 2333 4278 
Q 2163 4244 1917 4112 
Q 1672 3981 1483 3764 
Q 1294 3547 1156 3136 
Q 1019 2725 1019 2181 
Q 1019 1644 1156 1231 
Q 1294 819 1483 605 
Q 1672 391 1917 259 
Q 2163 128 2336 92 
Q 2509 56 2663 56 
Q 3213 56 3634 447 
Q 4056 838 4097 1497 
Q 4103 1528 4103 1542 
Q 4103 1556 4109 1572 
Q 4116 1588 4131 1594 
Q 4147 1600 4172 1600 
Q 4256 1600 4256 1491 
Q 4256 881 3789 370 
Q 3322 -141 2584 -141 
Q 1675 -141 1017 534 
Q 359 1209 359 2188 
z
" transform="scale(0.015625)"/>
      <path id="CMUSerif-Roman-75" d="M 206 2559 
L 206 2759 
L 1147 2828 
L 1147 703 
Q 1147 550 1159 461 
Q 1172 372 1223 269 
Q 1275 166 1395 119 
Q 1516 72 1709 72 
Q 2056 72 2270 356 
Q 2484 641 2484 1063 
L 2484 2203 
Q 2484 2441 2400 2500 
Q 2316 2559 1984 2559 
L 1984 2759 
L 2925 2828 
L 2925 556 
Q 2925 319 3008 258 
Q 3091 197 3425 197 
L 3425 0 
L 2503 -72 
L 2503 506 
Q 2234 -69 1678 -72 
Q 1397 -72 1205 0 
Q 1013 72 916 161 
Q 819 250 767 422 
Q 716 594 709 700 
Q 703 806 703 1013 
L 703 1972 
Q 703 2406 640 2482 
Q 578 2559 206 2559 
z
" transform="scale(0.015625)"/>
      <path id="CMUSerif-Roman-76" d="M 122 2559 
L 122 2759 
Q 409 2741 744 2741 
Q 866 2741 1441 2759 
L 1441 2559 
Q 1075 2559 1075 2394 
Q 1075 2369 1113 2284 
L 1831 500 
L 2484 2131 
Q 2522 2241 2522 2284 
Q 2522 2394 2448 2473 
Q 2375 2553 2216 2559 
L 2216 2759 
Q 2541 2741 2772 2741 
Q 3034 2741 3250 2759 
L 3250 2559 
Q 3059 2559 2925 2473 
Q 2791 2388 2748 2314 
Q 2706 2241 2663 2131 
L 1825 50 
Q 1775 -72 1691 -72 
Q 1634 -72 1611 -48 
Q 1588 -25 1556 50 
L 634 2322 
Q 572 2481 490 2520 
Q 409 2559 122 2559 
z
" transform="scale(0.015625)"/>
      <path id="CMUSerif-Roman-28" d="M 634 1600 
Q 634 2681 1038 3553 
Q 1209 3919 1450 4225 
Q 1691 4531 1850 4665 
Q 2009 4800 2053 4800 
Q 2116 4800 2119 4738 
Q 2119 4706 2034 4628 
Q 1003 3578 1006 1600 
Q 1006 -384 2009 -1394 
Q 2119 -1503 2119 -1538 
Q 2119 -1600 2053 -1600 
Q 2009 -1600 1856 -1472 
Q 1703 -1344 1465 -1050 
Q 1228 -756 1056 -397 
Q 634 475 634 1600 
z
" transform="scale(0.015625)"/>
      <path id="CMUSerif-Roman-4d" d="M 238 0 
L 238 197 
Q 469 197 616 242 
Q 763 288 817 373 
Q 872 459 884 517 
Q 897 575 897 672 
L 897 3872 
Q 897 4056 817 4114 
Q 738 4172 391 4172 
L 238 4172 
L 238 4372 
L 1319 4372 
Q 1434 4372 1465 4351 
Q 1497 4331 1544 4231 
L 2931 647 
L 4331 4250 
Q 4363 4341 4392 4356 
Q 4422 4372 4544 4372 
L 5625 4372 
L 5625 4172 
L 5472 4172 
Q 5125 4172 5045 4114 
Q 4966 4056 4966 3872 
L 4966 500 
Q 4966 316 5045 256 
Q 5125 197 5472 197 
L 5625 197 
L 5625 0 
Q 5388 19 4709 19 
Q 4025 19 3788 0 
L 3788 197 
L 3944 197 
Q 4291 197 4369 255 
Q 4447 313 4447 500 
L 4447 4172 
L 4441 4172 
L 2869 122 
Q 2825 0 2753 0 
Q 2675 0 2625 141 
L 1081 4122 
L 1075 4122 
L 1075 672 
Q 1075 575 1087 517 
Q 1100 459 1154 373 
Q 1209 288 1356 242 
Q 1503 197 1734 197 
L 1734 0 
Q 1063 19 986 19 
Q 909 19 238 0 
z
" transform="scale(0.015625)"/>
      <path id="CMUSerif-Roman-68" d="M 206 0 
L 206 197 
Q 547 197 625 239 
Q 703 281 703 488 
L 703 3816 
Q 703 4053 620 4112 
Q 538 4172 206 4172 
L 206 4372 
L 1125 4441 
L 1125 2216 
L 1131 2216 
Q 1234 2447 1465 2637 
Q 1697 2828 2053 2828 
Q 2534 2828 2725 2591 
Q 2866 2431 2895 2253 
Q 2925 2075 2925 1613 
L 2925 391 
Q 2931 256 3034 226 
Q 3138 197 3425 197 
L 3425 0 
Q 2772 19 2706 19 
Q 2656 19 1984 0 
L 1984 197 
Q 2325 197 2404 239 
Q 2484 281 2484 488 
L 2484 1978 
Q 2484 2303 2384 2495 
Q 2284 2688 2009 2688 
Q 1678 2688 1412 2409 
Q 1147 2131 1147 1663 
L 1147 488 
Q 1147 281 1226 239 
Q 1306 197 1644 197 
L 1644 0 
Q 991 19 928 19 
Q 878 19 206 0 
z
" transform="scale(0.015625)"/>
      <path id="CMUSerif-Roman-29" d="M 366 -1538 
Q 366 -1506 447 -1428 
Q 1478 -378 1478 1600 
Q 1478 3584 488 4588 
Q 366 4703 366 4738 
Q 366 4800 428 4800 
Q 472 4800 626 4672 
Q 781 4544 1017 4250 
Q 1253 3956 1428 3597 
Q 1850 2725 1850 1600 
Q 1850 519 1447 -353 
Q 1275 -719 1034 -1025 
Q 794 -1331 634 -1465 
Q 475 -1600 428 -1600 
Q 366 -1600 366 -1538 
z
" transform="scale(0.015625)"/>
     </defs>
     <use xlink:href="#CMUSerif-Roman-50"/>
     <use xlink:href="#CMUSerif-Roman-72" x="67.96875"/>
     <use xlink:href="#CMUSerif-Roman-65" x="107.03125"/>
     <use xlink:href="#CMUSerif-Roman-63" x="151.416016"/>
     <use xlink:href="#CMUSerif-Roman-69" x="195.800781"/>
     <use xlink:href="#CMUSerif-Roman-73" x="223.486328"/>
     <use xlink:href="#CMUSerif-Roman-69" x="262.841797"/>
     <use xlink:href="#CMUSerif-Roman-6f" x="290.527344"/>
     <use xlink:href="#CMUSerif-Roman-6e" x="340.527344"/>
     <use xlink:href="#CMUSerif-Roman-2d" x="395.996094"/>
     <use xlink:href="#CMUSerif-Roman-52" x="429.248047"/>
     <use xlink:href="#CMUSerif-Roman-65" x="502.832031"/>
     <use xlink:href="#CMUSerif-Roman-63" x="547.216797"/>
     <use xlink:href="#CMUSerif-Roman-61" x="591.601562"/>
     <use xlink:href="#CMUSerif-Roman-6c" x="641.601562"/>
     <use xlink:href="#CMUSerif-Roman-6c" x="669.287109"/>
     <use xlink:href="#CMUSerif-Roman-20" x="696.972656"/>
     <use xlink:href="#CMUSerif-Roman-43" x="730.224609"/>
     <use xlink:href="#CMUSerif-Roman-75" x="802.392578"/>
     <use xlink:href="#CMUSerif-Roman-72" x="857.861328"/>
     <use xlink:href="#CMUSerif-Roman-76" x="896.923828"/>
     <use xlink:href="#CMUSerif-Roman-65" x="949.609375"/>
     <use xlink:href="#CMUSerif-Roman-20" x="993.994141"/>
     <use xlink:href="#CMUSerif-Roman-28" x="1027.246094"/>
     <use xlink:href="#CMUSerif-Roman-4d" x="1066.015625"/>
     <use xlink:href="#CMUSerif-Roman-61" x="1157.568359"/>
     <use xlink:href="#CMUSerif-Roman-63" x="1207.568359"/>
     <use xlink:href="#CMUSerif-Roman-68" x="1251.953125"/>
     <use xlink:href="#CMUSerif-Roman-69" x="1307.421875"/>
     <use xlink:href="#CMUSerif-Roman-6e" x="1335.107422"/>
     <use xlink:href="#CMUSerif-Roman-65" x="1390.576172"/>
     <use xlink:href="#CMUSerif-Roman-29" x="1434.960938"/>
    </g>
   </g>
   <g id="legend_1">
    <g id="line2d_18">
     <path d="M 826.621875 475.846875 
L 844.621875 475.846875 
L 862.621875 475.846875 
" style="fill: none; stroke: #ff7f0e; stroke-width: 2; stroke-linecap: square"/>
    </g>
    <g id="text_17">
     <!-- Textract -->
     <g transform="translate(877.021875 482.146875) scale(0.18 -0.18)">
      <defs>
       <path id="CMUSerif-Roman-54" d="M 231 2894 
L 353 4331 
L 4263 4331 
L 4384 2894 
L 4225 2894 
Q 4200 3181 4176 3347 
Q 4153 3513 4098 3670 
Q 4044 3828 3976 3904 
Q 3909 3981 3781 4042 
Q 3653 4103 3487 4118 
Q 3322 4134 3072 4134 
Q 2778 4134 2706 4122 
Q 2628 4103 2609 4048 
Q 2591 3994 2591 3878 
L 2591 506 
Q 2591 378 2617 326 
Q 2644 275 2791 236 
Q 2938 197 3263 197 
L 3519 197 
L 3519 0 
Q 3256 19 2303 19 
Q 1356 19 1094 0 
L 1094 197 
L 1350 197 
Q 1675 197 1823 236 
Q 1972 275 1997 326 
Q 2022 378 2022 506 
L 2022 3878 
Q 2022 3969 2015 4006 
Q 2009 4044 1981 4076 
Q 1953 4109 1889 4121 
Q 1825 4134 1544 4134 
Q 1294 4134 1126 4118 
Q 959 4103 831 4042 
Q 703 3981 636 3904 
Q 569 3828 514 3670 
Q 459 3513 437 3347 
Q 416 3181 391 2894 
L 231 2894 
z
" transform="scale(0.015625)"/>
       <path id="CMUSerif-Roman-78" d="M 78 0 
L 78 197 
Q 578 197 897 581 
Q 897 581 1497 1344 
L 863 2169 
Q 638 2456 539 2507 
Q 441 2559 109 2559 
L 109 2759 
Q 372 2741 716 2741 
Q 906 2741 1409 2759 
L 1409 2559 
Q 1184 2547 1184 2400 
Q 1184 2350 1241 2284 
L 1741 1638 
L 2138 2138 
Q 2234 2253 2234 2363 
Q 2234 2541 2047 2559 
L 2047 2759 
Q 2297 2741 2663 2741 
Q 2938 2741 3188 2759 
L 3188 2559 
Q 2700 2547 2425 2228 
Q 2303 2094 1838 1503 
L 2694 397 
Q 2797 263 2912 230 
Q 3028 197 3303 197 
L 3303 0 
Q 3016 19 2688 19 
Q 2572 19 1997 0 
L 1997 197 
Q 2113 203 2170 254 
Q 2228 306 2228 359 
Q 2228 384 2094 569 
L 1606 1209 
Q 1119 634 1056 500 
Q 1031 444 1031 397 
Q 1031 225 1216 197 
L 1216 0 
Q 756 19 609 19 
Q 328 19 78 0 
z
" transform="scale(0.015625)"/>
       <path id="CMUSerif-Roman-74" d="M 122 2559 
L 122 2700 
Q 416 2713 611 2920 
Q 806 3128 873 3384 
Q 941 3641 947 3938 
L 1106 3938 
L 1106 2759 
L 2022 2759 
L 2022 2559 
L 1106 2559 
L 1106 781 
Q 1106 91 1538 91 
Q 1722 91 1844 280 
Q 1966 469 1966 806 
L 1966 1159 
L 2125 1159 
L 2125 794 
Q 2125 447 1965 187 
Q 1806 -72 1491 -72 
Q 1375 -72 1261 -42 
Q 1147 -13 998 64 
Q 850 141 758 330 
Q 666 519 666 794 
L 666 2559 
L 122 2559 
z
" transform="scale(0.015625)"/>
      </defs>
      <use xlink:href="#CMUSerif-Roman-54"/>
      <use xlink:href="#CMUSerif-Roman-65" x="72.167969"/>
      <use xlink:href="#CMUSerif-Roman-78" x="116.552734"/>
      <use xlink:href="#CMUSerif-Roman-74" x="169.238281"/>
      <use xlink:href="#CMUSerif-Roman-72" x="208.007812"/>
      <use xlink:href="#CMUSerif-Roman-61" x="247.070312"/>
      <use xlink:href="#CMUSerif-Roman-63" x="297.070312"/>
      <use xlink:href="#CMUSerif-Roman-74" x="341.455078"/>
     </g>
    </g>
    <g id="line2d_19">
     <path d="M 826.621875 500.937187 
L 844.621875 500.937187 
L 862.621875 500.937187 
" style="fill: none; stroke: #1f77b4; stroke-width: 2; stroke-linecap: square"/>
    </g>
    <g id="text_18">
     <!-- Document Intelligence -->
     <g transform="translate(877.021875 507.237188) scale(0.18 -0.18)">
      <defs>
       <path id="CMUSerif-Roman-44" d="M 225 0 
L 225 197 
L 378 197 
Q 725 197 804 255 
Q 884 313 884 500 
L 884 3872 
Q 884 4056 803 4114 
Q 722 4172 378 4172 
L 225 4172 
L 225 4372 
L 2566 4372 
Q 3384 4372 3954 3719 
Q 4525 3066 4525 2150 
Q 4525 1253 3951 626 
Q 3378 0 2566 0 
L 225 0 
z
M 1434 453 
Q 1434 288 1481 242 
Q 1528 197 1747 197 
L 2394 197 
Q 2816 197 3100 370 
Q 3384 544 3531 744 
Q 3884 1225 3884 2150 
Q 3884 3122 3553 3578 
Q 3125 4172 2388 4172 
L 1747 4172 
Q 1528 4172 1481 4128 
Q 1434 4084 1434 3916 
L 1434 453 
z
" transform="scale(0.015625)"/>
       <path id="CMUSerif-Roman-6d" d="M 206 0 
L 206 197 
Q 547 197 625 239 
Q 703 281 703 488 
L 703 2203 
Q 703 2441 620 2500 
Q 538 2559 206 2559 
L 206 2759 
L 1106 2828 
L 1106 2156 
Q 1406 2828 2053 2828 
Q 2803 2828 2906 2203 
Q 3016 2447 3245 2637 
Q 3475 2828 3834 2828 
Q 4316 2828 4506 2591 
Q 4647 2431 4675 2253 
Q 4703 2075 4703 1613 
L 4703 391 
Q 4709 256 4812 226 
Q 4916 197 5203 197 
L 5203 0 
Q 4550 19 4488 19 
Q 4438 19 3763 0 
L 3763 197 
Q 4103 197 4183 239 
Q 4263 281 4263 488 
L 4263 1978 
Q 4263 2303 4163 2495 
Q 4063 2688 3788 2688 
Q 3456 2688 3190 2409 
Q 2925 2131 2925 1663 
L 2925 488 
Q 2925 281 3004 239 
Q 3084 197 3425 197 
L 3425 0 
Q 2772 19 2706 19 
Q 2656 19 1984 0 
L 1984 197 
Q 2325 197 2404 239 
Q 2484 281 2484 488 
L 2484 1978 
Q 2484 2303 2384 2495 
Q 2284 2688 2009 2688 
Q 1678 2688 1412 2409 
Q 1147 2131 1147 1663 
L 1147 488 
Q 1147 281 1226 239 
Q 1306 197 1644 197 
L 1644 0 
Q 991 19 928 19 
Q 878 19 206 0 
z
" transform="scale(0.015625)"/>
       <path id="CMUSerif-Roman-49" d="M 178 0 
L 178 197 
L 347 197 
Q 706 197 789 255 
Q 872 313 872 500 
L 872 3872 
Q 872 4056 787 4114 
Q 703 4172 347 4172 
L 178 4172 
L 178 4372 
Q 403 4353 1159 4353 
Q 1909 4353 2131 4372 
L 2131 4172 
L 1966 4172 
Q 1606 4172 1523 4114 
Q 1441 4056 1441 3872 
L 1441 500 
Q 1441 316 1523 256 
Q 1606 197 1966 197 
L 2131 197 
L 2131 0 
Q 1906 19 1153 19 
Q 403 19 178 0 
z
" transform="scale(0.015625)"/>
       <path id="CMUSerif-Roman-67" d="M 178 -506 
Q 178 -300 336 -122 
Q 494 56 769 134 
Q 488 313 488 703 
Q 488 1003 684 1234 
Q 384 1484 384 1894 
Q 384 2272 684 2550 
Q 984 2828 1422 2828 
Q 1806 2828 2100 2597 
Q 2406 2897 2778 2900 
Q 2944 2900 3023 2797 
Q 3103 2694 3103 2584 
Q 3103 2488 3042 2441 
Q 2981 2394 2919 2394 
Q 2841 2394 2786 2445 
Q 2731 2497 2731 2578 
Q 2731 2713 2834 2753 
Q 2816 2759 2772 2759 
Q 2459 2759 2194 2509 
Q 2456 2266 2456 1887 
Q 2456 1509 2156 1231 
Q 1856 953 1422 953 
Q 1063 953 788 1153 
Q 678 1025 678 850 
Q 678 691 775 566 
Q 872 441 1019 422 
Q 1063 416 1497 416 
Q 1753 416 1893 409 
Q 2034 403 2236 361 
Q 2438 319 2597 238 
Q 3013 6 3016 -494 
Q 3016 -859 2595 -1089 
Q 2175 -1319 1594 -1319 
Q 1006 -1319 592 -1086 
Q 178 -853 178 -506 
z
M 513 -506 
Q 513 -769 822 -970 
Q 1131 -1172 1600 -1172 
Q 2059 -1172 2370 -973 
Q 2681 -775 2681 -506 
Q 2681 -316 2572 -194 
Q 2463 -72 2239 -23 
Q 2016 25 1859 34 
Q 1703 44 1416 44 
L 1038 44 
Q 819 31 666 -128 
Q 513 -288 513 -506 
z
M 863 1888 
Q 863 1100 1422 1100 
Q 1703 1100 1875 1356 
Q 1978 1528 1978 1894 
Q 1978 2681 1422 2681 
Q 1141 2681 966 2425 
Q 863 2253 863 1888 
z
" transform="scale(0.015625)"/>
      </defs>
      <use xlink:href="#CMUSerif-Roman-44"/>
      <use xlink:href="#CMUSerif-Roman-6f" x="76.269531"/>
      <use xlink:href="#CMUSerif-Roman-63" x="126.269531"/>
      <use xlink:href="#CMUSerif-Roman-75" x="170.654297"/>
      <use xlink:href="#CMUSerif-Roman-6d" x="226.123047"/>
      <use xlink:href="#CMUSerif-Roman-65" x="309.375"/>
      <use xlink:href="#CMUSerif-Roman-6e" x="353.759766"/>
      <use xlink:href="#CMUSerif-Roman-74" x="409.228516"/>
      <use xlink:href="#CMUSerif-Roman-20" x="447.998047"/>
      <use xlink:href="#CMUSerif-Roman-49" x="481.25"/>
      <use xlink:href="#CMUSerif-Roman-6e" x="517.333984"/>
      <use xlink:href="#CMUSerif-Roman-74" x="572.802734"/>
      <use xlink:href="#CMUSerif-Roman-65" x="611.572266"/>
      <use xlink:href="#CMUSerif-Roman-6c" x="655.957031"/>
      <use xlink:href="#CMUSerif-Roman-6c" x="683.642578"/>
      <use xlink:href="#CMUSerif-Roman-69" x="711.328125"/>
      <use xlink:href="#CMUSerif-Roman-67" x="739.013672"/>
      <use xlink:href="#CMUSerif-Roman-65" x="789.013672"/>
      <use xlink:href="#CMUSerif-Roman-6e" x="833.398438"/>
      <use xlink:href="#CMUSerif-Roman-63" x="888.867188"/>
      <use xlink:href="#CMUSerif-Roman-65" x="933.251953"/>
     </g>
    </g>
    <g id="line2d_20">
     <path d="M 826.621875 526.246875 
L 844.621875 526.246875 
L 862.621875 526.246875 
" style="fill: none; stroke: #2ca02c; stroke-width: 2; stroke-linecap: square"/>
    </g>
    <g id="text_19">
     <!-- Document AI -->
     <g transform="translate(877.021875 532.546875) scale(0.18 -0.18)">
      <defs>
       <path id="CMUSerif-Roman-41" d="M 206 0 
L 206 197 
Q 775 209 922 628 
L 2247 4453 
Q 2272 4531 2300 4556 
Q 2328 4581 2400 4581 
Q 2438 4581 2461 4575 
Q 2484 4569 2500 4547 
Q 2516 4525 2522 4512 
Q 2528 4500 2547 4453 
L 3928 453 
Q 3978 294 4081 245 
Q 4184 197 4475 197 
L 4588 197 
L 4588 0 
Q 4184 19 3750 19 
Q 3059 19 2828 0 
L 2828 197 
Q 3359 197 3359 391 
Q 3359 403 3341 481 
L 3003 1459 
L 1422 1459 
L 1125 622 
Q 1113 597 1113 525 
Q 1113 391 1238 294 
Q 1363 197 1594 197 
L 1594 0 
Q 978 19 856 19 
Q 647 19 206 0 
z
M 1491 1656 
L 2931 1656 
L 2209 3738 
L 1491 1656 
z
" transform="scale(0.015625)"/>
      </defs>
      <use xlink:href="#CMUSerif-Roman-44"/>
      <use xlink:href="#CMUSerif-Roman-6f" x="76.269531"/>
      <use xlink:href="#CMUSerif-Roman-63" x="126.269531"/>
      <use xlink:href="#CMUSerif-Roman-75" x="170.654297"/>
      <use xlink:href="#CMUSerif-Roman-6d" x="226.123047"/>
      <use xlink:href="#CMUSerif-Roman-65" x="309.375"/>
      <use xlink:href="#CMUSerif-Roman-6e" x="353.759766"/>
      <use xlink:href="#CMUSerif-Roman-74" x="409.228516"/>
      <use xlink:href="#CMUSerif-Roman-20" x="447.998047"/>
      <use xlink:href="#CMUSerif-Roman-41" x="481.25"/>
      <use xlink:href="#CMUSerif-Roman-49" x="556.25"/>
     </g>
    </g>
    <g id="line2d_21">
     <path d="M 826.621875 551.337188 
L 844.621875 551.337188 
L 862.621875 551.337188 
" style="fill: none; stroke: #d62728; stroke-width: 2; stroke-linecap: square"/>
    </g>
    <g id="text_20">
     <!-- Tesseract -->
     <g transform="translate(877.021875 557.637187) scale(0.18 -0.18)">
      <use xlink:href="#CMUSerif-Roman-54"/>
      <use xlink:href="#CMUSerif-Roman-65" x="72.167969"/>
      <use xlink:href="#CMUSerif-Roman-73" x="116.552734"/>
      <use xlink:href="#CMUSerif-Roman-73" x="155.908203"/>
      <use xlink:href="#CMUSerif-Roman-65" x="195.263672"/>
      <use xlink:href="#CMUSerif-Roman-72" x="239.648438"/>
      <use xlink:href="#CMUSerif-Roman-61" x="278.710938"/>
      <use xlink:href="#CMUSerif-Roman-63" x="328.710938"/>
      <use xlink:href="#CMUSerif-Roman-74" x="373.095703"/>
     </g>
    </g>
   </g>
  </g>
 </g>
 <defs>
  <clipPath id="pc2e49e26c1">
   <rect x="85.2075" y="33.72" width="983.9925" height="543.6075"/>
  </clipPath>
 </defs>
</svg>
