<?xml version="1.0" encoding="utf-8" standalone="no"?>
<!DOCTYPE svg PUBLIC "-//W3C//DTD SVG 1.1//EN"
  "http://www.w3.org/Graphics/SVG/1.1/DTD/svg11.dtd">
<svg xmlns:xlink="http://www.w3.org/1999/xlink" width="720pt" height="720pt" viewBox="0 0 720 720" xmlns="http://www.w3.org/2000/svg" version="1.1">
 <metadata>
  <rdf:RDF xmlns:dc="http://purl.org/dc/elements/1.1/" xmlns:cc="http://creativecommons.org/ns#" xmlns:rdf="http://www.w3.org/1999/02/22-rdf-syntax-ns#">
   <cc:Work>
    <dc:type rdf:resource="http://purl.org/dc/dcmitype/StillImage"/>
    <dc:date>2024-12-14T17:58:00.347087</dc:date>
    <dc:format>image/svg+xml</dc:format>
    <dc:creator>
     <cc:Agent>
      <dc:title>Matplotlib v3.9.3, https://matplotlib.org/</dc:title>
     </cc:Agent>
    </dc:creator>
   </cc:Work>
  </rdf:RDF>
 </metadata>
 <defs>
  <style type="text/css">*{stroke-linejoin: round; stroke-linecap: butt}</style>
 </defs>
 <g id="figure_1">
  <g id="patch_1">
   <path d="M 0 720 
L 720 720 
L 720 0 
L 0 0 
z
" style="fill: #f2f2f2"/>
  </g>
  <g id="axes_1">
   <g id="patch_2">
    <path d="M 77.1975 688.205 
L 709.2 688.205 
L 709.2 33.72 
L 77.1975 33.72 
z
" style="fill: #f2f2f2"/>
   </g>
   <g id="matplotlib.axis_1">
    <g id="xtick_1">
     <g id="line2d_1">
      <defs>
       <path id="mcac36ae46b" d="M 0 0 
L 0 3.5 
" style="stroke: #000000; stroke-width: 0.8"/>
      </defs>
      <g>
       <use xlink:href="#mcac36ae46b" x="153.803864" y="688.205" style="stroke: #000000; stroke-width: 0.8"/>
      </g>
     </g>
     <g id="text_1">
      <!-- autor1 -->
      <g transform="translate(131.140114 706.3075) scale(0.16 -0.16)">
       <defs>
        <path id="CMUSerif-Roman-61" d="M 269 609 
Q 269 1153 909 1441 
Q 1294 1625 2088 1672 
L 2088 1906 
Q 2088 2303 1880 2514 
Q 1672 2725 1409 2725 
Q 941 2725 716 2431 
Q 906 2425 975 2329 
Q 1044 2234 1044 2138 
Q 1044 2009 964 1926 
Q 884 1844 750 1844 
Q 622 1844 537 1923 
Q 453 2003 453 2144 
Q 453 2456 736 2662 
Q 1019 2869 1422 2869 
Q 1947 2869 2297 2516 
Q 2406 2406 2461 2265 
Q 2516 2125 2522 2033 
Q 2528 1941 2528 1759 
L 2528 481 
Q 2528 444 2540 381 
Q 2553 319 2611 239 
Q 2669 159 2766 159 
Q 2997 159 2994 569 
L 2994 928 
L 3156 928 
L 3156 569 
Q 3156 228 2976 95 
Q 2797 -38 2631 -38 
Q 2419 -38 2284 118 
Q 2150 275 2131 488 
Q 2034 244 1814 86 
Q 1594 -72 1294 -72 
Q 1063 -72 845 -14 
Q 628 44 448 205 
Q 269 366 269 609 
z
M 763 616 
Q 763 378 931 225 
Q 1100 72 1338 72 
Q 1606 72 1847 280 
Q 2088 488 2088 897 
L 2088 1538 
Q 1378 1513 1070 1230 
Q 763 947 763 616 
z
" transform="scale(0.015625)"/>
        <path id="CMUSerif-Roman-75" d="M 206 2559 
L 206 2759 
L 1147 2828 
L 1147 703 
Q 1147 550 1159 461 
Q 1172 372 1223 269 
Q 1275 166 1395 119 
Q 1516 72 1709 72 
Q 2056 72 2270 356 
Q 2484 641 2484 1063 
L 2484 2203 
Q 2484 2441 2400 2500 
Q 2316 2559 1984 2559 
L 1984 2759 
L 2925 2828 
L 2925 556 
Q 2925 319 3008 258 
Q 3091 197 3425 197 
L 3425 0 
L 2503 -72 
L 2503 506 
Q 2234 -69 1678 -72 
Q 1397 -72 1205 0 
Q 1013 72 916 161 
Q 819 250 767 422 
Q 716 594 709 700 
Q 703 806 703 1013 
L 703 1972 
Q 703 2406 640 2482 
Q 578 2559 206 2559 
z
" transform="scale(0.015625)"/>
        <path id="CMUSerif-Roman-74" d="M 122 2559 
L 122 2700 
Q 416 2713 611 2920 
Q 806 3128 873 3384 
Q 941 3641 947 3938 
L 1106 3938 
L 1106 2759 
L 2022 2759 
L 2022 2559 
L 1106 2559 
L 1106 781 
Q 1106 91 1538 91 
Q 1722 91 1844 280 
Q 1966 469 1966 806 
L 1966 1159 
L 2125 1159 
L 2125 794 
Q 2125 447 1965 187 
Q 1806 -72 1491 -72 
Q 1375 -72 1261 -42 
Q 1147 -13 998 64 
Q 850 141 758 330 
Q 666 519 666 794 
L 666 2559 
L 122 2559 
z
" transform="scale(0.015625)"/>
        <path id="CMUSerif-Roman-6f" d="M 601 345 
Q 178 763 178 1370 
Q 178 1978 592 2423 
Q 1006 2869 1600 2869 
Q 2181 2869 2598 2426 
Q 3016 1984 3016 1369 
Q 3016 766 2595 347 
Q 2175 -72 1594 -72 
Q 1025 -72 601 345 
z
M 709 1422 
Q 709 800 872 519 
Q 1122 91 1600 91 
Q 1838 91 2036 219 
Q 2234 347 2344 563 
Q 2484 844 2484 1422 
Q 2484 2038 2316 2309 
Q 2066 2725 1594 2725 
Q 1388 2725 1186 2617 
Q 984 2509 863 2297 
Q 709 2016 709 1422 
z
" transform="scale(0.015625)"/>
        <path id="CMUSerif-Roman-72" d="M 178 0 
L 178 197 
Q 519 197 598 239 
Q 678 281 678 488 
L 678 2203 
Q 678 2441 595 2500 
Q 513 2559 178 2559 
L 178 2759 
L 1069 2828 
L 1069 2125 
Q 1159 2400 1351 2614 
Q 1544 2828 1856 2828 
Q 2063 2828 2195 2712 
Q 2328 2597 2328 2438 
Q 2328 2297 2242 2226 
Q 2156 2156 2053 2156 
Q 1938 2156 1858 2229 
Q 1778 2303 1778 2431 
Q 1778 2509 1814 2570 
Q 1850 2631 1878 2653 
Q 1906 2675 1925 2681 
Q 1913 2688 1856 2688 
Q 1503 2688 1301 2336 
Q 1100 1984 1100 1484 
L 1100 500 
Q 1100 316 1176 256 
Q 1253 197 1588 197 
L 1722 197 
L 1722 0 
Q 1466 19 909 19 
Q 831 19 709 16 
Q 588 13 428 6 
Q 269 0 178 0 
z
" transform="scale(0.015625)"/>
        <path id="CMUSerif-Roman-31" d="M 569 3653 
L 569 3853 
Q 1338 3853 1734 4263 
Q 1844 4263 1862 4238 
Q 1881 4213 1881 4097 
L 1881 506 
Q 1881 316 1975 256 
Q 2069 197 2478 197 
L 2681 197 
L 2681 0 
Q 2456 19 1643 19 
Q 831 19 609 0 
L 609 197 
L 813 197 
Q 1216 197 1312 255 
Q 1409 313 1409 506 
L 1409 3822 
Q 1075 3653 569 3653 
z
" transform="scale(0.015625)"/>
       </defs>
       <use xlink:href="#CMUSerif-Roman-61"/>
       <use xlink:href="#CMUSerif-Roman-75" x="50"/>
       <use xlink:href="#CMUSerif-Roman-74" x="105.46875"/>
       <use xlink:href="#CMUSerif-Roman-6f" x="144.238281"/>
       <use xlink:href="#CMUSerif-Roman-72" x="194.238281"/>
       <use xlink:href="#CMUSerif-Roman-31" x="233.300781"/>
      </g>
     </g>
    </g>
    <g id="xtick_2">
     <g id="line2d_2">
      <g>
       <use xlink:href="#mcac36ae46b" x="273.501307" y="688.205" style="stroke: #000000; stroke-width: 0.8"/>
      </g>
     </g>
     <g id="text_2">
      <!-- autor3 -->
      <g transform="translate(250.837557 706.3075) scale(0.16 -0.16)">
       <defs>
        <path id="CMUSerif-Roman-33" d="M 269 863 
Q 269 1053 378 1143 
Q 488 1234 628 1234 
Q 775 1234 879 1139 
Q 984 1044 984 878 
Q 984 700 861 600 
Q 738 500 563 525 
Q 716 269 998 153 
Q 1281 38 1544 38 
Q 1819 38 2042 275 
Q 2266 513 2266 1094 
Q 2266 1588 2073 1872 
Q 1881 2156 1503 2156 
L 1222 2156 
Q 1125 2156 1097 2165 
Q 1069 2175 1069 2228 
Q 1069 2291 1166 2303 
Q 1263 2303 1416 2322 
Q 1788 2334 1984 2656 
Q 2163 2956 2163 3384 
Q 2163 3775 1977 3939 
Q 1791 4103 1550 4103 
Q 1325 4103 1078 4009 
Q 831 3916 697 3706 
Q 1094 3706 1094 3384 
Q 1094 3244 1005 3151 
Q 916 3059 769 3059 
Q 628 3059 534 3148 
Q 441 3238 441 3391 
Q 441 3756 767 4009 
Q 1094 4263 1575 4263 
Q 2050 4263 2401 4013 
Q 2753 3763 2753 3378 
Q 2753 3000 2503 2690 
Q 2253 2381 1856 2253 
Q 2344 2156 2634 1826 
Q 2925 1497 2925 1094 
Q 2925 594 2531 226 
Q 2138 -141 1563 -141 
Q 1031 -141 650 146 
Q 269 434 269 863 
z
" transform="scale(0.015625)"/>
       </defs>
       <use xlink:href="#CMUSerif-Roman-61"/>
       <use xlink:href="#CMUSerif-Roman-75" x="50"/>
       <use xlink:href="#CMUSerif-Roman-74" x="105.46875"/>
       <use xlink:href="#CMUSerif-Roman-6f" x="144.238281"/>
       <use xlink:href="#CMUSerif-Roman-72" x="194.238281"/>
       <use xlink:href="#CMUSerif-Roman-33" x="233.300781"/>
      </g>
     </g>
    </g>
    <g id="xtick_3">
     <g id="line2d_3">
      <g>
       <use xlink:href="#mcac36ae46b" x="393.19875" y="688.205" style="stroke: #000000; stroke-width: 0.8"/>
      </g>
     </g>
     <g id="text_3">
      <!-- autor4 -->
      <g transform="translate(370.535 706.3075) scale(0.16 -0.16)">
       <defs>
        <path id="CMUSerif-Roman-34" d="M 178 1056 
L 178 1253 
L 2144 4256 
Q 2194 4334 2272 4331 
Q 2344 4331 2359 4303 
Q 2375 4275 2375 4166 
L 2375 1253 
L 3016 1253 
L 3016 1056 
L 2375 1056 
L 2375 500 
Q 2375 316 2451 256 
Q 2528 197 2859 197 
L 2994 197 
L 2994 0 
Q 2731 19 2125 19 
Q 1522 19 1259 0 
L 1259 197 
L 1394 197 
Q 1725 197 1803 255 
Q 1881 313 1881 500 
L 1881 1056 
L 178 1056 
z
M 359 1253 
L 1919 1253 
L 1919 3641 
L 359 1253 
z
" transform="scale(0.015625)"/>
       </defs>
       <use xlink:href="#CMUSerif-Roman-61"/>
       <use xlink:href="#CMUSerif-Roman-75" x="50"/>
       <use xlink:href="#CMUSerif-Roman-74" x="105.46875"/>
       <use xlink:href="#CMUSerif-Roman-6f" x="144.238281"/>
       <use xlink:href="#CMUSerif-Roman-72" x="194.238281"/>
       <use xlink:href="#CMUSerif-Roman-34" x="233.300781"/>
      </g>
     </g>
    </g>
    <g id="xtick_4">
     <g id="line2d_4">
      <g>
       <use xlink:href="#mcac36ae46b" x="512.896193" y="688.205" style="stroke: #000000; stroke-width: 0.8"/>
      </g>
     </g>
     <g id="text_4">
      <!-- autor5 -->
      <g transform="translate(490.232443 706.3075) scale(0.16 -0.16)">
       <defs>
        <path id="CMUSerif-Roman-35" d="M 319 1031 
Q 319 1222 422 1295 
Q 525 1369 634 1369 
Q 781 1369 867 1276 
Q 953 1184 953 1056 
Q 953 928 867 836 
Q 781 744 634 744 
Q 563 744 525 756 
Q 609 463 867 250 
Q 1125 38 1466 38 
Q 1894 38 2150 453 
Q 2303 722 2303 1331 
Q 2303 1869 2188 2138 
Q 2009 2547 1644 2547 
Q 1125 2547 819 2100 
Q 781 2044 738 2041 
Q 675 2041 661 2077 
Q 647 2113 647 2209 
L 647 4103 
Q 647 4256 709 4256 
Q 734 4256 788 4238 
Q 1191 4059 1638 4056 
Q 2097 4056 2509 4244 
Q 2541 4263 2559 4263 
Q 2622 4263 2625 4191 
Q 2625 4166 2573 4092 
Q 2522 4019 2412 3923 
Q 2303 3828 2162 3737 
Q 2022 3647 1817 3586 
Q 1613 3525 1388 3525 
Q 1119 3525 844 3609 
L 844 2363 
Q 1175 2688 1656 2688 
Q 2169 2688 2522 2275 
Q 2875 1863 2875 1288 
Q 2875 684 2458 271 
Q 2041 -141 1478 -141 
Q 966 -141 642 225 
Q 319 591 319 1031 
z
" transform="scale(0.015625)"/>
       </defs>
       <use xlink:href="#CMUSerif-Roman-61"/>
       <use xlink:href="#CMUSerif-Roman-75" x="50"/>
       <use xlink:href="#CMUSerif-Roman-74" x="105.46875"/>
       <use xlink:href="#CMUSerif-Roman-6f" x="144.238281"/>
       <use xlink:href="#CMUSerif-Roman-72" x="194.238281"/>
       <use xlink:href="#CMUSerif-Roman-35" x="233.300781"/>
      </g>
     </g>
    </g>
    <g id="xtick_5">
     <g id="line2d_5">
      <g>
       <use xlink:href="#mcac36ae46b" x="632.593636" y="688.205" style="stroke: #000000; stroke-width: 0.8"/>
      </g>
     </g>
     <g id="text_5">
      <!-- autor2 -->
      <g transform="translate(609.929886 706.3075) scale(0.16 -0.16)">
       <defs>
        <path id="CMUSerif-Roman-32" d="M 319 0 
Q 319 116 330 150 
Q 341 184 391 238 
L 1619 1606 
Q 2291 2363 2291 3022 
Q 2291 3450 2067 3756 
Q 1844 4063 1434 4063 
Q 1153 4063 915 3891 
Q 678 3719 569 3413 
Q 588 3419 653 3419 
Q 813 3419 902 3319 
Q 991 3219 991 3084 
Q 991 2913 880 2830 
Q 769 2747 659 2747 
Q 616 2747 558 2756 
Q 500 2766 409 2855 
Q 319 2944 319 3103 
Q 319 3550 658 3906 
Q 997 4263 1516 4263 
Q 2103 4263 2489 3914 
Q 2875 3566 2875 3022 
Q 2875 2831 2817 2657 
Q 2759 2484 2682 2350 
Q 2606 2216 2400 2000 
Q 2194 1784 2028 1631 
Q 1863 1478 1491 1153 
L 813 494 
L 1966 494 
Q 2528 494 2572 544 
Q 2634 634 2713 1113 
L 2875 1113 
L 2694 0 
L 319 0 
z
" transform="scale(0.015625)"/>
       </defs>
       <use xlink:href="#CMUSerif-Roman-61"/>
       <use xlink:href="#CMUSerif-Roman-75" x="50"/>
       <use xlink:href="#CMUSerif-Roman-74" x="105.46875"/>
       <use xlink:href="#CMUSerif-Roman-6f" x="144.238281"/>
       <use xlink:href="#CMUSerif-Roman-72" x="194.238281"/>
       <use xlink:href="#CMUSerif-Roman-32" x="233.300781"/>
      </g>
     </g>
    </g>
   </g>
   <g id="matplotlib.axis_2">
    <g id="ytick_1">
     <g id="line2d_6">
      <defs>
       <path id="m77e44e5c33" d="M 0 0 
L -3.5 0 
" style="stroke: #000000; stroke-width: 0.8"/>
      </defs>
      <g>
       <use xlink:href="#m77e44e5c33" x="77.1975" y="688.205" style="stroke: #000000; stroke-width: 0.8"/>
      </g>
     </g>
     <g id="text_6">
      <!-- 0.0 -->
      <g transform="translate(49.7525 693.75625) scale(0.16 -0.16)">
       <defs>
        <path id="CMUSerif-Roman-30" d="M 250 2047 
Q 250 2988 488 3500 
Q 819 4263 1600 4263 
Q 1766 4263 1939 4217 
Q 2113 4172 2333 4000 
Q 2553 3828 2688 3547 
Q 2944 3003 2944 2047 
Q 2944 1113 2706 603 
Q 2359 -141 1594 -141 
Q 1306 -141 1014 6 
Q 722 153 538 506 
Q 250 1034 250 2047 
z
M 781 2125 
Q 781 1159 850 775 
Q 928 359 1142 179 
Q 1356 0 1594 0 
Q 1850 0 2064 192 
Q 2278 384 2344 800 
Q 2416 1209 2413 2125 
Q 2413 3016 2350 3372 
Q 2266 3788 2042 3955 
Q 1819 4122 1594 4122 
Q 1509 4122 1420 4097 
Q 1331 4072 1203 4000 
Q 1075 3928 976 3750 
Q 878 3572 831 3303 
Q 781 2956 781 2125 
z
" transform="scale(0.015625)"/>
        <path id="CMUSerif-Roman-2e" d="M 641 103 
Q 544 206 544 340 
Q 544 475 641 573 
Q 738 672 884 672 
Q 1025 672 1120 580 
Q 1216 488 1216 339 
Q 1216 191 1114 95 
Q 1013 0 884 0 
Q 738 0 641 103 
z
" transform="scale(0.015625)"/>
       </defs>
       <use xlink:href="#CMUSerif-Roman-30"/>
       <use xlink:href="#CMUSerif-Roman-2e" x="50"/>
       <use xlink:href="#CMUSerif-Roman-30" x="77.783203"/>
      </g>
     </g>
    </g>
    <g id="ytick_2">
     <g id="line2d_7">
      <g>
       <use xlink:href="#m77e44e5c33" x="77.1975" y="559.84876" style="stroke: #000000; stroke-width: 0.8"/>
      </g>
     </g>
     <g id="text_7">
      <!-- 0.2 -->
      <g transform="translate(49.7525 565.40001) scale(0.16 -0.16)">
       <use xlink:href="#CMUSerif-Roman-30"/>
       <use xlink:href="#CMUSerif-Roman-2e" x="50"/>
       <use xlink:href="#CMUSerif-Roman-32" x="77.783203"/>
      </g>
     </g>
    </g>
    <g id="ytick_3">
     <g id="line2d_8">
      <g>
       <use xlink:href="#m77e44e5c33" x="77.1975" y="431.49252" style="stroke: #000000; stroke-width: 0.8"/>
      </g>
     </g>
     <g id="text_8">
      <!-- 0.4 -->
      <g transform="translate(49.7525 437.04377) scale(0.16 -0.16)">
       <use xlink:href="#CMUSerif-Roman-30"/>
       <use xlink:href="#CMUSerif-Roman-2e" x="50"/>
       <use xlink:href="#CMUSerif-Roman-34" x="77.783203"/>
      </g>
     </g>
    </g>
    <g id="ytick_4">
     <g id="line2d_9">
      <g>
       <use xlink:href="#m77e44e5c33" x="77.1975" y="303.13628" style="stroke: #000000; stroke-width: 0.8"/>
      </g>
     </g>
     <g id="text_9">
      <!-- 0.6 -->
      <g transform="translate(49.7525 308.68753) scale(0.16 -0.16)">
       <defs>
        <path id="CMUSerif-Roman-36" d="M 269 2022 
Q 269 3028 781 3645 
Q 1294 4263 1953 4263 
Q 2338 4263 2552 4067 
Q 2766 3872 2766 3572 
Q 2766 3406 2669 3334 
Q 2572 3263 2472 3263 
Q 2356 3263 2265 3341 
Q 2175 3419 2175 3559 
Q 2175 3847 2528 3847 
Q 2363 4103 1966 4103 
Q 1844 4103 1719 4067 
Q 1594 4031 1431 3912 
Q 1269 3794 1144 3606 
Q 1019 3419 931 3066 
Q 844 2713 844 2253 
L 844 2100 
Q 1106 2734 1643 2732 
Q 2181 2731 2553 2322 
Q 2925 1913 2925 1306 
Q 2925 684 2537 271 
Q 2150 -141 1606 -141 
Q 1363 -141 1142 -39 
Q 922 63 717 294 
Q 513 525 391 969 
Q 269 1413 269 2022 
z
M 856 1447 
Q 856 819 972 519 
Q 991 469 1033 400 
Q 1075 331 1148 242 
Q 1222 153 1344 95 
Q 1466 38 1606 38 
Q 2034 38 2241 453 
Q 2350 684 2350 1313 
Q 2350 1953 2234 2188 
Q 2038 2584 1638 2584 
Q 1369 2584 1183 2400 
Q 997 2216 926 1969 
Q 856 1722 856 1447 
z
" transform="scale(0.015625)"/>
       </defs>
       <use xlink:href="#CMUSerif-Roman-30"/>
       <use xlink:href="#CMUSerif-Roman-2e" x="50"/>
       <use xlink:href="#CMUSerif-Roman-36" x="77.783203"/>
      </g>
     </g>
    </g>
    <g id="ytick_5">
     <g id="line2d_10">
      <g>
       <use xlink:href="#m77e44e5c33" x="77.1975" y="174.78004" style="stroke: #000000; stroke-width: 0.8"/>
      </g>
     </g>
     <g id="text_10">
      <!-- 0.8 -->
      <g transform="translate(49.7525 180.33129) scale(0.16 -0.16)">
       <defs>
        <path id="CMUSerif-Roman-38" d="M 269 966 
Q 269 1681 1191 2144 
Q 794 2413 722 2491 
Q 441 2803 441 3194 
Q 441 3641 780 3952 
Q 1119 4263 1600 4263 
Q 2059 4263 2406 3997 
Q 2753 3731 2753 3309 
Q 2753 2716 1978 2316 
Q 2491 1997 2613 1863 
Q 2925 1516 2925 1075 
Q 2925 563 2531 211 
Q 2138 -141 1594 -141 
Q 1063 -141 666 168 
Q 269 478 269 966 
z
M 588 966 
Q 588 569 886 303 
Q 1184 38 1600 38 
Q 2003 38 2304 269 
Q 2606 500 2606 844 
Q 2606 978 2561 1093 
Q 2516 1209 2427 1301 
Q 2338 1394 2283 1436 
Q 2228 1478 2125 1550 
L 1338 2047 
Q 588 1631 588 966 
z
M 722 3444 
Q 722 3138 1044 2925 
L 1838 2413 
Q 2472 2784 2472 3309 
Q 2472 3650 2212 3876 
Q 1953 4103 1594 4103 
Q 1241 4103 981 3917 
Q 722 3731 722 3444 
z
" transform="scale(0.015625)"/>
       </defs>
       <use xlink:href="#CMUSerif-Roman-30"/>
       <use xlink:href="#CMUSerif-Roman-2e" x="50"/>
       <use xlink:href="#CMUSerif-Roman-38" x="77.783203"/>
      </g>
     </g>
    </g>
    <g id="ytick_6">
     <g id="line2d_11">
      <g>
       <use xlink:href="#m77e44e5c33" x="77.1975" y="46.423799" style="stroke: #000000; stroke-width: 0.8"/>
      </g>
     </g>
     <g id="text_11">
      <!-- 1.0 -->
      <g transform="translate(49.7525 51.975049) scale(0.16 -0.16)">
       <use xlink:href="#CMUSerif-Roman-31"/>
       <use xlink:href="#CMUSerif-Roman-2e" x="50"/>
       <use xlink:href="#CMUSerif-Roman-30" x="77.783203"/>
      </g>
     </g>
    </g>
    <g id="text_12">
     <!-- Precision -->
     <g transform="translate(25.874375 400.564062) rotate(-90) scale(0.2 -0.2)">
      <defs>
       <path id="CMUSerif-Roman-50" d="M 225 0 
L 225 197 
L 378 197 
Q 725 197 804 255 
Q 884 313 884 500 
L 884 3872 
Q 884 4056 803 4114 
Q 722 4172 378 4172 
L 225 4172 
L 225 4372 
L 2484 4372 
Q 3131 4372 3562 4015 
Q 3994 3659 3994 3181 
Q 3994 2706 3555 2364 
Q 3116 2022 2534 2022 
L 1453 2022 
L 1453 500 
Q 1453 316 1533 256 
Q 1613 197 1959 197 
L 2113 197 
L 2113 0 
Q 1888 19 1166 19 
Q 450 19 225 0 
z
M 1434 2188 
L 2316 2188 
Q 2603 2188 2812 2269 
Q 3022 2350 3117 2448 
Q 3213 2547 3267 2708 
Q 3322 2869 3328 2958 
Q 3334 3047 3334 3181 
Q 3334 3322 3328 3411 
Q 3322 3500 3267 3661 
Q 3213 3822 3117 3920 
Q 3022 4019 2814 4095 
Q 2606 4172 2316 4172 
L 1747 4172 
Q 1528 4172 1481 4128 
Q 1434 4084 1434 3916 
L 1434 2188 
z
" transform="scale(0.015625)"/>
       <path id="CMUSerif-Roman-65" d="M 178 1409 
Q 178 2013 565 2441 
Q 953 2869 1509 2869 
Q 2072 2869 2364 2503 
Q 2656 2138 2656 1613 
Q 2656 1516 2631 1497 
Q 2606 1478 2497 1478 
L 709 1478 
Q 709 825 903 519 
Q 1172 91 1625 91 
Q 1688 91 1763 103 
Q 1838 116 1991 170 
Q 2144 225 2278 372 
Q 2413 519 2491 750 
Q 2509 841 2572 838 
Q 2656 838 2656 763 
Q 2656 706 2595 579 
Q 2534 453 2418 303 
Q 2303 153 2079 40 
Q 1856 -72 1588 -72 
Q 1025 -72 601 354 
Q 178 781 178 1409 
z
M 716 1613 
L 2234 1613 
Q 2234 1747 2211 1897 
Q 2188 2047 2120 2255 
Q 2053 2463 1897 2594 
Q 1741 2725 1509 2725 
Q 1406 2725 1295 2681 
Q 1184 2638 1050 2531 
Q 916 2425 822 2184 
Q 728 1944 716 1613 
z
" transform="scale(0.015625)"/>
       <path id="CMUSerif-Roman-63" d="M 625 351 
Q 219 775 219 1383 
Q 219 1991 619 2430 
Q 1019 2869 1606 2869 
Q 1997 2869 2290 2683 
Q 2584 2497 2584 2181 
Q 2584 2041 2501 1961 
Q 2419 1881 2291 1881 
Q 2156 1881 2076 1964 
Q 1997 2047 1997 2175 
Q 1997 2231 2015 2287 
Q 2034 2344 2104 2403 
Q 2175 2463 2297 2472 
Q 2069 2706 1625 2706 
Q 1619 2706 1613 2706 
Q 1288 2706 1019 2400 
Q 750 2094 750 1394 
Q 750 1028 839 761 
Q 928 494 1075 356 
Q 1222 219 1365 155 
Q 1509 91 1650 91 
Q 2278 91 2491 763 
Q 2509 825 2572 825 
Q 2656 825 2656 763 
Q 2656 731 2631 650 
Q 2606 569 2528 441 
Q 2450 313 2339 202 
Q 2228 91 2033 9 
Q 1838 -72 1594 -72 
Q 1031 -72 625 351 
z
" transform="scale(0.015625)"/>
       <path id="CMUSerif-Roman-69" d="M 213 0 
L 213 197 
Q 553 197 631 239 
Q 709 281 709 488 
L 709 2209 
Q 709 2447 629 2503 
Q 550 2559 238 2559 
L 238 2759 
L 1131 2828 
L 1131 481 
Q 1131 291 1200 244 
Q 1269 197 1581 197 
L 1581 0 
Q 928 19 916 19 
Q 828 19 213 0 
z
M 481 3944 
Q 481 4072 579 4176 
Q 678 4281 818 4281 
Q 959 4281 1059 4186 
Q 1159 4091 1159 3942 
Q 1159 3794 1059 3698 
Q 959 3603 819 3603 
Q 672 3603 576 3706 
Q 481 3809 481 3944 
z
" transform="scale(0.015625)"/>
       <path id="CMUSerif-Roman-73" d="M 213 84 
L 213 928 
Q 213 1000 216 1025 
Q 219 1050 237 1069 
Q 256 1088 294 1088 
Q 338 1088 355 1069 
Q 372 1050 384 978 
Q 481 538 689 305 
Q 897 72 1275 72 
Q 1634 72 1815 231 
Q 1997 391 1997 653 
Q 1997 1122 1331 1241 
Q 947 1319 787 1370 
Q 628 1422 488 1538 
Q 213 1763 213 2081 
Q 213 2400 455 2634 
Q 697 2869 1234 2869 
Q 1594 2869 1838 2688 
Q 1909 2744 1947 2791 
Q 2031 2869 2075 2869 
Q 2125 2869 2134 2836 
Q 2144 2803 2144 2713 
L 2144 2069 
Q 2144 1997 2141 1972 
Q 2138 1947 2119 1930 
Q 2100 1913 2059 1913 
Q 1988 1913 1984 1972 
Q 1934 2747 1234 2747 
Q 856 2747 687 2601 
Q 519 2456 519 2259 
Q 519 2150 570 2067 
Q 622 1984 689 1936 
Q 756 1888 881 1842 
Q 1006 1797 1082 1781 
Q 1159 1766 1306 1734 
Q 1819 1638 2034 1428 
Q 2303 1159 2303 819 
Q 2303 441 2047 184 
Q 1791 -72 1275 -72 
Q 859 -72 569 206 
Q 531 169 503 136 
Q 475 103 464 90 
Q 453 78 450 70 
Q 447 63 441 56 
Q 313 -72 281 -72 
Q 231 -72 222 -39 
Q 213 -6 213 84 
z
" transform="scale(0.015625)"/>
       <path id="CMUSerif-Roman-6e" d="M 206 0 
L 206 197 
Q 547 197 625 239 
Q 703 281 703 488 
L 703 2203 
Q 703 2441 620 2500 
Q 538 2559 206 2559 
L 206 2759 
L 1106 2828 
L 1106 2156 
Q 1406 2828 2053 2828 
Q 2534 2828 2725 2591 
Q 2866 2431 2895 2253 
Q 2925 2075 2925 1613 
L 2925 391 
Q 2931 256 3034 226 
Q 3138 197 3425 197 
L 3425 0 
Q 2772 19 2706 19 
Q 2656 19 1984 0 
L 1984 197 
Q 2325 197 2404 239 
Q 2484 281 2484 488 
L 2484 1978 
Q 2484 2303 2384 2495 
Q 2284 2688 2009 2688 
Q 1678 2688 1412 2409 
Q 1147 2131 1147 1663 
L 1147 488 
Q 1147 281 1226 239 
Q 1306 197 1644 197 
L 1644 0 
Q 991 19 928 19 
Q 878 19 206 0 
z
" transform="scale(0.015625)"/>
      </defs>
      <use xlink:href="#CMUSerif-Roman-50"/>
      <use xlink:href="#CMUSerif-Roman-72" x="67.96875"/>
      <use xlink:href="#CMUSerif-Roman-65" x="107.03125"/>
      <use xlink:href="#CMUSerif-Roman-63" x="151.416016"/>
      <use xlink:href="#CMUSerif-Roman-69" x="195.800781"/>
      <use xlink:href="#CMUSerif-Roman-73" x="223.486328"/>
      <use xlink:href="#CMUSerif-Roman-69" x="262.841797"/>
      <use xlink:href="#CMUSerif-Roman-6f" x="290.527344"/>
      <use xlink:href="#CMUSerif-Roman-6e" x="340.527344"/>
     </g>
    </g>
   </g>
   <g id="patch_3">
    <path d="M 77.1975 688.205 
L 77.1975 33.72 
" style="fill: none; stroke: #000000; stroke-width: 0.8; stroke-linejoin: miter; stroke-linecap: square"/>
   </g>
   <g id="patch_4">
    <path d="M 709.2 688.205 
L 709.2 33.72 
" style="fill: none; stroke: #000000; stroke-width: 0.8; stroke-linejoin: miter; stroke-linecap: square"/>
   </g>
   <g id="patch_5">
    <path d="M 77.1975 688.205 
L 709.2 688.205 
" style="fill: none; stroke: #000000; stroke-width: 0.8; stroke-linejoin: miter; stroke-linecap: square"/>
   </g>
   <g id="patch_6">
    <path d="M 77.1975 33.72 
L 709.2 33.72 
" style="fill: none; stroke: #000000; stroke-width: 0.8; stroke-linejoin: miter; stroke-linecap: square"/>
   </g>
   <g id="patch_7">
    <path d="M 105.924886 688.205 
L 201.682841 688.205 
L 201.682841 64.885952 
L 105.924886 64.885952 
z
" clip-path="url(#p4417f253b0)" style="fill: #ff7f0e"/>
   </g>
   <g id="patch_8">
    <path d="M 225.62233 688.205 
L 321.380284 688.205 
L 321.380284 65.237047 
L 225.62233 65.237047 
z
" clip-path="url(#p4417f253b0)" style="fill: #2ca02c"/>
   </g>
   <g id="patch_9">
    <path d="M 345.319773 688.205 
L 441.077727 688.205 
L 441.077727 65.757087 
L 345.319773 65.757087 
z
" clip-path="url(#p4417f253b0)" style="fill: #9467bd"/>
   </g>
   <g id="patch_10">
    <path d="M 465.017216 688.205 
L 560.77517 688.205 
L 560.77517 65.846439 
L 465.017216 65.846439 
z
" clip-path="url(#p4417f253b0)" style="fill: #d62728"/>
   </g>
   <g id="patch_11">
    <path d="M 584.714659 688.205 
L 680.472614 688.205 
L 680.472614 66.616619 
L 584.714659 66.616619 
z
" clip-path="url(#p4417f253b0)" style="fill: #1f77b4"/>
   </g>
   <g id="text_13">
    <!-- 0.971 -->
    <g transform="translate(135.581364 52.050328) scale(0.16 -0.16)">
     <defs>
      <path id="CMUSerif-Roman-39" d="M 269 2822 
Q 269 3163 369 3395 
Q 469 3628 678 3859 
Q 1063 4263 1619 4263 
Q 1856 4263 2067 4163 
Q 2278 4063 2479 3836 
Q 2681 3609 2803 3164 
Q 2925 2719 2925 2106 
Q 2925 1116 2445 487 
Q 1966 -141 1319 -141 
Q 909 -141 668 45 
Q 428 231 428 550 
Q 428 716 522 786 
Q 616 856 722 856 
Q 838 856 928 779 
Q 1019 703 1019 563 
Q 1019 447 945 358 
Q 872 269 684 269 
Q 869 38 1313 38 
Q 1472 38 1631 111 
Q 1791 184 1964 364 
Q 2138 544 2244 922 
Q 2350 1300 2350 1831 
L 2350 2034 
Q 2094 1394 1550 1394 
Q 1013 1394 641 1806 
Q 269 2219 269 2822 
z
M 844 2816 
Q 844 2181 959 1947 
Q 1156 1544 1556 1544 
Q 1947 1544 2142 1892 
Q 2338 2241 2338 2694 
Q 2338 3322 2234 3597 
Q 2044 4103 1620 4103 
Q 1197 4103 978 3700 
Q 844 3463 844 2816 
z
" transform="scale(0.015625)"/>
      <path id="CMUSerif-Roman-37" d="M 359 3009 
L 569 4325 
L 728 4325 
Q 747 4247 780 4212 
Q 813 4178 995 4150 
Q 1178 4122 1550 4122 
L 3103 4122 
Q 3103 3975 3047 3897 
L 2181 2681 
Q 1906 2297 1784 1588 
Q 1713 1113 1716 538 
L 1716 213 
Q 1716 -141 1420 -141 
Q 1125 -141 1125 213 
Q 1125 1434 1913 2619 
Q 1997 2741 2308 3175 
Q 2619 3609 2631 3628 
L 1306 3628 
Q 725 3628 678 3591 
Q 616 3534 519 3009 
L 359 3009 
z
" transform="scale(0.015625)"/>
     </defs>
     <use xlink:href="#CMUSerif-Roman-30"/>
     <use xlink:href="#CMUSerif-Roman-2e" x="50"/>
     <use xlink:href="#CMUSerif-Roman-39" x="77.783203"/>
     <use xlink:href="#CMUSerif-Roman-37" x="127.783203"/>
     <use xlink:href="#CMUSerif-Roman-31" x="177.783203"/>
    </g>
   </g>
   <g id="text_14">
    <!-- 0.971 -->
    <g transform="translate(255.278807 52.401423) scale(0.16 -0.16)">
     <use xlink:href="#CMUSerif-Roman-30"/>
     <use xlink:href="#CMUSerif-Roman-2e" x="50"/>
     <use xlink:href="#CMUSerif-Roman-39" x="77.783203"/>
     <use xlink:href="#CMUSerif-Roman-37" x="127.783203"/>
     <use xlink:href="#CMUSerif-Roman-31" x="177.783203"/>
    </g>
   </g>
   <g id="text_15">
    <!-- 0.970 -->
    <g transform="translate(374.97625 52.921463) scale(0.16 -0.16)">
     <use xlink:href="#CMUSerif-Roman-30"/>
     <use xlink:href="#CMUSerif-Roman-2e" x="50"/>
     <use xlink:href="#CMUSerif-Roman-39" x="77.783203"/>
     <use xlink:href="#CMUSerif-Roman-37" x="127.783203"/>
     <use xlink:href="#CMUSerif-Roman-30" x="177.783203"/>
    </g>
   </g>
   <g id="text_16">
    <!-- 0.970 -->
    <g transform="translate(494.673693 53.010815) scale(0.16 -0.16)">
     <use xlink:href="#CMUSerif-Roman-30"/>
     <use xlink:href="#CMUSerif-Roman-2e" x="50"/>
     <use xlink:href="#CMUSerif-Roman-39" x="77.783203"/>
     <use xlink:href="#CMUSerif-Roman-37" x="127.783203"/>
     <use xlink:href="#CMUSerif-Roman-30" x="177.783203"/>
    </g>
   </g>
   <g id="text_17">
    <!-- 0.969 -->
    <g transform="translate(614.371136 53.780995) scale(0.16 -0.16)">
     <use xlink:href="#CMUSerif-Roman-30"/>
     <use xlink:href="#CMUSerif-Roman-2e" x="50"/>
     <use xlink:href="#CMUSerif-Roman-39" x="77.783203"/>
     <use xlink:href="#CMUSerif-Roman-36" x="127.783203"/>
     <use xlink:href="#CMUSerif-Roman-39" x="177.783203"/>
    </g>
   </g>
   <g id="text_18">
    <!-- Precision (Machine) -->
    <g transform="translate(296.86625 27.72) scale(0.22 -0.22)">
     <defs>
      <path id="CMUSerif-Roman-20" transform="scale(0.015625)"/>
      <path id="CMUSerif-Roman-28" d="M 634 1600 
Q 634 2681 1038 3553 
Q 1209 3919 1450 4225 
Q 1691 4531 1850 4665 
Q 2009 4800 2053 4800 
Q 2116 4800 2119 4738 
Q 2119 4706 2034 4628 
Q 1003 3578 1006 1600 
Q 1006 -384 2009 -1394 
Q 2119 -1503 2119 -1538 
Q 2119 -1600 2053 -1600 
Q 2009 -1600 1856 -1472 
Q 1703 -1344 1465 -1050 
Q 1228 -756 1056 -397 
Q 634 475 634 1600 
z
" transform="scale(0.015625)"/>
      <path id="CMUSerif-Roman-4d" d="M 238 0 
L 238 197 
Q 469 197 616 242 
Q 763 288 817 373 
Q 872 459 884 517 
Q 897 575 897 672 
L 897 3872 
Q 897 4056 817 4114 
Q 738 4172 391 4172 
L 238 4172 
L 238 4372 
L 1319 4372 
Q 1434 4372 1465 4351 
Q 1497 4331 1544 4231 
L 2931 647 
L 4331 4250 
Q 4363 4341 4392 4356 
Q 4422 4372 4544 4372 
L 5625 4372 
L 5625 4172 
L 5472 4172 
Q 5125 4172 5045 4114 
Q 4966 4056 4966 3872 
L 4966 500 
Q 4966 316 5045 256 
Q 5125 197 5472 197 
L 5625 197 
L 5625 0 
Q 5388 19 4709 19 
Q 4025 19 3788 0 
L 3788 197 
L 3944 197 
Q 4291 197 4369 255 
Q 4447 313 4447 500 
L 4447 4172 
L 4441 4172 
L 2869 122 
Q 2825 0 2753 0 
Q 2675 0 2625 141 
L 1081 4122 
L 1075 4122 
L 1075 672 
Q 1075 575 1087 517 
Q 1100 459 1154 373 
Q 1209 288 1356 242 
Q 1503 197 1734 197 
L 1734 0 
Q 1063 19 986 19 
Q 909 19 238 0 
z
" transform="scale(0.015625)"/>
      <path id="CMUSerif-Roman-68" d="M 206 0 
L 206 197 
Q 547 197 625 239 
Q 703 281 703 488 
L 703 3816 
Q 703 4053 620 4112 
Q 538 4172 206 4172 
L 206 4372 
L 1125 4441 
L 1125 2216 
L 1131 2216 
Q 1234 2447 1465 2637 
Q 1697 2828 2053 2828 
Q 2534 2828 2725 2591 
Q 2866 2431 2895 2253 
Q 2925 2075 2925 1613 
L 2925 391 
Q 2931 256 3034 226 
Q 3138 197 3425 197 
L 3425 0 
Q 2772 19 2706 19 
Q 2656 19 1984 0 
L 1984 197 
Q 2325 197 2404 239 
Q 2484 281 2484 488 
L 2484 1978 
Q 2484 2303 2384 2495 
Q 2284 2688 2009 2688 
Q 1678 2688 1412 2409 
Q 1147 2131 1147 1663 
L 1147 488 
Q 1147 281 1226 239 
Q 1306 197 1644 197 
L 1644 0 
Q 991 19 928 19 
Q 878 19 206 0 
z
" transform="scale(0.015625)"/>
      <path id="CMUSerif-Roman-29" d="M 366 -1538 
Q 366 -1506 447 -1428 
Q 1478 -378 1478 1600 
Q 1478 3584 488 4588 
Q 366 4703 366 4738 
Q 366 4800 428 4800 
Q 472 4800 626 4672 
Q 781 4544 1017 4250 
Q 1253 3956 1428 3597 
Q 1850 2725 1850 1600 
Q 1850 519 1447 -353 
Q 1275 -719 1034 -1025 
Q 794 -1331 634 -1465 
Q 475 -1600 428 -1600 
Q 366 -1600 366 -1538 
z
" transform="scale(0.015625)"/>
     </defs>
     <use xlink:href="#CMUSerif-Roman-50"/>
     <use xlink:href="#CMUSerif-Roman-72" x="67.96875"/>
     <use xlink:href="#CMUSerif-Roman-65" x="107.03125"/>
     <use xlink:href="#CMUSerif-Roman-63" x="151.416016"/>
     <use xlink:href="#CMUSerif-Roman-69" x="195.800781"/>
     <use xlink:href="#CMUSerif-Roman-73" x="223.486328"/>
     <use xlink:href="#CMUSerif-Roman-69" x="262.841797"/>
     <use xlink:href="#CMUSerif-Roman-6f" x="290.527344"/>
     <use xlink:href="#CMUSerif-Roman-6e" x="340.527344"/>
     <use xlink:href="#CMUSerif-Roman-20" x="395.996094"/>
     <use xlink:href="#CMUSerif-Roman-28" x="429.248047"/>
     <use xlink:href="#CMUSerif-Roman-4d" x="468.017578"/>
     <use xlink:href="#CMUSerif-Roman-61" x="559.570312"/>
     <use xlink:href="#CMUSerif-Roman-63" x="609.570312"/>
     <use xlink:href="#CMUSerif-Roman-68" x="653.955078"/>
     <use xlink:href="#CMUSerif-Roman-69" x="709.423828"/>
     <use xlink:href="#CMUSerif-Roman-6e" x="737.109375"/>
     <use xlink:href="#CMUSerif-Roman-65" x="792.578125"/>
     <use xlink:href="#CMUSerif-Roman-29" x="836.962891"/>
    </g>
   </g>
  </g>
 </g>
 <defs>
  <clipPath id="p4417f253b0">
   <rect x="77.1975" y="33.72" width="632.0025" height="654.485"/>
  </clipPath>
 </defs>
</svg>
