<?xml version="1.0" encoding="utf-8" standalone="no"?>
<!DOCTYPE svg PUBLIC "-//W3C//DTD SVG 1.1//EN"
  "http://www.w3.org/Graphics/SVG/1.1/DTD/svg11.dtd">
<svg xmlns:xlink="http://www.w3.org/1999/xlink" width="720pt" height="720pt" viewBox="0 0 720 720" xmlns="http://www.w3.org/2000/svg" version="1.1">
 <metadata>
  <rdf:RDF xmlns:dc="http://purl.org/dc/elements/1.1/" xmlns:cc="http://creativecommons.org/ns#" xmlns:rdf="http://www.w3.org/1999/02/22-rdf-syntax-ns#">
   <cc:Work>
    <dc:type rdf:resource="http://purl.org/dc/dcmitype/StillImage"/>
    <dc:date>2024-12-11T15:39:59.989307</dc:date>
    <dc:format>image/svg+xml</dc:format>
    <dc:creator>
     <cc:Agent>
      <dc:title>Matplotlib v3.9.3, https://matplotlib.org/</dc:title>
     </cc:Agent>
    </dc:creator>
   </cc:Work>
  </rdf:RDF>
 </metadata>
 <defs>
  <style type="text/css">*{stroke-linejoin: round; stroke-linecap: butt}</style>
 </defs>
 <g id="figure_1">
  <g id="patch_1">
   <path d="M 0 720 
L 720 720 
L 720 0 
L 0 0 
z
" style="fill: #f2f2f2"/>
  </g>
  <g id="axes_1">
   <g id="patch_2">
    <path d="M 77.4 688.205 
L 709.2 688.205 
L 709.2 33.72 
L 77.4 33.72 
z
" style="fill: #f2f2f2"/>
   </g>
   <g id="matplotlib.axis_1">
    <g id="xtick_1">
     <g id="line2d_1">
      <path d="M 153.981818 688.205 
L 153.981818 33.72 
" clip-path="url(#p0d372f2482)" style="fill: none; stroke-dasharray: 1.85,0.8; stroke-dashoffset: 0; stroke: #000000; stroke-opacity: 0.7; stroke-width: 0.5"/>
     </g>
     <g id="line2d_2">
      <defs>
       <path id="m393ea5484c" d="M 0 0 
L 0 3.5 
" style="stroke: #000000; stroke-width: 0.8"/>
      </defs>
      <g>
       <use xlink:href="#m393ea5484c" x="153.981818" y="688.205" style="stroke: #000000; stroke-width: 0.8"/>
      </g>
     </g>
     <g id="text_1">
      <!-- robin -->
      <g transform="translate(135.766818 706.3075) scale(0.16 -0.16)">
       <defs>
        <path id="CMUSerif-Roman-72" d="M 178 0 
L 178 197 
Q 519 197 598 239 
Q 678 281 678 488 
L 678 2203 
Q 678 2441 595 2500 
Q 513 2559 178 2559 
L 178 2759 
L 1069 2828 
L 1069 2125 
Q 1159 2400 1351 2614 
Q 1544 2828 1856 2828 
Q 2063 2828 2195 2712 
Q 2328 2597 2328 2438 
Q 2328 2297 2242 2226 
Q 2156 2156 2053 2156 
Q 1938 2156 1858 2229 
Q 1778 2303 1778 2431 
Q 1778 2509 1814 2570 
Q 1850 2631 1878 2653 
Q 1906 2675 1925 2681 
Q 1913 2688 1856 2688 
Q 1503 2688 1301 2336 
Q 1100 1984 1100 1484 
L 1100 500 
Q 1100 316 1176 256 
Q 1253 197 1588 197 
L 1722 197 
L 1722 0 
Q 1466 19 909 19 
Q 831 19 709 16 
Q 588 13 428 6 
Q 269 0 178 0 
z
" transform="scale(0.015625)"/>
        <path id="CMUSerif-Roman-6f" d="M 601 345 
Q 178 763 178 1370 
Q 178 1978 592 2423 
Q 1006 2869 1600 2869 
Q 2181 2869 2598 2426 
Q 3016 1984 3016 1369 
Q 3016 766 2595 347 
Q 2175 -72 1594 -72 
Q 1025 -72 601 345 
z
M 709 1422 
Q 709 800 872 519 
Q 1122 91 1600 91 
Q 1838 91 2036 219 
Q 2234 347 2344 563 
Q 2484 844 2484 1422 
Q 2484 2038 2316 2309 
Q 2066 2725 1594 2725 
Q 1388 2725 1186 2617 
Q 984 2509 863 2297 
Q 709 2016 709 1422 
z
" transform="scale(0.015625)"/>
        <path id="CMUSerif-Roman-62" d="M 178 4172 
L 178 4372 
L 1100 4441 
L 1100 2413 
Q 1472 2828 1978 2828 
Q 2528 2828 2931 2406 
Q 3334 1984 3334 1381 
Q 3334 772 2912 350 
Q 2491 -72 1906 -72 
Q 1375 -72 1069 397 
Q 844 6 838 0 
L 678 0 
L 678 3816 
Q 678 4053 593 4112 
Q 509 4172 178 4172 
z
M 1119 728 
Q 1119 594 1209 459 
Q 1463 72 1875 72 
Q 1878 72 1881 72 
Q 2328 72 2606 481 
Q 2803 788 2803 1388 
Q 2803 1981 2619 2278 
Q 2363 2688 1947 2688 
Q 1478 2688 1191 2278 
Q 1119 2175 1119 2047 
L 1119 728 
z
" transform="scale(0.015625)"/>
        <path id="CMUSerif-Roman-69" d="M 213 0 
L 213 197 
Q 553 197 631 239 
Q 709 281 709 488 
L 709 2209 
Q 709 2447 629 2503 
Q 550 2559 238 2559 
L 238 2759 
L 1131 2828 
L 1131 481 
Q 1131 291 1200 244 
Q 1269 197 1581 197 
L 1581 0 
Q 928 19 916 19 
Q 828 19 213 0 
z
M 481 3944 
Q 481 4072 579 4176 
Q 678 4281 818 4281 
Q 959 4281 1059 4186 
Q 1159 4091 1159 3942 
Q 1159 3794 1059 3698 
Q 959 3603 819 3603 
Q 672 3603 576 3706 
Q 481 3809 481 3944 
z
" transform="scale(0.015625)"/>
        <path id="CMUSerif-Roman-6e" d="M 206 0 
L 206 197 
Q 547 197 625 239 
Q 703 281 703 488 
L 703 2203 
Q 703 2441 620 2500 
Q 538 2559 206 2559 
L 206 2759 
L 1106 2828 
L 1106 2156 
Q 1406 2828 2053 2828 
Q 2534 2828 2725 2591 
Q 2866 2431 2895 2253 
Q 2925 2075 2925 1613 
L 2925 391 
Q 2931 256 3034 226 
Q 3138 197 3425 197 
L 3425 0 
Q 2772 19 2706 19 
Q 2656 19 1984 0 
L 1984 197 
Q 2325 197 2404 239 
Q 2484 281 2484 488 
L 2484 1978 
Q 2484 2303 2384 2495 
Q 2284 2688 2009 2688 
Q 1678 2688 1412 2409 
Q 1147 2131 1147 1663 
L 1147 488 
Q 1147 281 1226 239 
Q 1306 197 1644 197 
L 1644 0 
Q 991 19 928 19 
Q 878 19 206 0 
z
" transform="scale(0.015625)"/>
       </defs>
       <use xlink:href="#CMUSerif-Roman-72"/>
       <use xlink:href="#CMUSerif-Roman-6f" x="39.0625"/>
       <use xlink:href="#CMUSerif-Roman-62" x="89.0625"/>
       <use xlink:href="#CMUSerif-Roman-69" x="144.53125"/>
       <use xlink:href="#CMUSerif-Roman-6e" x="172.216797"/>
      </g>
     </g>
    </g>
    <g id="xtick_2">
     <g id="line2d_3">
      <path d="M 273.640909 688.205 
L 273.640909 33.72 
" clip-path="url(#p0d372f2482)" style="fill: none; stroke-dasharray: 1.85,0.8; stroke-dashoffset: 0; stroke: #000000; stroke-opacity: 0.7; stroke-width: 0.5"/>
     </g>
     <g id="line2d_4">
      <g>
       <use xlink:href="#m393ea5484c" x="273.640909" y="688.205" style="stroke: #000000; stroke-width: 0.8"/>
      </g>
     </g>
     <g id="text_2">
      <!-- pascal -->
      <g transform="translate(252.288409 706.3075) scale(0.16 -0.16)">
       <defs>
        <path id="CMUSerif-Roman-70" d="M 178 -1044 
Q 519 -1044 598 -1001 
Q 678 -959 678 -756 
L 678 2241 
Q 678 2453 598 2506 
Q 519 2559 178 2559 
L 178 2759 
L 1100 2828 
L 1100 2406 
Q 1484 2828 1997 2828 
Q 2541 2828 2937 2406 
Q 3334 1984 3334 1381 
Q 3334 772 2912 350 
Q 2491 -72 1906 -72 
Q 1588 -72 1373 92 
Q 1159 256 1119 378 
L 1119 319 
L 1119 -756 
Q 1119 -963 1200 -1003 
Q 1281 -1044 1619 -1044 
L 1619 -1241 
Q 947 -1222 897 -1222 
Q 834 -1222 178 -1241 
L 178 -1044 
z
M 1119 728 
Q 1119 631 1133 597 
Q 1147 563 1209 459 
Q 1463 72 1875 72 
Q 1878 72 1881 72 
Q 2247 72 2525 445 
Q 2803 819 2803 1381 
Q 2803 1919 2550 2294 
Q 2297 2669 1947 2669 
Q 1697 2669 1478 2534 
Q 1259 2400 1119 2156 
L 1119 728 
z
" transform="scale(0.015625)"/>
        <path id="CMUSerif-Roman-61" d="M 269 609 
Q 269 1153 909 1441 
Q 1294 1625 2088 1672 
L 2088 1906 
Q 2088 2303 1880 2514 
Q 1672 2725 1409 2725 
Q 941 2725 716 2431 
Q 906 2425 975 2329 
Q 1044 2234 1044 2138 
Q 1044 2009 964 1926 
Q 884 1844 750 1844 
Q 622 1844 537 1923 
Q 453 2003 453 2144 
Q 453 2456 736 2662 
Q 1019 2869 1422 2869 
Q 1947 2869 2297 2516 
Q 2406 2406 2461 2265 
Q 2516 2125 2522 2033 
Q 2528 1941 2528 1759 
L 2528 481 
Q 2528 444 2540 381 
Q 2553 319 2611 239 
Q 2669 159 2766 159 
Q 2997 159 2994 569 
L 2994 928 
L 3156 928 
L 3156 569 
Q 3156 228 2976 95 
Q 2797 -38 2631 -38 
Q 2419 -38 2284 118 
Q 2150 275 2131 488 
Q 2034 244 1814 86 
Q 1594 -72 1294 -72 
Q 1063 -72 845 -14 
Q 628 44 448 205 
Q 269 366 269 609 
z
M 763 616 
Q 763 378 931 225 
Q 1100 72 1338 72 
Q 1606 72 1847 280 
Q 2088 488 2088 897 
L 2088 1538 
Q 1378 1513 1070 1230 
Q 763 947 763 616 
z
" transform="scale(0.015625)"/>
        <path id="CMUSerif-Roman-73" d="M 213 84 
L 213 928 
Q 213 1000 216 1025 
Q 219 1050 237 1069 
Q 256 1088 294 1088 
Q 338 1088 355 1069 
Q 372 1050 384 978 
Q 481 538 689 305 
Q 897 72 1275 72 
Q 1634 72 1815 231 
Q 1997 391 1997 653 
Q 1997 1122 1331 1241 
Q 947 1319 787 1370 
Q 628 1422 488 1538 
Q 213 1763 213 2081 
Q 213 2400 455 2634 
Q 697 2869 1234 2869 
Q 1594 2869 1838 2688 
Q 1909 2744 1947 2791 
Q 2031 2869 2075 2869 
Q 2125 2869 2134 2836 
Q 2144 2803 2144 2713 
L 2144 2069 
Q 2144 1997 2141 1972 
Q 2138 1947 2119 1930 
Q 2100 1913 2059 1913 
Q 1988 1913 1984 1972 
Q 1934 2747 1234 2747 
Q 856 2747 687 2601 
Q 519 2456 519 2259 
Q 519 2150 570 2067 
Q 622 1984 689 1936 
Q 756 1888 881 1842 
Q 1006 1797 1082 1781 
Q 1159 1766 1306 1734 
Q 1819 1638 2034 1428 
Q 2303 1159 2303 819 
Q 2303 441 2047 184 
Q 1791 -72 1275 -72 
Q 859 -72 569 206 
Q 531 169 503 136 
Q 475 103 464 90 
Q 453 78 450 70 
Q 447 63 441 56 
Q 313 -72 281 -72 
Q 231 -72 222 -39 
Q 213 -6 213 84 
z
" transform="scale(0.015625)"/>
        <path id="CMUSerif-Roman-63" d="M 625 351 
Q 219 775 219 1383 
Q 219 1991 619 2430 
Q 1019 2869 1606 2869 
Q 1997 2869 2290 2683 
Q 2584 2497 2584 2181 
Q 2584 2041 2501 1961 
Q 2419 1881 2291 1881 
Q 2156 1881 2076 1964 
Q 1997 2047 1997 2175 
Q 1997 2231 2015 2287 
Q 2034 2344 2104 2403 
Q 2175 2463 2297 2472 
Q 2069 2706 1625 2706 
Q 1619 2706 1613 2706 
Q 1288 2706 1019 2400 
Q 750 2094 750 1394 
Q 750 1028 839 761 
Q 928 494 1075 356 
Q 1222 219 1365 155 
Q 1509 91 1650 91 
Q 2278 91 2491 763 
Q 2509 825 2572 825 
Q 2656 825 2656 763 
Q 2656 731 2631 650 
Q 2606 569 2528 441 
Q 2450 313 2339 202 
Q 2228 91 2033 9 
Q 1838 -72 1594 -72 
Q 1031 -72 625 351 
z
" transform="scale(0.015625)"/>
        <path id="CMUSerif-Roman-6c" d="M 213 0 
L 213 197 
Q 553 197 631 239 
Q 709 281 709 488 
L 709 3816 
Q 709 4053 626 4112 
Q 544 4172 213 4172 
L 213 4372 
L 1131 4441 
L 1131 488 
Q 1131 281 1212 239 
Q 1294 197 1631 197 
L 1631 0 
Q 1553 0 1390 6 
Q 1228 13 1109 16 
Q 991 19 922 19 
Q 847 19 213 0 
z
" transform="scale(0.015625)"/>
       </defs>
       <use xlink:href="#CMUSerif-Roman-70"/>
       <use xlink:href="#CMUSerif-Roman-61" x="55.46875"/>
       <use xlink:href="#CMUSerif-Roman-73" x="105.46875"/>
       <use xlink:href="#CMUSerif-Roman-63" x="144.824219"/>
       <use xlink:href="#CMUSerif-Roman-61" x="189.208984"/>
       <use xlink:href="#CMUSerif-Roman-6c" x="239.208984"/>
      </g>
     </g>
    </g>
    <g id="xtick_3">
     <g id="line2d_5">
      <path d="M 393.3 688.205 
L 393.3 33.72 
" clip-path="url(#p0d372f2482)" style="fill: none; stroke-dasharray: 1.85,0.8; stroke-dashoffset: 0; stroke: #000000; stroke-opacity: 0.7; stroke-width: 0.5"/>
     </g>
     <g id="line2d_6">
      <g>
       <use xlink:href="#m393ea5484c" x="393.3" y="688.205" style="stroke: #000000; stroke-width: 0.8"/>
      </g>
     </g>
     <g id="text_3">
      <!-- tim -->
      <g transform="translate(381.32375 706.3075) scale(0.16 -0.16)">
       <defs>
        <path id="CMUSerif-Roman-74" d="M 122 2559 
L 122 2700 
Q 416 2713 611 2920 
Q 806 3128 873 3384 
Q 941 3641 947 3938 
L 1106 3938 
L 1106 2759 
L 2022 2759 
L 2022 2559 
L 1106 2559 
L 1106 781 
Q 1106 91 1538 91 
Q 1722 91 1844 280 
Q 1966 469 1966 806 
L 1966 1159 
L 2125 1159 
L 2125 794 
Q 2125 447 1965 187 
Q 1806 -72 1491 -72 
Q 1375 -72 1261 -42 
Q 1147 -13 998 64 
Q 850 141 758 330 
Q 666 519 666 794 
L 666 2559 
L 122 2559 
z
" transform="scale(0.015625)"/>
        <path id="CMUSerif-Roman-6d" d="M 206 0 
L 206 197 
Q 547 197 625 239 
Q 703 281 703 488 
L 703 2203 
Q 703 2441 620 2500 
Q 538 2559 206 2559 
L 206 2759 
L 1106 2828 
L 1106 2156 
Q 1406 2828 2053 2828 
Q 2803 2828 2906 2203 
Q 3016 2447 3245 2637 
Q 3475 2828 3834 2828 
Q 4316 2828 4506 2591 
Q 4647 2431 4675 2253 
Q 4703 2075 4703 1613 
L 4703 391 
Q 4709 256 4812 226 
Q 4916 197 5203 197 
L 5203 0 
Q 4550 19 4488 19 
Q 4438 19 3763 0 
L 3763 197 
Q 4103 197 4183 239 
Q 4263 281 4263 488 
L 4263 1978 
Q 4263 2303 4163 2495 
Q 4063 2688 3788 2688 
Q 3456 2688 3190 2409 
Q 2925 2131 2925 1663 
L 2925 488 
Q 2925 281 3004 239 
Q 3084 197 3425 197 
L 3425 0 
Q 2772 19 2706 19 
Q 2656 19 1984 0 
L 1984 197 
Q 2325 197 2404 239 
Q 2484 281 2484 488 
L 2484 1978 
Q 2484 2303 2384 2495 
Q 2284 2688 2009 2688 
Q 1678 2688 1412 2409 
Q 1147 2131 1147 1663 
L 1147 488 
Q 1147 281 1226 239 
Q 1306 197 1644 197 
L 1644 0 
Q 991 19 928 19 
Q 878 19 206 0 
z
" transform="scale(0.015625)"/>
       </defs>
       <use xlink:href="#CMUSerif-Roman-74"/>
       <use xlink:href="#CMUSerif-Roman-69" x="38.769531"/>
       <use xlink:href="#CMUSerif-Roman-6d" x="66.455078"/>
      </g>
     </g>
    </g>
    <g id="xtick_4">
     <g id="line2d_7">
      <path d="M 512.959091 688.205 
L 512.959091 33.72 
" clip-path="url(#p0d372f2482)" style="fill: none; stroke-dasharray: 1.85,0.8; stroke-dashoffset: 0; stroke: #000000; stroke-opacity: 0.7; stroke-width: 0.5"/>
     </g>
     <g id="line2d_8">
      <g>
       <use xlink:href="#m393ea5484c" x="512.959091" y="688.205" style="stroke: #000000; stroke-width: 0.8"/>
      </g>
     </g>
     <g id="text_4">
      <!-- sarah -->
      <g transform="translate(494.247841 706.3075) scale(0.16 -0.16)">
       <defs>
        <path id="CMUSerif-Roman-68" d="M 206 0 
L 206 197 
Q 547 197 625 239 
Q 703 281 703 488 
L 703 3816 
Q 703 4053 620 4112 
Q 538 4172 206 4172 
L 206 4372 
L 1125 4441 
L 1125 2216 
L 1131 2216 
Q 1234 2447 1465 2637 
Q 1697 2828 2053 2828 
Q 2534 2828 2725 2591 
Q 2866 2431 2895 2253 
Q 2925 2075 2925 1613 
L 2925 391 
Q 2931 256 3034 226 
Q 3138 197 3425 197 
L 3425 0 
Q 2772 19 2706 19 
Q 2656 19 1984 0 
L 1984 197 
Q 2325 197 2404 239 
Q 2484 281 2484 488 
L 2484 1978 
Q 2484 2303 2384 2495 
Q 2284 2688 2009 2688 
Q 1678 2688 1412 2409 
Q 1147 2131 1147 1663 
L 1147 488 
Q 1147 281 1226 239 
Q 1306 197 1644 197 
L 1644 0 
Q 991 19 928 19 
Q 878 19 206 0 
z
" transform="scale(0.015625)"/>
       </defs>
       <use xlink:href="#CMUSerif-Roman-73"/>
       <use xlink:href="#CMUSerif-Roman-61" x="39.355469"/>
       <use xlink:href="#CMUSerif-Roman-72" x="89.355469"/>
       <use xlink:href="#CMUSerif-Roman-61" x="128.417969"/>
       <use xlink:href="#CMUSerif-Roman-68" x="178.417969"/>
      </g>
     </g>
    </g>
    <g id="xtick_5">
     <g id="line2d_9">
      <path d="M 632.618182 688.205 
L 632.618182 33.72 
" clip-path="url(#p0d372f2482)" style="fill: none; stroke-dasharray: 1.85,0.8; stroke-dashoffset: 0; stroke: #000000; stroke-opacity: 0.7; stroke-width: 0.5"/>
     </g>
     <g id="line2d_10">
      <g>
       <use xlink:href="#m393ea5484c" x="632.618182" y="688.205" style="stroke: #000000; stroke-width: 0.8"/>
      </g>
     </g>
     <g id="text_5">
      <!-- lars -->
      <g transform="translate(620.129432 706.3075) scale(0.16 -0.16)">
       <use xlink:href="#CMUSerif-Roman-6c"/>
       <use xlink:href="#CMUSerif-Roman-61" x="27.685547"/>
       <use xlink:href="#CMUSerif-Roman-72" x="77.685547"/>
       <use xlink:href="#CMUSerif-Roman-73" x="116.748047"/>
      </g>
     </g>
    </g>
   </g>
   <g id="matplotlib.axis_2">
    <g id="ytick_1">
     <g id="line2d_11">
      <path d="M 77.4 688.205 
L 709.2 688.205 
" clip-path="url(#p0d372f2482)" style="fill: none; stroke-dasharray: 1.85,0.8; stroke-dashoffset: 0; stroke: #000000; stroke-opacity: 0.7; stroke-width: 0.5"/>
     </g>
     <g id="line2d_12">
      <defs>
       <path id="m911c10e634" d="M 0 0 
L -3.5 0 
" style="stroke: #000000; stroke-width: 0.8"/>
      </defs>
      <g>
       <use xlink:href="#m911c10e634" x="77.4" y="688.205" style="stroke: #000000; stroke-width: 0.8"/>
      </g>
     </g>
     <g id="text_6">
      <!-- 0.0 -->
      <g transform="translate(49.955 693.75625) scale(0.16 -0.16)">
       <defs>
        <path id="CMUSerif-Roman-30" d="M 250 2047 
Q 250 2988 488 3500 
Q 819 4263 1600 4263 
Q 1766 4263 1939 4217 
Q 2113 4172 2333 4000 
Q 2553 3828 2688 3547 
Q 2944 3003 2944 2047 
Q 2944 1113 2706 603 
Q 2359 -141 1594 -141 
Q 1306 -141 1014 6 
Q 722 153 538 506 
Q 250 1034 250 2047 
z
M 781 2125 
Q 781 1159 850 775 
Q 928 359 1142 179 
Q 1356 0 1594 0 
Q 1850 0 2064 192 
Q 2278 384 2344 800 
Q 2416 1209 2413 2125 
Q 2413 3016 2350 3372 
Q 2266 3788 2042 3955 
Q 1819 4122 1594 4122 
Q 1509 4122 1420 4097 
Q 1331 4072 1203 4000 
Q 1075 3928 976 3750 
Q 878 3572 831 3303 
Q 781 2956 781 2125 
z
" transform="scale(0.015625)"/>
        <path id="CMUSerif-Roman-2e" d="M 641 103 
Q 544 206 544 340 
Q 544 475 641 573 
Q 738 672 884 672 
Q 1025 672 1120 580 
Q 1216 488 1216 339 
Q 1216 191 1114 95 
Q 1013 0 884 0 
Q 738 0 641 103 
z
" transform="scale(0.015625)"/>
       </defs>
       <use xlink:href="#CMUSerif-Roman-30"/>
       <use xlink:href="#CMUSerif-Roman-2e" x="50"/>
       <use xlink:href="#CMUSerif-Roman-30" x="77.783203"/>
      </g>
     </g>
    </g>
    <g id="ytick_2">
     <g id="line2d_13">
      <path d="M 77.4 559.60797 
L 709.2 559.60797 
" clip-path="url(#p0d372f2482)" style="fill: none; stroke-dasharray: 1.85,0.8; stroke-dashoffset: 0; stroke: #000000; stroke-opacity: 0.7; stroke-width: 0.5"/>
     </g>
     <g id="line2d_14">
      <g>
       <use xlink:href="#m911c10e634" x="77.4" y="559.60797" style="stroke: #000000; stroke-width: 0.8"/>
      </g>
     </g>
     <g id="text_7">
      <!-- 0.2 -->
      <g transform="translate(49.955 565.15922) scale(0.16 -0.16)">
       <defs>
        <path id="CMUSerif-Roman-32" d="M 319 0 
Q 319 116 330 150 
Q 341 184 391 238 
L 1619 1606 
Q 2291 2363 2291 3022 
Q 2291 3450 2067 3756 
Q 1844 4063 1434 4063 
Q 1153 4063 915 3891 
Q 678 3719 569 3413 
Q 588 3419 653 3419 
Q 813 3419 902 3319 
Q 991 3219 991 3084 
Q 991 2913 880 2830 
Q 769 2747 659 2747 
Q 616 2747 558 2756 
Q 500 2766 409 2855 
Q 319 2944 319 3103 
Q 319 3550 658 3906 
Q 997 4263 1516 4263 
Q 2103 4263 2489 3914 
Q 2875 3566 2875 3022 
Q 2875 2831 2817 2657 
Q 2759 2484 2682 2350 
Q 2606 2216 2400 2000 
Q 2194 1784 2028 1631 
Q 1863 1478 1491 1153 
L 813 494 
L 1966 494 
Q 2528 494 2572 544 
Q 2634 634 2713 1113 
L 2875 1113 
L 2694 0 
L 319 0 
z
" transform="scale(0.015625)"/>
       </defs>
       <use xlink:href="#CMUSerif-Roman-30"/>
       <use xlink:href="#CMUSerif-Roman-2e" x="50"/>
       <use xlink:href="#CMUSerif-Roman-32" x="77.783203"/>
      </g>
     </g>
    </g>
    <g id="ytick_3">
     <g id="line2d_15">
      <path d="M 77.4 431.01094 
L 709.2 431.01094 
" clip-path="url(#p0d372f2482)" style="fill: none; stroke-dasharray: 1.85,0.8; stroke-dashoffset: 0; stroke: #000000; stroke-opacity: 0.7; stroke-width: 0.5"/>
     </g>
     <g id="line2d_16">
      <g>
       <use xlink:href="#m911c10e634" x="77.4" y="431.01094" style="stroke: #000000; stroke-width: 0.8"/>
      </g>
     </g>
     <g id="text_8">
      <!-- 0.4 -->
      <g transform="translate(49.955 436.56219) scale(0.16 -0.16)">
       <defs>
        <path id="CMUSerif-Roman-34" d="M 178 1056 
L 178 1253 
L 2144 4256 
Q 2194 4334 2272 4331 
Q 2344 4331 2359 4303 
Q 2375 4275 2375 4166 
L 2375 1253 
L 3016 1253 
L 3016 1056 
L 2375 1056 
L 2375 500 
Q 2375 316 2451 256 
Q 2528 197 2859 197 
L 2994 197 
L 2994 0 
Q 2731 19 2125 19 
Q 1522 19 1259 0 
L 1259 197 
L 1394 197 
Q 1725 197 1803 255 
Q 1881 313 1881 500 
L 1881 1056 
L 178 1056 
z
M 359 1253 
L 1919 1253 
L 1919 3641 
L 359 1253 
z
" transform="scale(0.015625)"/>
       </defs>
       <use xlink:href="#CMUSerif-Roman-30"/>
       <use xlink:href="#CMUSerif-Roman-2e" x="50"/>
       <use xlink:href="#CMUSerif-Roman-34" x="77.783203"/>
      </g>
     </g>
    </g>
    <g id="ytick_4">
     <g id="line2d_17">
      <path d="M 77.4 302.41391 
L 709.2 302.41391 
" clip-path="url(#p0d372f2482)" style="fill: none; stroke-dasharray: 1.85,0.8; stroke-dashoffset: 0; stroke: #000000; stroke-opacity: 0.7; stroke-width: 0.5"/>
     </g>
     <g id="line2d_18">
      <g>
       <use xlink:href="#m911c10e634" x="77.4" y="302.41391" style="stroke: #000000; stroke-width: 0.8"/>
      </g>
     </g>
     <g id="text_9">
      <!-- 0.6 -->
      <g transform="translate(49.955 307.96516) scale(0.16 -0.16)">
       <defs>
        <path id="CMUSerif-Roman-36" d="M 269 2022 
Q 269 3028 781 3645 
Q 1294 4263 1953 4263 
Q 2338 4263 2552 4067 
Q 2766 3872 2766 3572 
Q 2766 3406 2669 3334 
Q 2572 3263 2472 3263 
Q 2356 3263 2265 3341 
Q 2175 3419 2175 3559 
Q 2175 3847 2528 3847 
Q 2363 4103 1966 4103 
Q 1844 4103 1719 4067 
Q 1594 4031 1431 3912 
Q 1269 3794 1144 3606 
Q 1019 3419 931 3066 
Q 844 2713 844 2253 
L 844 2100 
Q 1106 2734 1643 2732 
Q 2181 2731 2553 2322 
Q 2925 1913 2925 1306 
Q 2925 684 2537 271 
Q 2150 -141 1606 -141 
Q 1363 -141 1142 -39 
Q 922 63 717 294 
Q 513 525 391 969 
Q 269 1413 269 2022 
z
M 856 1447 
Q 856 819 972 519 
Q 991 469 1033 400 
Q 1075 331 1148 242 
Q 1222 153 1344 95 
Q 1466 38 1606 38 
Q 2034 38 2241 453 
Q 2350 684 2350 1313 
Q 2350 1953 2234 2188 
Q 2038 2584 1638 2584 
Q 1369 2584 1183 2400 
Q 997 2216 926 1969 
Q 856 1722 856 1447 
z
" transform="scale(0.015625)"/>
       </defs>
       <use xlink:href="#CMUSerif-Roman-30"/>
       <use xlink:href="#CMUSerif-Roman-2e" x="50"/>
       <use xlink:href="#CMUSerif-Roman-36" x="77.783203"/>
      </g>
     </g>
    </g>
    <g id="ytick_5">
     <g id="line2d_19">
      <path d="M 77.4 173.81688 
L 709.2 173.81688 
" clip-path="url(#p0d372f2482)" style="fill: none; stroke-dasharray: 1.85,0.8; stroke-dashoffset: 0; stroke: #000000; stroke-opacity: 0.7; stroke-width: 0.5"/>
     </g>
     <g id="line2d_20">
      <g>
       <use xlink:href="#m911c10e634" x="77.4" y="173.81688" style="stroke: #000000; stroke-width: 0.8"/>
      </g>
     </g>
     <g id="text_10">
      <!-- 0.8 -->
      <g transform="translate(49.955 179.36813) scale(0.16 -0.16)">
       <defs>
        <path id="CMUSerif-Roman-38" d="M 269 966 
Q 269 1681 1191 2144 
Q 794 2413 722 2491 
Q 441 2803 441 3194 
Q 441 3641 780 3952 
Q 1119 4263 1600 4263 
Q 2059 4263 2406 3997 
Q 2753 3731 2753 3309 
Q 2753 2716 1978 2316 
Q 2491 1997 2613 1863 
Q 2925 1516 2925 1075 
Q 2925 563 2531 211 
Q 2138 -141 1594 -141 
Q 1063 -141 666 168 
Q 269 478 269 966 
z
M 588 966 
Q 588 569 886 303 
Q 1184 38 1600 38 
Q 2003 38 2304 269 
Q 2606 500 2606 844 
Q 2606 978 2561 1093 
Q 2516 1209 2427 1301 
Q 2338 1394 2283 1436 
Q 2228 1478 2125 1550 
L 1338 2047 
Q 588 1631 588 966 
z
M 722 3444 
Q 722 3138 1044 2925 
L 1838 2413 
Q 2472 2784 2472 3309 
Q 2472 3650 2212 3876 
Q 1953 4103 1594 4103 
Q 1241 4103 981 3917 
Q 722 3731 722 3444 
z
" transform="scale(0.015625)"/>
       </defs>
       <use xlink:href="#CMUSerif-Roman-30"/>
       <use xlink:href="#CMUSerif-Roman-2e" x="50"/>
       <use xlink:href="#CMUSerif-Roman-38" x="77.783203"/>
      </g>
     </g>
    </g>
    <g id="ytick_6">
     <g id="line2d_21">
      <path d="M 77.4 45.21985 
L 709.2 45.21985 
" clip-path="url(#p0d372f2482)" style="fill: none; stroke-dasharray: 1.85,0.8; stroke-dashoffset: 0; stroke: #000000; stroke-opacity: 0.7; stroke-width: 0.5"/>
     </g>
     <g id="line2d_22">
      <g>
       <use xlink:href="#m911c10e634" x="77.4" y="45.21985" style="stroke: #000000; stroke-width: 0.8"/>
      </g>
     </g>
     <g id="text_11">
      <!-- 1.0 -->
      <g transform="translate(49.955 50.7711) scale(0.16 -0.16)">
       <defs>
        <path id="CMUSerif-Roman-31" d="M 569 3653 
L 569 3853 
Q 1338 3853 1734 4263 
Q 1844 4263 1862 4238 
Q 1881 4213 1881 4097 
L 1881 506 
Q 1881 316 1975 256 
Q 2069 197 2478 197 
L 2681 197 
L 2681 0 
Q 2456 19 1643 19 
Q 831 19 609 0 
L 609 197 
L 813 197 
Q 1216 197 1312 255 
Q 1409 313 1409 506 
L 1409 3822 
Q 1075 3653 569 3653 
z
" transform="scale(0.015625)"/>
       </defs>
       <use xlink:href="#CMUSerif-Roman-31"/>
       <use xlink:href="#CMUSerif-Roman-2e" x="50"/>
       <use xlink:href="#CMUSerif-Roman-30" x="77.783203"/>
      </g>
     </g>
    </g>
    <g id="text_12">
     <!-- Accuracy -->
     <g transform="translate(25.851875 401.501562) rotate(-90) scale(0.2 -0.2)">
      <defs>
       <path id="CMUSerif-Roman-41" d="M 206 0 
L 206 197 
Q 775 209 922 628 
L 2247 4453 
Q 2272 4531 2300 4556 
Q 2328 4581 2400 4581 
Q 2438 4581 2461 4575 
Q 2484 4569 2500 4547 
Q 2516 4525 2522 4512 
Q 2528 4500 2547 4453 
L 3928 453 
Q 3978 294 4081 245 
Q 4184 197 4475 197 
L 4588 197 
L 4588 0 
Q 4184 19 3750 19 
Q 3059 19 2828 0 
L 2828 197 
Q 3359 197 3359 391 
Q 3359 403 3341 481 
L 3003 1459 
L 1422 1459 
L 1125 622 
Q 1113 597 1113 525 
Q 1113 391 1238 294 
Q 1363 197 1594 197 
L 1594 0 
Q 978 19 856 19 
Q 647 19 206 0 
z
M 1491 1656 
L 2931 1656 
L 2209 3738 
L 1491 1656 
z
" transform="scale(0.015625)"/>
       <path id="CMUSerif-Roman-75" d="M 206 2559 
L 206 2759 
L 1147 2828 
L 1147 703 
Q 1147 550 1159 461 
Q 1172 372 1223 269 
Q 1275 166 1395 119 
Q 1516 72 1709 72 
Q 2056 72 2270 356 
Q 2484 641 2484 1063 
L 2484 2203 
Q 2484 2441 2400 2500 
Q 2316 2559 1984 2559 
L 1984 2759 
L 2925 2828 
L 2925 556 
Q 2925 319 3008 258 
Q 3091 197 3425 197 
L 3425 0 
L 2503 -72 
L 2503 506 
Q 2234 -69 1678 -72 
Q 1397 -72 1205 0 
Q 1013 72 916 161 
Q 819 250 767 422 
Q 716 594 709 700 
Q 703 806 703 1013 
L 703 1972 
Q 703 2406 640 2482 
Q 578 2559 206 2559 
z
" transform="scale(0.015625)"/>
       <path id="CMUSerif-Roman-79" d="M 122 -794 
Q 122 -659 201 -589 
Q 281 -519 391 -519 
Q 506 -519 582 -592 
Q 659 -666 659 -788 
Q 659 -1025 409 -1056 
Q 531 -1172 709 -1172 
Q 900 -1172 1054 -1031 
Q 1209 -891 1276 -756 
Q 1344 -622 1441 -378 
Q 1531 -188 1600 0 
L 641 2338 
Q 578 2491 481 2525 
Q 384 2559 122 2559 
L 122 2759 
Q 409 2741 744 2741 
Q 941 2741 1441 2759 
L 1441 2559 
Q 1081 2559 1081 2394 
Q 1081 2375 1119 2278 
L 1831 556 
L 2478 2131 
Q 2516 2222 2516 2284 
Q 2516 2547 2216 2559 
L 2216 2759 
Q 2638 2741 2772 2741 
Q 3034 2741 3250 2759 
L 3250 2559 
Q 2822 2559 2656 2150 
L 1528 -581 
Q 1222 -1309 709 -1313 
Q 466 -1313 294 -1163 
Q 122 -1013 122 -794 
z
" transform="scale(0.015625)"/>
      </defs>
      <use xlink:href="#CMUSerif-Roman-41"/>
      <use xlink:href="#CMUSerif-Roman-63" x="75"/>
      <use xlink:href="#CMUSerif-Roman-63" x="119.384766"/>
      <use xlink:href="#CMUSerif-Roman-75" x="163.769531"/>
      <use xlink:href="#CMUSerif-Roman-72" x="219.238281"/>
      <use xlink:href="#CMUSerif-Roman-61" x="258.300781"/>
      <use xlink:href="#CMUSerif-Roman-63" x="308.300781"/>
      <use xlink:href="#CMUSerif-Roman-79" x="352.685547"/>
     </g>
    </g>
   </g>
   <g id="patch_3">
    <path d="M 77.4 688.205 
L 77.4 33.72 
" style="fill: none; stroke: #000000; stroke-width: 0.8; stroke-linejoin: miter; stroke-linecap: square"/>
   </g>
   <g id="patch_4">
    <path d="M 709.2 688.205 
L 709.2 33.72 
" style="fill: none; stroke: #000000; stroke-width: 0.8; stroke-linejoin: miter; stroke-linecap: square"/>
   </g>
   <g id="patch_5">
    <path d="M 77.4 688.205 
L 709.2 688.205 
" style="fill: none; stroke: #000000; stroke-width: 0.8; stroke-linejoin: miter; stroke-linecap: square"/>
   </g>
   <g id="patch_6">
    <path d="M 77.4 33.72 
L 709.2 33.72 
" style="fill: none; stroke: #000000; stroke-width: 0.8; stroke-linejoin: miter; stroke-linecap: square"/>
   </g>
   <g id="patch_7">
    <path d="M 106.118182 688.205 
L 201.845455 688.205 
L 201.845455 64.885952 
L 106.118182 64.885952 
z
" clip-path="url(#p0d372f2482)" style="fill: #2ca02c"/>
   </g>
   <g id="patch_8">
    <path d="M 225.777273 688.205 
L 321.504545 688.205 
L 321.504545 65.510371 
L 225.777273 65.510371 
z
" clip-path="url(#p0d372f2482)" style="fill: #d62728"/>
   </g>
   <g id="patch_9">
    <path d="M 345.436364 688.205 
L 441.163636 688.205 
L 441.163636 66.228977 
L 345.436364 66.228977 
z
" clip-path="url(#p0d372f2482)" style="fill: #9467bd"/>
   </g>
   <g id="patch_10">
    <path d="M 465.095455 688.205 
L 560.822727 688.205 
L 560.822727 66.70811 
L 465.095455 66.70811 
z
" clip-path="url(#p0d372f2482)" style="fill: #1f77b4"/>
   </g>
   <g id="patch_11">
    <path d="M 584.754545 688.205 
L 680.481818 688.205 
L 680.481818 66.851411 
L 584.754545 66.851411 
z
" clip-path="url(#p0d372f2482)" style="fill: #ff7f0e"/>
   </g>
   <g id="text_13">
    <!-- 0.969 -->
    <g transform="translate(135.759318 52.026249) scale(0.16 -0.16)">
     <defs>
      <path id="CMUSerif-Roman-39" d="M 269 2822 
Q 269 3163 369 3395 
Q 469 3628 678 3859 
Q 1063 4263 1619 4263 
Q 1856 4263 2067 4163 
Q 2278 4063 2479 3836 
Q 2681 3609 2803 3164 
Q 2925 2719 2925 2106 
Q 2925 1116 2445 487 
Q 1966 -141 1319 -141 
Q 909 -141 668 45 
Q 428 231 428 550 
Q 428 716 522 786 
Q 616 856 722 856 
Q 838 856 928 779 
Q 1019 703 1019 563 
Q 1019 447 945 358 
Q 872 269 684 269 
Q 869 38 1313 38 
Q 1472 38 1631 111 
Q 1791 184 1964 364 
Q 2138 544 2244 922 
Q 2350 1300 2350 1831 
L 2350 2034 
Q 2094 1394 1550 1394 
Q 1013 1394 641 1806 
Q 269 2219 269 2822 
z
M 844 2816 
Q 844 2181 959 1947 
Q 1156 1544 1556 1544 
Q 1947 1544 2142 1892 
Q 2338 2241 2338 2694 
Q 2338 3322 2234 3597 
Q 2044 4103 1620 4103 
Q 1197 4103 978 3700 
Q 844 3463 844 2816 
z
" transform="scale(0.015625)"/>
     </defs>
     <use xlink:href="#CMUSerif-Roman-30"/>
     <use xlink:href="#CMUSerif-Roman-2e" x="50"/>
     <use xlink:href="#CMUSerif-Roman-39" x="77.783203"/>
     <use xlink:href="#CMUSerif-Roman-36" x="127.783203"/>
     <use xlink:href="#CMUSerif-Roman-39" x="177.783203"/>
    </g>
   </g>
   <g id="text_14">
    <!-- 0.968 -->
    <g transform="translate(255.418409 52.650668) scale(0.16 -0.16)">
     <use xlink:href="#CMUSerif-Roman-30"/>
     <use xlink:href="#CMUSerif-Roman-2e" x="50"/>
     <use xlink:href="#CMUSerif-Roman-39" x="77.783203"/>
     <use xlink:href="#CMUSerif-Roman-36" x="127.783203"/>
     <use xlink:href="#CMUSerif-Roman-38" x="177.783203"/>
    </g>
   </g>
   <g id="text_15">
    <!-- 0.967 -->
    <g transform="translate(375.0775 53.369274) scale(0.16 -0.16)">
     <defs>
      <path id="CMUSerif-Roman-37" d="M 359 3009 
L 569 4325 
L 728 4325 
Q 747 4247 780 4212 
Q 813 4178 995 4150 
Q 1178 4122 1550 4122 
L 3103 4122 
Q 3103 3975 3047 3897 
L 2181 2681 
Q 1906 2297 1784 1588 
Q 1713 1113 1716 538 
L 1716 213 
Q 1716 -141 1420 -141 
Q 1125 -141 1125 213 
Q 1125 1434 1913 2619 
Q 1997 2741 2308 3175 
Q 2619 3609 2631 3628 
L 1306 3628 
Q 725 3628 678 3591 
Q 616 3534 519 3009 
L 359 3009 
z
" transform="scale(0.015625)"/>
     </defs>
     <use xlink:href="#CMUSerif-Roman-30"/>
     <use xlink:href="#CMUSerif-Roman-2e" x="50"/>
     <use xlink:href="#CMUSerif-Roman-39" x="77.783203"/>
     <use xlink:href="#CMUSerif-Roman-36" x="127.783203"/>
     <use xlink:href="#CMUSerif-Roman-37" x="177.783203"/>
    </g>
   </g>
   <g id="text_16">
    <!-- 0.967 -->
    <g transform="translate(494.736591 53.848407) scale(0.16 -0.16)">
     <use xlink:href="#CMUSerif-Roman-30"/>
     <use xlink:href="#CMUSerif-Roman-2e" x="50"/>
     <use xlink:href="#CMUSerif-Roman-39" x="77.783203"/>
     <use xlink:href="#CMUSerif-Roman-36" x="127.783203"/>
     <use xlink:href="#CMUSerif-Roman-37" x="177.783203"/>
    </g>
   </g>
   <g id="text_17">
    <!-- 0.966 -->
    <g transform="translate(614.395682 53.991708) scale(0.16 -0.16)">
     <use xlink:href="#CMUSerif-Roman-30"/>
     <use xlink:href="#CMUSerif-Roman-2e" x="50"/>
     <use xlink:href="#CMUSerif-Roman-39" x="77.783203"/>
     <use xlink:href="#CMUSerif-Roman-36" x="127.783203"/>
     <use xlink:href="#CMUSerif-Roman-36" x="177.783203"/>
    </g>
   </g>
   <g id="text_18">
    <!-- Word Accuracy (Machine) -->
    <g transform="translate(265.084688 27.72) scale(0.22 -0.22)">
     <defs>
      <path id="CMUSerif-Roman-57" d="M 116 4172 
L 116 4372 
Q 206 4372 368 4365 
Q 531 4359 659 4356 
Q 788 4353 897 4353 
Q 1575 4353 1806 4372 
L 1806 4172 
Q 1269 4172 1269 3981 
Q 1269 3938 1281 3897 
L 2309 750 
L 3200 3494 
L 3059 3944 
Q 3009 4103 2900 4137 
Q 2791 4172 2484 4172 
L 2484 4372 
Q 2575 4372 2737 4365 
Q 2900 4359 3028 4356 
Q 3156 4353 3263 4353 
Q 3941 4353 4172 4372 
L 4172 4172 
Q 3634 4172 3634 3981 
Q 3634 3963 3653 3884 
L 4678 750 
L 5638 3706 
Q 5669 3803 5672 3834 
Q 5672 3950 5537 4058 
Q 5403 4166 5113 4172 
L 5113 4372 
Q 5613 4353 5875 4353 
Q 6169 4353 6456 4372 
L 6456 4172 
Q 5950 4172 5819 3744 
L 4594 -13 
Q 4581 -63 4572 -86 
Q 4563 -109 4538 -125 
Q 4513 -141 4469 -141 
Q 4384 -141 4347 -19 
L 3284 3238 
L 2228 -13 
Q 2216 -63 2205 -86 
Q 2194 -109 2169 -125 
Q 2144 -141 2100 -141 
Q 2016 -141 1978 -19 
L 697 3903 
Q 641 4088 555 4130 
Q 469 4172 116 4172 
z
" transform="scale(0.015625)"/>
      <path id="CMUSerif-Roman-64" d="M 219 1375 
Q 219 1984 644 2406 
Q 1069 2828 1644 2828 
Q 2131 2828 2450 2431 
L 2450 3816 
Q 2450 4053 2367 4112 
Q 2284 4172 1953 4172 
L 1953 4372 
L 2875 4441 
L 2875 556 
Q 2875 319 2958 258 
Q 3041 197 3372 197 
L 3372 0 
L 2431 -72 
L 2431 353 
Q 2100 -69 1575 -72 
Q 1025 -72 622 350 
Q 219 772 219 1375 
z
M 750 1369 
Q 750 775 934 481 
Q 1191 72 1606 72 
Q 2081 72 2363 519 
Q 2434 628 2431 756 
L 2431 2069 
Q 2431 2197 2363 2303 
Q 2100 2688 1672 2688 
Q 1225 2688 947 2278 
Q 750 1972 750 1369 
z
" transform="scale(0.015625)"/>
      <path id="CMUSerif-Roman-20" transform="scale(0.015625)"/>
      <path id="CMUSerif-Roman-28" d="M 634 1600 
Q 634 2681 1038 3553 
Q 1209 3919 1450 4225 
Q 1691 4531 1850 4665 
Q 2009 4800 2053 4800 
Q 2116 4800 2119 4738 
Q 2119 4706 2034 4628 
Q 1003 3578 1006 1600 
Q 1006 -384 2009 -1394 
Q 2119 -1503 2119 -1538 
Q 2119 -1600 2053 -1600 
Q 2009 -1600 1856 -1472 
Q 1703 -1344 1465 -1050 
Q 1228 -756 1056 -397 
Q 634 475 634 1600 
z
" transform="scale(0.015625)"/>
      <path id="CMUSerif-Roman-4d" d="M 238 0 
L 238 197 
Q 469 197 616 242 
Q 763 288 817 373 
Q 872 459 884 517 
Q 897 575 897 672 
L 897 3872 
Q 897 4056 817 4114 
Q 738 4172 391 4172 
L 238 4172 
L 238 4372 
L 1319 4372 
Q 1434 4372 1465 4351 
Q 1497 4331 1544 4231 
L 2931 647 
L 4331 4250 
Q 4363 4341 4392 4356 
Q 4422 4372 4544 4372 
L 5625 4372 
L 5625 4172 
L 5472 4172 
Q 5125 4172 5045 4114 
Q 4966 4056 4966 3872 
L 4966 500 
Q 4966 316 5045 256 
Q 5125 197 5472 197 
L 5625 197 
L 5625 0 
Q 5388 19 4709 19 
Q 4025 19 3788 0 
L 3788 197 
L 3944 197 
Q 4291 197 4369 255 
Q 4447 313 4447 500 
L 4447 4172 
L 4441 4172 
L 2869 122 
Q 2825 0 2753 0 
Q 2675 0 2625 141 
L 1081 4122 
L 1075 4122 
L 1075 672 
Q 1075 575 1087 517 
Q 1100 459 1154 373 
Q 1209 288 1356 242 
Q 1503 197 1734 197 
L 1734 0 
Q 1063 19 986 19 
Q 909 19 238 0 
z
" transform="scale(0.015625)"/>
      <path id="CMUSerif-Roman-65" d="M 178 1409 
Q 178 2013 565 2441 
Q 953 2869 1509 2869 
Q 2072 2869 2364 2503 
Q 2656 2138 2656 1613 
Q 2656 1516 2631 1497 
Q 2606 1478 2497 1478 
L 709 1478 
Q 709 825 903 519 
Q 1172 91 1625 91 
Q 1688 91 1763 103 
Q 1838 116 1991 170 
Q 2144 225 2278 372 
Q 2413 519 2491 750 
Q 2509 841 2572 838 
Q 2656 838 2656 763 
Q 2656 706 2595 579 
Q 2534 453 2418 303 
Q 2303 153 2079 40 
Q 1856 -72 1588 -72 
Q 1025 -72 601 354 
Q 178 781 178 1409 
z
M 716 1613 
L 2234 1613 
Q 2234 1747 2211 1897 
Q 2188 2047 2120 2255 
Q 2053 2463 1897 2594 
Q 1741 2725 1509 2725 
Q 1406 2725 1295 2681 
Q 1184 2638 1050 2531 
Q 916 2425 822 2184 
Q 728 1944 716 1613 
z
" transform="scale(0.015625)"/>
      <path id="CMUSerif-Roman-29" d="M 366 -1538 
Q 366 -1506 447 -1428 
Q 1478 -378 1478 1600 
Q 1478 3584 488 4588 
Q 366 4703 366 4738 
Q 366 4800 428 4800 
Q 472 4800 626 4672 
Q 781 4544 1017 4250 
Q 1253 3956 1428 3597 
Q 1850 2725 1850 1600 
Q 1850 519 1447 -353 
Q 1275 -719 1034 -1025 
Q 794 -1331 634 -1465 
Q 475 -1600 428 -1600 
Q 366 -1600 366 -1538 
z
" transform="scale(0.015625)"/>
     </defs>
     <use xlink:href="#CMUSerif-Roman-57"/>
     <use xlink:href="#CMUSerif-Roman-6f" x="102.685547"/>
     <use xlink:href="#CMUSerif-Roman-72" x="152.685547"/>
     <use xlink:href="#CMUSerif-Roman-64" x="191.748047"/>
     <use xlink:href="#CMUSerif-Roman-20" x="247.216797"/>
     <use xlink:href="#CMUSerif-Roman-41" x="280.46875"/>
     <use xlink:href="#CMUSerif-Roman-63" x="355.46875"/>
     <use xlink:href="#CMUSerif-Roman-63" x="399.853516"/>
     <use xlink:href="#CMUSerif-Roman-75" x="444.238281"/>
     <use xlink:href="#CMUSerif-Roman-72" x="499.707031"/>
     <use xlink:href="#CMUSerif-Roman-61" x="538.769531"/>
     <use xlink:href="#CMUSerif-Roman-63" x="588.769531"/>
     <use xlink:href="#CMUSerif-Roman-79" x="633.154297"/>
     <use xlink:href="#CMUSerif-Roman-20" x="685.839844"/>
     <use xlink:href="#CMUSerif-Roman-28" x="719.091797"/>
     <use xlink:href="#CMUSerif-Roman-4d" x="757.861328"/>
     <use xlink:href="#CMUSerif-Roman-61" x="849.414062"/>
     <use xlink:href="#CMUSerif-Roman-63" x="899.414062"/>
     <use xlink:href="#CMUSerif-Roman-68" x="943.798828"/>
     <use xlink:href="#CMUSerif-Roman-69" x="999.267578"/>
     <use xlink:href="#CMUSerif-Roman-6e" x="1026.953125"/>
     <use xlink:href="#CMUSerif-Roman-65" x="1082.421875"/>
     <use xlink:href="#CMUSerif-Roman-29" x="1126.806641"/>
    </g>
   </g>
  </g>
 </g>
 <defs>
  <clipPath id="p0d372f2482">
   <rect x="77.4" y="33.72" width="631.8" height="654.485"/>
  </clipPath>
 </defs>
</svg>
